%TF.GenerationSoftware,KiCad,Pcbnew,6.0.5-a6ca702e91~116~ubuntu20.04.1*%
%TF.CreationDate,2022-05-10T14:58:35-05:00*%
%TF.ProjectId,CarHUD,43617248-5544-42e6-9b69-6361645f7063,rev?*%
%TF.SameCoordinates,Original*%
%TF.FileFunction,Paste,Top*%
%TF.FilePolarity,Positive*%
%FSLAX46Y46*%
G04 Gerber Fmt 4.6, Leading zero omitted, Abs format (unit mm)*
G04 Created by KiCad (PCBNEW 6.0.5-a6ca702e91~116~ubuntu20.04.1) date 2022-05-10 14:58:35*
%MOMM*%
%LPD*%
G01*
G04 APERTURE LIST*
G04 Aperture macros list*
%AMRoundRect*
0 Rectangle with rounded corners*
0 $1 Rounding radius*
0 $2 $3 $4 $5 $6 $7 $8 $9 X,Y pos of 4 corners*
0 Add a 4 corners polygon primitive as box body*
4,1,4,$2,$3,$4,$5,$6,$7,$8,$9,$2,$3,0*
0 Add four circle primitives for the rounded corners*
1,1,$1+$1,$2,$3*
1,1,$1+$1,$4,$5*
1,1,$1+$1,$6,$7*
1,1,$1+$1,$8,$9*
0 Add four rect primitives between the rounded corners*
20,1,$1+$1,$2,$3,$4,$5,0*
20,1,$1+$1,$4,$5,$6,$7,0*
20,1,$1+$1,$6,$7,$8,$9,0*
20,1,$1+$1,$8,$9,$2,$3,0*%
G04 Aperture macros list end*
%ADD10RoundRect,0.200000X-0.275000X0.200000X-0.275000X-0.200000X0.275000X-0.200000X0.275000X0.200000X0*%
%ADD11R,0.400000X0.510000*%
%ADD12RoundRect,0.100000X0.712500X0.100000X-0.712500X0.100000X-0.712500X-0.100000X0.712500X-0.100000X0*%
%ADD13RoundRect,0.225000X-0.225000X-0.250000X0.225000X-0.250000X0.225000X0.250000X-0.225000X0.250000X0*%
%ADD14R,2.750000X1.000000*%
%ADD15RoundRect,0.225000X0.225000X0.250000X-0.225000X0.250000X-0.225000X-0.250000X0.225000X-0.250000X0*%
%ADD16RoundRect,0.225000X-0.250000X0.225000X-0.250000X-0.225000X0.250000X-0.225000X0.250000X0.225000X0*%
%ADD17RoundRect,0.200000X0.275000X-0.200000X0.275000X0.200000X-0.275000X0.200000X-0.275000X-0.200000X0*%
%ADD18R,0.510000X0.400000*%
%ADD19R,2.000000X0.900000*%
%ADD20R,0.900000X2.000000*%
%ADD21R,5.000000X5.000000*%
%ADD22RoundRect,0.225000X0.225000X0.225000X-0.225000X0.225000X-0.225000X-0.225000X0.225000X-0.225000X0*%
%ADD23RoundRect,0.062500X0.337500X0.062500X-0.337500X0.062500X-0.337500X-0.062500X0.337500X-0.062500X0*%
%ADD24RoundRect,0.062500X0.062500X0.337500X-0.062500X0.337500X-0.062500X-0.337500X0.062500X-0.337500X0*%
%ADD25RoundRect,0.200000X0.200000X0.275000X-0.200000X0.275000X-0.200000X-0.275000X0.200000X-0.275000X0*%
G04 APERTURE END LIST*
D10*
%TO.C,R2*%
X83301000Y-82699000D03*
X83301000Y-84349000D03*
%TD*%
D11*
%TO.C,Q2*%
X117213000Y-75682000D03*
X116213000Y-75682000D03*
X116713000Y-76972000D03*
%TD*%
D10*
%TO.C,R7*%
X82042000Y-53594000D03*
X82042000Y-55244000D03*
%TD*%
D12*
%TO.C,MIC3775*%
X121116500Y-58097000D03*
X121116500Y-56797000D03*
X116891500Y-57447000D03*
X116891500Y-58097000D03*
X116891500Y-56147000D03*
X116891500Y-56797000D03*
X121116500Y-57447000D03*
X121116500Y-56147000D03*
%TD*%
D13*
%TO.C,C3*%
X118478000Y-61087000D03*
X120028000Y-61087000D03*
%TD*%
D14*
%TO.C,SW1*%
X72599000Y-53912000D03*
X78359000Y-53912000D03*
X72599000Y-57912000D03*
X78359000Y-57912000D03*
%TD*%
D15*
%TO.C,C2*%
X119647000Y-54483000D03*
X118097000Y-54483000D03*
%TD*%
D16*
%TO.C,C1*%
X82042000Y-57010000D03*
X82042000Y-58560000D03*
%TD*%
D17*
%TO.C,R8*%
X113792000Y-62420000D03*
X113792000Y-60770000D03*
%TD*%
D10*
%TO.C,R6*%
X79502000Y-68834000D03*
X79502000Y-70484000D03*
%TD*%
D18*
%TO.C,Q1*%
X111008000Y-73017000D03*
X111008000Y-72017000D03*
X109718000Y-72517000D03*
%TD*%
D17*
%TO.C,R3*%
X79999000Y-84285000D03*
X79999000Y-82635000D03*
%TD*%
D10*
%TO.C,R1*%
X83301000Y-79270000D03*
X83301000Y-80920000D03*
%TD*%
%TO.C,R10*%
X119253000Y-72962000D03*
X119253000Y-74612000D03*
%TD*%
D19*
%TO.C,ESP32-WROOM-32D1*%
X89020000Y-53460000D03*
X89020000Y-54730000D03*
X89020000Y-56000000D03*
X89020000Y-57270000D03*
X89020000Y-58540000D03*
X89020000Y-59810000D03*
X89020000Y-61080000D03*
X89020000Y-62350000D03*
X89020000Y-63620000D03*
X89020000Y-64890000D03*
X89020000Y-66160000D03*
X89020000Y-67430000D03*
X89020000Y-68700000D03*
X89020000Y-69970000D03*
D20*
X91805000Y-70970000D03*
X93075000Y-70970000D03*
X94345000Y-70970000D03*
X95615000Y-70970000D03*
X96885000Y-70970000D03*
X98155000Y-70970000D03*
X99425000Y-70970000D03*
X100695000Y-70970000D03*
X101965000Y-70970000D03*
X103235000Y-70970000D03*
D19*
X106020000Y-69970000D03*
X106020000Y-68700000D03*
X106020000Y-67430000D03*
X106020000Y-66160000D03*
X106020000Y-64890000D03*
X106020000Y-63620000D03*
X106020000Y-62350000D03*
X106020000Y-61080000D03*
X106020000Y-59810000D03*
X106020000Y-58540000D03*
X106020000Y-57270000D03*
X106020000Y-56000000D03*
X106020000Y-54730000D03*
X106020000Y-53460000D03*
D21*
X96520000Y-60960000D03*
%TD*%
D17*
%TO.C,R4*%
X79999000Y-80920000D03*
X79999000Y-79270000D03*
%TD*%
D22*
%TO.C,CP2102*%
X117983000Y-67287000D03*
X119103000Y-67287000D03*
X119103000Y-65047000D03*
X116863000Y-65047000D03*
X117983000Y-65047000D03*
X119103000Y-66167000D03*
X116863000Y-67287000D03*
X116863000Y-66167000D03*
X117983000Y-66167000D03*
D23*
X120433000Y-67667000D03*
X120433000Y-67167000D03*
X120433000Y-66667000D03*
X120433000Y-66167000D03*
X120433000Y-65667000D03*
X120433000Y-65167000D03*
X120433000Y-64667000D03*
D24*
X119483000Y-63717000D03*
X118983000Y-63717000D03*
X118483000Y-63717000D03*
X117983000Y-63717000D03*
X117483000Y-63717000D03*
X116983000Y-63717000D03*
X116483000Y-63717000D03*
D23*
X115533000Y-64667000D03*
X115533000Y-65167000D03*
X115533000Y-65667000D03*
X115533000Y-66167000D03*
X115533000Y-66667000D03*
X115533000Y-67167000D03*
X115533000Y-67667000D03*
D24*
X116483000Y-68617000D03*
X116983000Y-68617000D03*
X117483000Y-68617000D03*
X117983000Y-68617000D03*
X118483000Y-68617000D03*
X118983000Y-68617000D03*
X119483000Y-68617000D03*
%TD*%
D25*
%TO.C,R9*%
X113728000Y-75057000D03*
X112078000Y-75057000D03*
%TD*%
M02*
