M48
; DRILL file {KiCad 6.0.5-a6ca702e91~116~ubuntu20.04.1} date Tue 10 May 2022 02:58:24 PM CDT
; FORMAT={-:-/ absolute / inch / decimal}
; #@! TF.CreationDate,2022-05-10T14:58:24-05:00
; #@! TF.GenerationSoftware,Kicad,Pcbnew,6.0.5-a6ca702e91~116~ubuntu20.04.1
; #@! TF.FileFunction,Plated,1,2,PTH
FMAT,2
INCH
; #@! TA.AperFunction,Plated,PTH,ViaDrill
T1C0.0157
; #@! TA.AperFunction,Plated,PTH,ComponentDrill
T2C0.0276
; #@! TA.AperFunction,Plated,PTH,ComponentDrill
T3C0.0315
%
G90
G05
T1
X3.3847Y-2.1547
X3.615Y-2.335
X4.28Y-2.86
X4.395Y-2.52
X4.46Y-2.075
X4.515Y-3.025
X4.54Y-2.9
X4.59Y-2.75
X4.81Y-2.545
X4.81Y-2.5844
X4.81Y-2.6237
T2
X3.13Y-2.48
X3.13Y-2.58
T3
X3.4646Y-3.0283
X3.4646Y-3.1283
X3.4646Y-3.2283
X3.4646Y-3.3283
X3.7646Y-3.0283
X3.7646Y-3.1283
X3.7646Y-3.2283
X3.7646Y-3.3283
T0
M30
