%TF.GenerationSoftware,KiCad,Pcbnew,6.0.5-a6ca702e91~116~ubuntu20.04.1*%
%TF.CreationDate,2022-05-10T14:58:35-05:00*%
%TF.ProjectId,CarHUD,43617248-5544-42e6-9b69-6361645f7063,rev?*%
%TF.SameCoordinates,Original*%
%TF.FileFunction,Legend,Bot*%
%TF.FilePolarity,Positive*%
%FSLAX46Y46*%
G04 Gerber Fmt 4.6, Leading zero omitted, Abs format (unit mm)*
G04 Created by KiCad (PCBNEW 6.0.5-a6ca702e91~116~ubuntu20.04.1) date 2022-05-10 14:58:35*
%MOMM*%
%LPD*%
G01*
G04 APERTURE LIST*
%ADD10C,0.150000*%
%ADD11C,0.120000*%
G04 APERTURE END LIST*
D10*
%TO.C,USB_MICRO1*%
X121505380Y-61714619D02*
X122314904Y-61714619D01*
X122410142Y-61762238D01*
X122457761Y-61809857D01*
X122505380Y-61905095D01*
X122505380Y-62095571D01*
X122457761Y-62190809D01*
X122410142Y-62238428D01*
X122314904Y-62286047D01*
X121505380Y-62286047D01*
X122457761Y-62714619D02*
X122505380Y-62857476D01*
X122505380Y-63095571D01*
X122457761Y-63190809D01*
X122410142Y-63238428D01*
X122314904Y-63286047D01*
X122219666Y-63286047D01*
X122124428Y-63238428D01*
X122076809Y-63190809D01*
X122029190Y-63095571D01*
X121981571Y-62905095D01*
X121933952Y-62809857D01*
X121886333Y-62762238D01*
X121791095Y-62714619D01*
X121695857Y-62714619D01*
X121600619Y-62762238D01*
X121553000Y-62809857D01*
X121505380Y-62905095D01*
X121505380Y-63143190D01*
X121553000Y-63286047D01*
X121981571Y-64047952D02*
X122029190Y-64190809D01*
X122076809Y-64238428D01*
X122172047Y-64286047D01*
X122314904Y-64286047D01*
X122410142Y-64238428D01*
X122457761Y-64190809D01*
X122505380Y-64095571D01*
X122505380Y-63714619D01*
X121505380Y-63714619D01*
X121505380Y-64047952D01*
X121553000Y-64143190D01*
X121600619Y-64190809D01*
X121695857Y-64238428D01*
X121791095Y-64238428D01*
X121886333Y-64190809D01*
X121933952Y-64143190D01*
X121981571Y-64047952D01*
X121981571Y-63714619D01*
X122600619Y-64476523D02*
X122600619Y-65238428D01*
X122505380Y-65476523D02*
X121505380Y-65476523D01*
X122219666Y-65809857D01*
X121505380Y-66143190D01*
X122505380Y-66143190D01*
X122505380Y-66619380D02*
X121505380Y-66619380D01*
X122410142Y-67667000D02*
X122457761Y-67619380D01*
X122505380Y-67476523D01*
X122505380Y-67381285D01*
X122457761Y-67238428D01*
X122362523Y-67143190D01*
X122267285Y-67095571D01*
X122076809Y-67047952D01*
X121933952Y-67047952D01*
X121743476Y-67095571D01*
X121648238Y-67143190D01*
X121553000Y-67238428D01*
X121505380Y-67381285D01*
X121505380Y-67476523D01*
X121553000Y-67619380D01*
X121600619Y-67667000D01*
X122505380Y-68667000D02*
X122029190Y-68333666D01*
X122505380Y-68095571D02*
X121505380Y-68095571D01*
X121505380Y-68476523D01*
X121553000Y-68571761D01*
X121600619Y-68619380D01*
X121695857Y-68667000D01*
X121838714Y-68667000D01*
X121933952Y-68619380D01*
X121981571Y-68571761D01*
X122029190Y-68476523D01*
X122029190Y-68095571D01*
X121505380Y-69286047D02*
X121505380Y-69476523D01*
X121553000Y-69571761D01*
X121648238Y-69667000D01*
X121838714Y-69714619D01*
X122172047Y-69714619D01*
X122362523Y-69667000D01*
X122457761Y-69571761D01*
X122505380Y-69476523D01*
X122505380Y-69286047D01*
X122457761Y-69190809D01*
X122362523Y-69095571D01*
X122172047Y-69047952D01*
X121838714Y-69047952D01*
X121648238Y-69095571D01*
X121553000Y-69190809D01*
X121505380Y-69286047D01*
X122505380Y-70667000D02*
X122505380Y-70095571D01*
X122505380Y-70381285D02*
X121505380Y-70381285D01*
X121648238Y-70286047D01*
X121743476Y-70190809D01*
X121791095Y-70095571D01*
D11*
X129763000Y-62307000D02*
X128153000Y-62307000D01*
X129763000Y-62307000D02*
X129763000Y-70027000D01*
X123943000Y-70027000D02*
X123943000Y-67967000D01*
X123943000Y-62307000D02*
X123943000Y-64367000D01*
X125653000Y-70027000D02*
X123943000Y-70027000D01*
X123943000Y-64367000D02*
X123353000Y-64367000D01*
X129763000Y-70027000D02*
X128153000Y-70027000D01*
X125653000Y-62307000D02*
X123943000Y-62307000D01*
%TD*%
M02*
