%TF.GenerationSoftware,KiCad,Pcbnew,6.0.5-a6ca702e91~116~ubuntu20.04.1*%
%TF.CreationDate,2022-05-10T14:58:35-05:00*%
%TF.ProjectId,CarHUD,43617248-5544-42e6-9b69-6361645f7063,rev?*%
%TF.SameCoordinates,Original*%
%TF.FileFunction,Copper,L1,Top*%
%TF.FilePolarity,Positive*%
%FSLAX46Y46*%
G04 Gerber Fmt 4.6, Leading zero omitted, Abs format (unit mm)*
G04 Created by KiCad (PCBNEW 6.0.5-a6ca702e91~116~ubuntu20.04.1) date 2022-05-10 14:58:35*
%MOMM*%
%LPD*%
G01*
G04 APERTURE LIST*
G04 Aperture macros list*
%AMRoundRect*
0 Rectangle with rounded corners*
0 $1 Rounding radius*
0 $2 $3 $4 $5 $6 $7 $8 $9 X,Y pos of 4 corners*
0 Add a 4 corners polygon primitive as box body*
4,1,4,$2,$3,$4,$5,$6,$7,$8,$9,$2,$3,0*
0 Add four circle primitives for the rounded corners*
1,1,$1+$1,$2,$3*
1,1,$1+$1,$4,$5*
1,1,$1+$1,$6,$7*
1,1,$1+$1,$8,$9*
0 Add four rect primitives between the rounded corners*
20,1,$1+$1,$2,$3,$4,$5,0*
20,1,$1+$1,$4,$5,$6,$7,0*
20,1,$1+$1,$6,$7,$8,$9,0*
20,1,$1+$1,$8,$9,$2,$3,0*%
G04 Aperture macros list end*
%TA.AperFunction,SMDPad,CuDef*%
%ADD10RoundRect,0.200000X-0.275000X0.200000X-0.275000X-0.200000X0.275000X-0.200000X0.275000X0.200000X0*%
%TD*%
%TA.AperFunction,SMDPad,CuDef*%
%ADD11R,0.400000X0.510000*%
%TD*%
%TA.AperFunction,SMDPad,CuDef*%
%ADD12RoundRect,0.100000X0.712500X0.100000X-0.712500X0.100000X-0.712500X-0.100000X0.712500X-0.100000X0*%
%TD*%
%TA.AperFunction,SMDPad,CuDef*%
%ADD13RoundRect,0.225000X-0.225000X-0.250000X0.225000X-0.250000X0.225000X0.250000X-0.225000X0.250000X0*%
%TD*%
%TA.AperFunction,ComponentPad*%
%ADD14C,1.400000*%
%TD*%
%TA.AperFunction,ComponentPad*%
%ADD15O,1.400000X1.400000*%
%TD*%
%TA.AperFunction,SMDPad,CuDef*%
%ADD16R,2.750000X1.000000*%
%TD*%
%TA.AperFunction,SMDPad,CuDef*%
%ADD17RoundRect,0.225000X0.225000X0.250000X-0.225000X0.250000X-0.225000X-0.250000X0.225000X-0.250000X0*%
%TD*%
%TA.AperFunction,SMDPad,CuDef*%
%ADD18RoundRect,0.225000X-0.250000X0.225000X-0.250000X-0.225000X0.250000X-0.225000X0.250000X0.225000X0*%
%TD*%
%TA.AperFunction,SMDPad,CuDef*%
%ADD19RoundRect,0.200000X0.275000X-0.200000X0.275000X0.200000X-0.275000X0.200000X-0.275000X-0.200000X0*%
%TD*%
%TA.AperFunction,SMDPad,CuDef*%
%ADD20R,0.510000X0.400000*%
%TD*%
%TA.AperFunction,ComponentPad*%
%ADD21R,1.600000X1.600000*%
%TD*%
%TA.AperFunction,ComponentPad*%
%ADD22O,1.600000X1.600000*%
%TD*%
%TA.AperFunction,SMDPad,CuDef*%
%ADD23R,2.000000X0.900000*%
%TD*%
%TA.AperFunction,SMDPad,CuDef*%
%ADD24R,0.900000X2.000000*%
%TD*%
%TA.AperFunction,SMDPad,CuDef*%
%ADD25R,5.000000X5.000000*%
%TD*%
%TA.AperFunction,SMDPad,CuDef*%
%ADD26RoundRect,0.062500X0.337500X0.062500X-0.337500X0.062500X-0.337500X-0.062500X0.337500X-0.062500X0*%
%TD*%
%TA.AperFunction,SMDPad,CuDef*%
%ADD27RoundRect,0.062500X0.062500X0.337500X-0.062500X0.337500X-0.062500X-0.337500X0.062500X-0.337500X0*%
%TD*%
%TA.AperFunction,SMDPad,CuDef*%
%ADD28R,3.350000X3.350000*%
%TD*%
%TA.AperFunction,SMDPad,CuDef*%
%ADD29RoundRect,0.200000X0.200000X0.275000X-0.200000X0.275000X-0.200000X-0.275000X0.200000X-0.275000X0*%
%TD*%
%TA.AperFunction,ViaPad*%
%ADD30C,0.800000*%
%TD*%
%TA.AperFunction,Conductor*%
%ADD31C,0.250000*%
%TD*%
%TA.AperFunction,Conductor*%
%ADD32C,0.200000*%
%TD*%
G04 APERTURE END LIST*
D10*
%TO.P,R2,1*%
%TO.N,Net-(R1-Pad2)*%
X83301000Y-82699000D03*
%TO.P,R2,2*%
%TO.N,+5V*%
X83301000Y-84349000D03*
%TD*%
D11*
%TO.P,Q2,1,B*%
%TO.N,Net-(Q2-Pad1)*%
X117213000Y-75682000D03*
%TO.P,Q2,2,E*%
%TO.N,/RESET*%
X116213000Y-75682000D03*
%TO.P,Q2,3,C*%
%TO.N,/RTS*%
X116713000Y-76972000D03*
%TD*%
D10*
%TO.P,R7,1*%
%TO.N,+3V3*%
X82042000Y-53594000D03*
%TO.P,R7,2*%
%TO.N,/RESET*%
X82042000Y-55244000D03*
%TD*%
D12*
%TO.P,MIC3775,EN,EN*%
%TO.N,+5V*%
X121116500Y-58097000D03*
%TO.P,MIC3775,FLG,FLG*%
%TO.N,unconnected-(MIC3775-PadFLG)*%
X121116500Y-56797000D03*
%TO.P,MIC3775,GND,GND*%
%TO.N,GND*%
X116891500Y-57447000D03*
X116891500Y-58097000D03*
X116891500Y-56147000D03*
X116891500Y-56797000D03*
%TO.P,MIC3775,IN,IN*%
%TO.N,+5V*%
X121116500Y-57447000D03*
%TO.P,MIC3775,OUT,OUT*%
%TO.N,+3V3*%
X121116500Y-56147000D03*
%TD*%
D13*
%TO.P,C3,1*%
%TO.N,+5V*%
X118478000Y-61087000D03*
%TO.P,C3,2*%
%TO.N,GND*%
X120028000Y-61087000D03*
%TD*%
D14*
%TO.P,R_Photo1,1*%
%TO.N,+3V3*%
X79502000Y-62992000D03*
D15*
%TO.P,R_Photo1,2*%
%TO.N,/PHOTO_SENS*%
X79502000Y-65532000D03*
%TD*%
D16*
%TO.P,SW1,1,1*%
%TO.N,GND*%
X72599000Y-53912000D03*
X78359000Y-53912000D03*
%TO.P,SW1,2,2*%
%TO.N,/RESET*%
X72599000Y-57912000D03*
X78359000Y-57912000D03*
%TD*%
D17*
%TO.P,C2,1*%
%TO.N,+3V3*%
X119647000Y-54483000D03*
%TO.P,C2,2*%
%TO.N,GND*%
X118097000Y-54483000D03*
%TD*%
D18*
%TO.P,C1,1*%
%TO.N,/RESET*%
X82042000Y-57010000D03*
%TO.P,C1,2*%
%TO.N,GND*%
X82042000Y-58560000D03*
%TD*%
D19*
%TO.P,R8,1*%
%TO.N,Net-(CP2102-Pad9)*%
X113792000Y-62420000D03*
%TO.P,R8,2*%
%TO.N,+5V*%
X113792000Y-60770000D03*
%TD*%
D10*
%TO.P,R6,1*%
%TO.N,/PHOTO_SENS*%
X79502000Y-68834000D03*
%TO.P,R6,2*%
%TO.N,GND*%
X79502000Y-70484000D03*
%TD*%
D20*
%TO.P,Q1,1,B*%
%TO.N,Net-(Q1-Pad1)*%
X111008000Y-73017000D03*
%TO.P,Q1,2,E*%
%TO.N,/DTR*%
X111008000Y-72017000D03*
%TO.P,Q1,3,C*%
%TO.N,/GPIO0*%
X109718000Y-72517000D03*
%TD*%
D19*
%TO.P,R3,1*%
%TO.N,+5V*%
X79999000Y-84285000D03*
%TO.P,R3,2*%
%TO.N,Net-(R3-Pad2)*%
X79999000Y-82635000D03*
%TD*%
D21*
%TO.P,DS1621,1,SDA*%
%TO.N,/SDA*%
X88000000Y-76920000D03*
D22*
%TO.P,DS1621,2,SCL*%
%TO.N,/SCL*%
X88000000Y-79460000D03*
%TO.P,DS1621,3,TOUT*%
%TO.N,unconnected-(DS1621-Pad3)*%
X88000000Y-82000000D03*
%TO.P,DS1621,4,GND*%
%TO.N,GND*%
X88000000Y-84540000D03*
%TO.P,DS1621,5,A2*%
X95620000Y-84540000D03*
%TO.P,DS1621,6,A1*%
X95620000Y-82000000D03*
%TO.P,DS1621,7,A0*%
X95620000Y-79460000D03*
%TO.P,DS1621,8,VDD*%
%TO.N,+5V*%
X95620000Y-76920000D03*
%TD*%
D10*
%TO.P,R1,1*%
%TO.N,/SCL*%
X83301000Y-79270000D03*
%TO.P,R1,2*%
%TO.N,Net-(R1-Pad2)*%
X83301000Y-80920000D03*
%TD*%
%TO.P,R10,1*%
%TO.N,/DTR*%
X119253000Y-72962000D03*
%TO.P,R10,2*%
%TO.N,Net-(Q2-Pad1)*%
X119253000Y-74612000D03*
%TD*%
D23*
%TO.P,ESP32-WROOM-32D1,1,GND*%
%TO.N,GND*%
X89020000Y-53460000D03*
%TO.P,ESP32-WROOM-32D1,2,VDD*%
%TO.N,+3V3*%
X89020000Y-54730000D03*
%TO.P,ESP32-WROOM-32D1,3,EN*%
%TO.N,/RESET*%
X89020000Y-56000000D03*
%TO.P,ESP32-WROOM-32D1,4,SENSOR_VP*%
%TO.N,unconnected-(ESP32-WROOM-32D1-Pad4)*%
X89020000Y-57270000D03*
%TO.P,ESP32-WROOM-32D1,5,SENSOR_VN*%
%TO.N,unconnected-(ESP32-WROOM-32D1-Pad5)*%
X89020000Y-58540000D03*
%TO.P,ESP32-WROOM-32D1,6,IO34*%
%TO.N,unconnected-(ESP32-WROOM-32D1-Pad6)*%
X89020000Y-59810000D03*
%TO.P,ESP32-WROOM-32D1,7,IO35*%
%TO.N,unconnected-(ESP32-WROOM-32D1-Pad7)*%
X89020000Y-61080000D03*
%TO.P,ESP32-WROOM-32D1,8,IO32*%
%TO.N,unconnected-(ESP32-WROOM-32D1-Pad8)*%
X89020000Y-62350000D03*
%TO.P,ESP32-WROOM-32D1,9,IO33*%
%TO.N,/PHOTO_SENS*%
X89020000Y-63620000D03*
%TO.P,ESP32-WROOM-32D1,10,IO25*%
%TO.N,unconnected-(ESP32-WROOM-32D1-Pad10)*%
X89020000Y-64890000D03*
%TO.P,ESP32-WROOM-32D1,11,IO26*%
%TO.N,unconnected-(ESP32-WROOM-32D1-Pad11)*%
X89020000Y-66160000D03*
%TO.P,ESP32-WROOM-32D1,12,IO27*%
%TO.N,unconnected-(ESP32-WROOM-32D1-Pad12)*%
X89020000Y-67430000D03*
%TO.P,ESP32-WROOM-32D1,13,IO14*%
%TO.N,unconnected-(ESP32-WROOM-32D1-Pad13)*%
X89020000Y-68700000D03*
%TO.P,ESP32-WROOM-32D1,14,IO12*%
%TO.N,unconnected-(ESP32-WROOM-32D1-Pad14)*%
X89020000Y-69970000D03*
D24*
%TO.P,ESP32-WROOM-32D1,15,GND*%
%TO.N,GND*%
X91805000Y-70970000D03*
%TO.P,ESP32-WROOM-32D1,16,IO13*%
%TO.N,unconnected-(ESP32-WROOM-32D1-Pad16)*%
X93075000Y-70970000D03*
%TO.P,ESP32-WROOM-32D1,17,SHD/SD2*%
%TO.N,unconnected-(ESP32-WROOM-32D1-Pad17)*%
X94345000Y-70970000D03*
%TO.P,ESP32-WROOM-32D1,18,SWP/SD3*%
%TO.N,unconnected-(ESP32-WROOM-32D1-Pad18)*%
X95615000Y-70970000D03*
%TO.P,ESP32-WROOM-32D1,19,SCS/CMD*%
%TO.N,unconnected-(ESP32-WROOM-32D1-Pad19)*%
X96885000Y-70970000D03*
%TO.P,ESP32-WROOM-32D1,20,SCK/CLK*%
%TO.N,unconnected-(ESP32-WROOM-32D1-Pad20)*%
X98155000Y-70970000D03*
%TO.P,ESP32-WROOM-32D1,21,SDO/SD0*%
%TO.N,/SDA*%
X99425000Y-70970000D03*
%TO.P,ESP32-WROOM-32D1,22,SDI/SD1*%
%TO.N,/SCL*%
X100695000Y-70970000D03*
%TO.P,ESP32-WROOM-32D1,23,IO15*%
%TO.N,unconnected-(ESP32-WROOM-32D1-Pad23)*%
X101965000Y-70970000D03*
%TO.P,ESP32-WROOM-32D1,24,IO2*%
%TO.N,unconnected-(ESP32-WROOM-32D1-Pad24)*%
X103235000Y-70970000D03*
D23*
%TO.P,ESP32-WROOM-32D1,25,IO0*%
%TO.N,/GPIO0*%
X106020000Y-69970000D03*
%TO.P,ESP32-WROOM-32D1,26,IO4*%
%TO.N,unconnected-(ESP32-WROOM-32D1-Pad26)*%
X106020000Y-68700000D03*
%TO.P,ESP32-WROOM-32D1,27,IO16*%
%TO.N,unconnected-(ESP32-WROOM-32D1-Pad27)*%
X106020000Y-67430000D03*
%TO.P,ESP32-WROOM-32D1,28,IO17*%
%TO.N,unconnected-(ESP32-WROOM-32D1-Pad28)*%
X106020000Y-66160000D03*
%TO.P,ESP32-WROOM-32D1,29,IO5*%
%TO.N,unconnected-(ESP32-WROOM-32D1-Pad29)*%
X106020000Y-64890000D03*
%TO.P,ESP32-WROOM-32D1,30,IO18*%
%TO.N,unconnected-(ESP32-WROOM-32D1-Pad30)*%
X106020000Y-63620000D03*
%TO.P,ESP32-WROOM-32D1,31,IO19*%
%TO.N,unconnected-(ESP32-WROOM-32D1-Pad31)*%
X106020000Y-62350000D03*
%TO.P,ESP32-WROOM-32D1,32,NC*%
%TO.N,unconnected-(ESP32-WROOM-32D1-Pad32)*%
X106020000Y-61080000D03*
%TO.P,ESP32-WROOM-32D1,33,IO21*%
%TO.N,unconnected-(ESP32-WROOM-32D1-Pad33)*%
X106020000Y-59810000D03*
%TO.P,ESP32-WROOM-32D1,34,RXD0/IO3*%
%TO.N,/RX_ESP*%
X106020000Y-58540000D03*
%TO.P,ESP32-WROOM-32D1,35,TXD0/IO1*%
%TO.N,/TX_ESP*%
X106020000Y-57270000D03*
%TO.P,ESP32-WROOM-32D1,36,IO22*%
%TO.N,unconnected-(ESP32-WROOM-32D1-Pad36)*%
X106020000Y-56000000D03*
%TO.P,ESP32-WROOM-32D1,37,IO23*%
%TO.N,unconnected-(ESP32-WROOM-32D1-Pad37)*%
X106020000Y-54730000D03*
%TO.P,ESP32-WROOM-32D1,38,GND*%
%TO.N,GND*%
X106020000Y-53460000D03*
D25*
%TO.P,ESP32-WROOM-32D1,39,GND*%
X96520000Y-60960000D03*
%TD*%
D19*
%TO.P,R4,1*%
%TO.N,Net-(R3-Pad2)*%
X79999000Y-80920000D03*
%TO.P,R4,2*%
%TO.N,/SDA*%
X79999000Y-79270000D03*
%TD*%
D26*
%TO.P,CP2102,1,~{DCD}*%
%TO.N,unconnected-(CP2102-Pad1)*%
X120433000Y-67667000D03*
%TO.P,CP2102,2,~{RI}/CLK*%
%TO.N,unconnected-(CP2102-Pad2)*%
X120433000Y-67167000D03*
%TO.P,CP2102,3,GND*%
%TO.N,GND*%
X120433000Y-66667000D03*
%TO.P,CP2102,4,D+*%
%TO.N,/D+*%
X120433000Y-66167000D03*
%TO.P,CP2102,5,D-*%
%TO.N,/D-*%
X120433000Y-65667000D03*
%TO.P,CP2102,6,VDD*%
%TO.N,unconnected-(CP2102-Pad6)*%
X120433000Y-65167000D03*
%TO.P,CP2102,7,VREGIN*%
%TO.N,+5V*%
X120433000Y-64667000D03*
D27*
%TO.P,CP2102,8,VBUS*%
X119483000Y-63717000D03*
%TO.P,CP2102,9,~{RST}*%
%TO.N,Net-(CP2102-Pad9)*%
X118983000Y-63717000D03*
%TO.P,CP2102,10,NC*%
%TO.N,unconnected-(CP2102-Pad10)*%
X118483000Y-63717000D03*
%TO.P,CP2102,11,~{SUSPEND}*%
%TO.N,unconnected-(CP2102-Pad11)*%
X117983000Y-63717000D03*
%TO.P,CP2102,12,SUSPEND*%
%TO.N,unconnected-(CP2102-Pad12)*%
X117483000Y-63717000D03*
%TO.P,CP2102,13,CHREN*%
%TO.N,unconnected-(CP2102-Pad13)*%
X116983000Y-63717000D03*
%TO.P,CP2102,14,CHR1*%
%TO.N,unconnected-(CP2102-Pad14)*%
X116483000Y-63717000D03*
D26*
%TO.P,CP2102,15,CHR0*%
%TO.N,unconnected-(CP2102-Pad15)*%
X115533000Y-64667000D03*
%TO.P,CP2102,16,~{WAKEUP}/GPIO.3*%
%TO.N,unconnected-(CP2102-Pad16)*%
X115533000Y-65167000D03*
%TO.P,CP2102,17,RS485/GPIO.2*%
%TO.N,unconnected-(CP2102-Pad17)*%
X115533000Y-65667000D03*
%TO.P,CP2102,18,~{RXT}/GPIO.1*%
%TO.N,unconnected-(CP2102-Pad18)*%
X115533000Y-66167000D03*
%TO.P,CP2102,19,~{TXT}/GPIO.0*%
%TO.N,unconnected-(CP2102-Pad19)*%
X115533000Y-66667000D03*
%TO.P,CP2102,20,GPIO.6*%
%TO.N,unconnected-(CP2102-Pad20)*%
X115533000Y-67167000D03*
%TO.P,CP2102,21,GPIO.5*%
%TO.N,unconnected-(CP2102-Pad21)*%
X115533000Y-67667000D03*
D27*
%TO.P,CP2102,22,GPIO.4*%
%TO.N,unconnected-(CP2102-Pad22)*%
X116483000Y-68617000D03*
%TO.P,CP2102,23,~{CTS}*%
%TO.N,unconnected-(CP2102-Pad23)*%
X116983000Y-68617000D03*
%TO.P,CP2102,24,~{RTS}*%
%TO.N,/RTS*%
X117483000Y-68617000D03*
%TO.P,CP2102,25,RXD*%
%TO.N,/TX_ESP*%
X117983000Y-68617000D03*
%TO.P,CP2102,26,TXD*%
%TO.N,/RX_ESP*%
X118483000Y-68617000D03*
%TO.P,CP2102,27,~{DSR}*%
%TO.N,unconnected-(CP2102-Pad27)*%
X118983000Y-68617000D03*
%TO.P,CP2102,28,~{DTR}*%
%TO.N,/DTR*%
X119483000Y-68617000D03*
D28*
%TO.P,CP2102,29,GND*%
%TO.N,GND*%
X117983000Y-66167000D03*
%TD*%
D29*
%TO.P,R9,1*%
%TO.N,/RTS*%
X113728000Y-75057000D03*
%TO.P,R9,2*%
%TO.N,Net-(Q1-Pad1)*%
X112078000Y-75057000D03*
%TD*%
D30*
%TO.N,/RESET*%
X91821000Y-59309000D03*
X115316000Y-73660000D03*
%TO.N,+3V3*%
X113284000Y-52705000D03*
X85972000Y-54730000D03*
%TO.N,+5V*%
X122174000Y-64643000D03*
X111633000Y-64008000D03*
X108712000Y-72644000D03*
%TO.N,/D-*%
X122174000Y-65642503D03*
%TO.N,/D+*%
X122174000Y-66642006D03*
%TO.N,/RTS*%
X116586000Y-69850000D03*
X114681000Y-76835000D03*
%TD*%
D31*
%TO.N,/RESET*%
X82798000Y-56000000D02*
X89020000Y-56000000D01*
X78359000Y-57912000D02*
X81140000Y-57912000D01*
X82042000Y-55244000D02*
X82798000Y-56000000D01*
X116213000Y-75682000D02*
X116213000Y-74557000D01*
X82042000Y-55244000D02*
X82042000Y-57010000D01*
X90270000Y-56000000D02*
X89020000Y-56000000D01*
X72599000Y-57912000D02*
X78359000Y-57912000D01*
X91821000Y-57551000D02*
X90270000Y-56000000D01*
X116213000Y-74557000D02*
X115316000Y-73660000D01*
X81140000Y-57912000D02*
X82042000Y-57010000D01*
X91821000Y-59309000D02*
X91821000Y-57551000D01*
%TO.N,GND*%
X120880328Y-66667000D02*
X122000000Y-67786672D01*
X118483000Y-66667000D02*
X117983000Y-66167000D01*
X120433000Y-66667000D02*
X120880328Y-66667000D01*
X122000000Y-67786672D02*
X122000000Y-68000000D01*
X120433000Y-66667000D02*
X118483000Y-66667000D01*
%TO.N,+3V3*%
X85972000Y-54730000D02*
X89020000Y-54730000D01*
X119647000Y-54483000D02*
X119647000Y-53734000D01*
X121116500Y-55952500D02*
X119647000Y-54483000D01*
X119647000Y-53734000D02*
X118618000Y-52705000D01*
X85972000Y-54730000D02*
X85845000Y-54730000D01*
X118618000Y-52705000D02*
X113284000Y-52705000D01*
X83178000Y-54730000D02*
X82042000Y-53594000D01*
X121116500Y-56147000D02*
X121116500Y-55952500D01*
X85845000Y-54730000D02*
X83178000Y-54730000D01*
%TO.N,+5V*%
X118478000Y-61087000D02*
X118478000Y-60735500D01*
X118161000Y-60770000D02*
X118478000Y-61087000D01*
X83301000Y-84349000D02*
X84889000Y-85937000D01*
X118478000Y-60735500D02*
X121116500Y-58097000D01*
X120457000Y-64643000D02*
X120433000Y-64667000D01*
X119483000Y-63717000D02*
X119483000Y-62092000D01*
X113792000Y-60770000D02*
X118161000Y-60770000D01*
X90540000Y-85937000D02*
X84889000Y-85937000D01*
X120433000Y-64667000D02*
X119483000Y-63717000D01*
X102080000Y-76920000D02*
X95620000Y-76920000D01*
X111633000Y-62929000D02*
X113792000Y-60770000D01*
X83237000Y-84285000D02*
X83301000Y-84349000D01*
X90540000Y-85937000D02*
X91810000Y-84667000D01*
X119483000Y-62092000D02*
X118478000Y-61087000D01*
X108712000Y-72644000D02*
X106356000Y-72644000D01*
X79999000Y-84285000D02*
X83237000Y-84285000D01*
X121116500Y-58097000D02*
X121116500Y-57447000D01*
X122174000Y-64643000D02*
X120457000Y-64643000D01*
X93969000Y-76920000D02*
X95620000Y-76920000D01*
X111633000Y-64008000D02*
X111633000Y-62929000D01*
X91810000Y-79079000D02*
X93969000Y-76920000D01*
X91810000Y-84667000D02*
X91810000Y-79079000D01*
X106356000Y-72644000D02*
X102080000Y-76920000D01*
D32*
%TO.N,/D-*%
X122174000Y-65642503D02*
X120457497Y-65642503D01*
X120457497Y-65642503D02*
X120433000Y-65667000D01*
%TO.N,/D+*%
X121698994Y-66167000D02*
X120433000Y-66167000D01*
X122174000Y-66642006D02*
X121698994Y-66167000D01*
D31*
%TO.N,Net-(Q1-Pad1)*%
X112078000Y-74087000D02*
X111008000Y-73017000D01*
X112078000Y-75057000D02*
X112078000Y-74087000D01*
%TO.N,/DTR*%
X119483000Y-72732000D02*
X119483000Y-68617000D01*
X119253000Y-72962000D02*
X119483000Y-72732000D01*
X118308000Y-72017000D02*
X119253000Y-72962000D01*
X111008000Y-72017000D02*
X118308000Y-72017000D01*
%TO.N,/GPIO0*%
X109718000Y-71491000D02*
X108197000Y-69970000D01*
X109718000Y-72517000D02*
X109718000Y-71491000D01*
X108197000Y-69970000D02*
X106020000Y-69970000D01*
%TO.N,Net-(Q2-Pad1)*%
X119253000Y-74612000D02*
X118283000Y-74612000D01*
X118283000Y-74612000D02*
X117213000Y-75682000D01*
%TO.N,/RTS*%
X116586000Y-69850000D02*
X116697328Y-69850000D01*
X114681000Y-76835000D02*
X116576000Y-76835000D01*
X117483000Y-69064328D02*
X117483000Y-68617000D01*
X116697328Y-69850000D02*
X117483000Y-69064328D01*
X114681000Y-76010000D02*
X113728000Y-75057000D01*
X114681000Y-76835000D02*
X114681000Y-76010000D01*
X116576000Y-76835000D02*
X116713000Y-76972000D01*
%TO.N,/SCL*%
X98500000Y-75000000D02*
X100695000Y-72805000D01*
X88000000Y-79460000D02*
X89790000Y-79460000D01*
X89790000Y-79460000D02*
X94250000Y-75000000D01*
X94250000Y-75000000D02*
X98500000Y-75000000D01*
X100695000Y-72805000D02*
X100695000Y-70970000D01*
X83491000Y-79460000D02*
X88000000Y-79460000D01*
X83301000Y-79270000D02*
X83491000Y-79460000D01*
%TO.N,Net-(R1-Pad2)*%
X83301000Y-80920000D02*
X83301000Y-82699000D01*
%TO.N,Net-(R3-Pad2)*%
X79999000Y-80920000D02*
X79999000Y-82635000D01*
%TO.N,/SDA*%
X97645000Y-74000000D02*
X93750000Y-74000000D01*
X99425000Y-72220000D02*
X97645000Y-74000000D01*
X99425000Y-70970000D02*
X99425000Y-72220000D01*
X93750000Y-74000000D02*
X90830000Y-76920000D01*
X88000000Y-76920000D02*
X82349000Y-76920000D01*
X82349000Y-76920000D02*
X79999000Y-79270000D01*
X90830000Y-76920000D02*
X88000000Y-76920000D01*
%TO.N,/PHOTO_SENS*%
X81414000Y-63620000D02*
X89020000Y-63620000D01*
X79502000Y-68834000D02*
X79502000Y-65532000D01*
X79502000Y-65532000D02*
X81414000Y-63620000D01*
%TO.N,Net-(CP2102-Pad9)*%
X118983000Y-63717000D02*
X118983000Y-63269672D01*
X118983000Y-63269672D02*
X118133328Y-62420000D01*
X118133328Y-62420000D02*
X113792000Y-62420000D01*
%TO.N,/RX_ESP*%
X117072300Y-71024031D02*
X115982031Y-71024031D01*
X118483000Y-69613331D02*
X117072300Y-71024031D01*
X115982031Y-71024031D02*
X108712000Y-63754000D01*
X118483000Y-68617000D02*
X118483000Y-69613331D01*
X108712000Y-63754000D02*
X108712000Y-60452000D01*
X108712000Y-60452000D02*
X106800000Y-58540000D01*
X106800000Y-58540000D02*
X106020000Y-58540000D01*
%TO.N,/TX_ESP*%
X108705000Y-57270000D02*
X106020000Y-57270000D01*
X116285897Y-70574511D02*
X109855000Y-64143614D01*
X116886103Y-70574511D02*
X116285897Y-70574511D01*
X117983000Y-68617000D02*
X117983000Y-69477614D01*
X109855000Y-64143614D02*
X109855000Y-58420000D01*
X109855000Y-58420000D02*
X108705000Y-57270000D01*
X117983000Y-69477614D02*
X116886103Y-70574511D01*
%TD*%
%TA.AperFunction,Conductor*%
%TO.N,GND*%
G36*
X83462121Y-46528502D02*
G01*
X83508614Y-46582158D01*
X83520000Y-46634500D01*
X83520000Y-51745000D01*
X111520000Y-51745000D01*
X111520000Y-51132703D01*
X122390743Y-51132703D01*
X122428268Y-51417734D01*
X122504129Y-51695036D01*
X122505813Y-51698984D01*
X122564344Y-51836206D01*
X122616923Y-51959476D01*
X122656817Y-52026134D01*
X122757188Y-52193841D01*
X122764561Y-52206161D01*
X122944313Y-52430528D01*
X123152851Y-52628423D01*
X123386317Y-52796186D01*
X123390112Y-52798195D01*
X123390113Y-52798196D01*
X123411869Y-52809715D01*
X123640392Y-52930712D01*
X123910373Y-53029511D01*
X124191264Y-53090755D01*
X124219841Y-53093004D01*
X124414282Y-53108307D01*
X124414291Y-53108307D01*
X124416739Y-53108500D01*
X124572271Y-53108500D01*
X124574407Y-53108354D01*
X124574418Y-53108354D01*
X124782548Y-53094165D01*
X124782554Y-53094164D01*
X124786825Y-53093873D01*
X124791020Y-53093004D01*
X124791022Y-53093004D01*
X124927583Y-53064724D01*
X125068342Y-53035574D01*
X125339343Y-52939607D01*
X125594812Y-52807750D01*
X125598313Y-52805289D01*
X125598317Y-52805287D01*
X125731669Y-52711565D01*
X125830023Y-52642441D01*
X126040622Y-52446740D01*
X126222713Y-52224268D01*
X126372927Y-51979142D01*
X126399871Y-51917763D01*
X126486757Y-51719830D01*
X126488483Y-51715898D01*
X126567244Y-51439406D01*
X126607751Y-51154784D01*
X126607845Y-51136951D01*
X126609235Y-50871583D01*
X126609235Y-50871576D01*
X126609257Y-50867297D01*
X126571732Y-50582266D01*
X126495871Y-50304964D01*
X126383077Y-50040524D01*
X126235439Y-49793839D01*
X126055687Y-49569472D01*
X125847149Y-49371577D01*
X125613683Y-49203814D01*
X125591843Y-49192250D01*
X125568654Y-49179972D01*
X125359608Y-49069288D01*
X125089627Y-48970489D01*
X124808736Y-48909245D01*
X124777685Y-48906801D01*
X124585718Y-48891693D01*
X124585709Y-48891693D01*
X124583261Y-48891500D01*
X124427729Y-48891500D01*
X124425593Y-48891646D01*
X124425582Y-48891646D01*
X124217452Y-48905835D01*
X124217446Y-48905836D01*
X124213175Y-48906127D01*
X124208980Y-48906996D01*
X124208978Y-48906996D01*
X124072417Y-48935276D01*
X123931658Y-48964426D01*
X123660657Y-49060393D01*
X123405188Y-49192250D01*
X123401687Y-49194711D01*
X123401683Y-49194713D01*
X123391594Y-49201804D01*
X123169977Y-49357559D01*
X122959378Y-49553260D01*
X122777287Y-49775732D01*
X122627073Y-50020858D01*
X122511517Y-50284102D01*
X122432756Y-50560594D01*
X122392249Y-50845216D01*
X122392227Y-50849505D01*
X122392226Y-50849512D01*
X122390765Y-51128417D01*
X122390743Y-51132703D01*
X111520000Y-51132703D01*
X111520000Y-46634500D01*
X111540002Y-46566379D01*
X111593658Y-46519886D01*
X111646000Y-46508500D01*
X129365500Y-46508500D01*
X129433621Y-46528502D01*
X129480114Y-46582158D01*
X129491500Y-46634500D01*
X129491500Y-86365500D01*
X129471498Y-86433621D01*
X129417842Y-86480114D01*
X129365500Y-86491500D01*
X91185594Y-86491500D01*
X91117473Y-86471498D01*
X91070980Y-86417842D01*
X91060876Y-86347568D01*
X91090370Y-86282988D01*
X91096499Y-86276405D01*
X92202247Y-85170657D01*
X92210537Y-85163113D01*
X92217018Y-85159000D01*
X92263659Y-85109332D01*
X92266413Y-85106491D01*
X92286134Y-85086770D01*
X92288612Y-85083575D01*
X92296318Y-85074553D01*
X92321158Y-85048101D01*
X92326586Y-85042321D01*
X92336346Y-85024568D01*
X92347199Y-85008045D01*
X92354753Y-84998306D01*
X92359613Y-84992041D01*
X92377176Y-84951457D01*
X92382383Y-84940827D01*
X92403695Y-84902060D01*
X92405666Y-84894383D01*
X92405668Y-84894378D01*
X92408732Y-84882442D01*
X92415138Y-84863730D01*
X92417402Y-84858500D01*
X92423181Y-84845145D01*
X92424421Y-84837317D01*
X92424423Y-84837310D01*
X92430099Y-84801476D01*
X92432505Y-84789856D01*
X92441528Y-84754711D01*
X92441528Y-84754710D01*
X92443500Y-84747030D01*
X92443500Y-84726776D01*
X92445051Y-84707065D01*
X92446980Y-84694886D01*
X92448220Y-84687057D01*
X92444059Y-84643038D01*
X92443500Y-84631181D01*
X92443500Y-82882703D01*
X123640743Y-82882703D01*
X123641302Y-82886947D01*
X123641302Y-82886951D01*
X123652426Y-82971446D01*
X123678268Y-83167734D01*
X123679401Y-83171874D01*
X123679401Y-83171876D01*
X123684197Y-83189406D01*
X123754129Y-83445036D01*
X123755813Y-83448984D01*
X123826453Y-83614595D01*
X123866923Y-83709476D01*
X123878693Y-83729142D01*
X123954198Y-83855301D01*
X124014561Y-83956161D01*
X124194313Y-84180528D01*
X124211397Y-84196740D01*
X124375434Y-84352405D01*
X124402851Y-84378423D01*
X124636317Y-84546186D01*
X124640112Y-84548195D01*
X124640113Y-84548196D01*
X124661869Y-84559715D01*
X124890392Y-84680712D01*
X125160373Y-84779511D01*
X125441264Y-84840755D01*
X125469841Y-84843004D01*
X125664282Y-84858307D01*
X125664291Y-84858307D01*
X125666739Y-84858500D01*
X125822271Y-84858500D01*
X125824407Y-84858354D01*
X125824418Y-84858354D01*
X126032548Y-84844165D01*
X126032554Y-84844164D01*
X126036825Y-84843873D01*
X126041020Y-84843004D01*
X126041022Y-84843004D01*
X126177584Y-84814723D01*
X126318342Y-84785574D01*
X126589343Y-84689607D01*
X126844812Y-84557750D01*
X126848313Y-84555289D01*
X126848317Y-84555287D01*
X127053350Y-84411187D01*
X127080023Y-84392441D01*
X127290622Y-84196740D01*
X127472713Y-83974268D01*
X127622927Y-83729142D01*
X127657010Y-83651500D01*
X127736757Y-83469830D01*
X127738483Y-83465898D01*
X127747793Y-83433217D01*
X127816068Y-83193534D01*
X127817244Y-83189406D01*
X127857751Y-82904784D01*
X127857836Y-82888737D01*
X127859235Y-82621583D01*
X127859235Y-82621576D01*
X127859257Y-82617297D01*
X127821732Y-82332266D01*
X127812510Y-82298554D01*
X127791733Y-82222607D01*
X127745871Y-82054964D01*
X127722427Y-82000000D01*
X127634763Y-81794476D01*
X127634761Y-81794472D01*
X127633077Y-81790524D01*
X127498557Y-81565757D01*
X127487643Y-81547521D01*
X127487640Y-81547517D01*
X127485439Y-81543839D01*
X127305687Y-81319472D01*
X127097149Y-81121577D01*
X126863683Y-80953814D01*
X126841843Y-80942250D01*
X126697140Y-80865634D01*
X126609608Y-80819288D01*
X126339627Y-80720489D01*
X126058736Y-80659245D01*
X126027685Y-80656801D01*
X125835718Y-80641693D01*
X125835709Y-80641693D01*
X125833261Y-80641500D01*
X125677729Y-80641500D01*
X125675593Y-80641646D01*
X125675582Y-80641646D01*
X125467452Y-80655835D01*
X125467446Y-80655836D01*
X125463175Y-80656127D01*
X125458980Y-80656996D01*
X125458978Y-80656996D01*
X125322416Y-80685277D01*
X125181658Y-80714426D01*
X124910657Y-80810393D01*
X124655188Y-80942250D01*
X124651687Y-80944711D01*
X124651683Y-80944713D01*
X124581837Y-80993802D01*
X124419977Y-81107559D01*
X124209378Y-81303260D01*
X124027287Y-81525732D01*
X123877073Y-81770858D01*
X123875347Y-81774791D01*
X123875346Y-81774792D01*
X123803983Y-81937361D01*
X123761517Y-82034102D01*
X123760342Y-82038229D01*
X123760341Y-82038230D01*
X123755574Y-82054964D01*
X123682756Y-82310594D01*
X123642249Y-82595216D01*
X123642227Y-82599505D01*
X123642226Y-82599512D01*
X123640765Y-82878417D01*
X123640743Y-82882703D01*
X92443500Y-82882703D01*
X92443500Y-79393594D01*
X92463502Y-79325473D01*
X92480405Y-79304499D01*
X94194500Y-77590405D01*
X94256812Y-77556379D01*
X94283595Y-77553500D01*
X94400606Y-77553500D01*
X94468727Y-77573502D01*
X94503819Y-77607229D01*
X94610643Y-77759789D01*
X94613802Y-77764300D01*
X94775700Y-77926198D01*
X94780208Y-77929355D01*
X94780211Y-77929357D01*
X94821542Y-77958297D01*
X94963251Y-78057523D01*
X94968233Y-78059846D01*
X94968238Y-78059849D01*
X95165775Y-78151961D01*
X95170757Y-78154284D01*
X95176065Y-78155706D01*
X95176067Y-78155707D01*
X95386598Y-78212119D01*
X95386600Y-78212119D01*
X95391913Y-78213543D01*
X95620000Y-78233498D01*
X95848087Y-78213543D01*
X95853400Y-78212119D01*
X95853402Y-78212119D01*
X96063933Y-78155707D01*
X96063935Y-78155706D01*
X96069243Y-78154284D01*
X96074225Y-78151961D01*
X96271762Y-78059849D01*
X96271767Y-78059846D01*
X96276749Y-78057523D01*
X96418458Y-77958297D01*
X96459789Y-77929357D01*
X96459792Y-77929355D01*
X96464300Y-77926198D01*
X96626198Y-77764300D01*
X96629357Y-77759789D01*
X96736181Y-77607229D01*
X96791638Y-77562901D01*
X96839394Y-77553500D01*
X102001233Y-77553500D01*
X102012416Y-77554027D01*
X102019909Y-77555702D01*
X102027835Y-77555453D01*
X102027836Y-77555453D01*
X102087986Y-77553562D01*
X102091945Y-77553500D01*
X102119856Y-77553500D01*
X102123791Y-77553003D01*
X102123856Y-77552995D01*
X102135693Y-77552062D01*
X102167951Y-77551048D01*
X102171970Y-77550922D01*
X102179889Y-77550673D01*
X102199343Y-77545021D01*
X102218700Y-77541013D01*
X102230930Y-77539468D01*
X102230931Y-77539468D01*
X102238797Y-77538474D01*
X102246168Y-77535555D01*
X102246170Y-77535555D01*
X102279912Y-77522196D01*
X102291142Y-77518351D01*
X102325983Y-77508229D01*
X102325984Y-77508229D01*
X102333593Y-77506018D01*
X102340412Y-77501985D01*
X102340417Y-77501983D01*
X102351028Y-77495707D01*
X102368776Y-77487012D01*
X102387617Y-77479552D01*
X102396706Y-77472949D01*
X102423387Y-77453564D01*
X102433307Y-77447048D01*
X102464535Y-77428580D01*
X102464538Y-77428578D01*
X102471362Y-77424542D01*
X102485683Y-77410221D01*
X102500717Y-77397380D01*
X102510694Y-77390131D01*
X102517107Y-77385472D01*
X102545298Y-77351395D01*
X102553288Y-77342616D01*
X106581499Y-73314405D01*
X106643811Y-73280379D01*
X106670594Y-73277500D01*
X108003800Y-73277500D01*
X108071921Y-73297502D01*
X108091147Y-73313843D01*
X108091420Y-73313540D01*
X108096332Y-73317963D01*
X108100747Y-73322866D01*
X108106086Y-73326745D01*
X108226156Y-73413981D01*
X108255248Y-73435118D01*
X108261276Y-73437802D01*
X108261278Y-73437803D01*
X108422940Y-73509779D01*
X108429712Y-73512794D01*
X108510043Y-73529869D01*
X108610056Y-73551128D01*
X108610061Y-73551128D01*
X108616513Y-73552500D01*
X108807487Y-73552500D01*
X108813939Y-73551128D01*
X108813944Y-73551128D01*
X108913957Y-73529869D01*
X108994288Y-73512794D01*
X109001060Y-73509779D01*
X109162722Y-73437803D01*
X109162724Y-73437802D01*
X109168752Y-73435118D01*
X109197845Y-73413981D01*
X109317914Y-73326745D01*
X109323253Y-73322866D01*
X109330872Y-73314405D01*
X109373385Y-73267189D01*
X109433831Y-73229950D01*
X109467021Y-73225500D01*
X110021134Y-73225500D01*
X110083316Y-73218745D01*
X110090714Y-73215972D01*
X110096441Y-73214610D01*
X110167341Y-73218313D01*
X110224985Y-73259758D01*
X110246283Y-73312323D01*
X110248575Y-73311778D01*
X110250402Y-73319460D01*
X110251255Y-73327316D01*
X110302385Y-73463705D01*
X110389739Y-73580261D01*
X110506295Y-73667615D01*
X110642684Y-73718745D01*
X110704866Y-73725500D01*
X110768406Y-73725500D01*
X110836527Y-73745502D01*
X110857501Y-73762405D01*
X111291897Y-74196801D01*
X111325923Y-74259113D01*
X111320858Y-74329928D01*
X111310578Y-74351167D01*
X111231463Y-74481803D01*
X111227528Y-74488301D01*
X111225257Y-74495548D01*
X111225256Y-74495550D01*
X111214838Y-74528794D01*
X111176247Y-74651938D01*
X111169500Y-74725365D01*
X111169501Y-75388634D01*
X111176247Y-75462062D01*
X111178246Y-75468440D01*
X111178246Y-75468441D01*
X111220163Y-75602196D01*
X111227528Y-75625699D01*
X111316361Y-75772381D01*
X111437619Y-75893639D01*
X111584301Y-75982472D01*
X111591548Y-75984743D01*
X111591550Y-75984744D01*
X111640325Y-76000029D01*
X111747938Y-76033753D01*
X111821365Y-76040500D01*
X111824263Y-76040500D01*
X112078665Y-76040499D01*
X112334634Y-76040499D01*
X112337492Y-76040236D01*
X112337501Y-76040236D01*
X112373004Y-76036974D01*
X112408062Y-76033753D01*
X112414447Y-76031752D01*
X112564450Y-75984744D01*
X112564452Y-75984743D01*
X112571699Y-75982472D01*
X112718381Y-75893639D01*
X112813905Y-75798115D01*
X112876217Y-75764089D01*
X112947032Y-75769154D01*
X112992095Y-75798115D01*
X113087619Y-75893639D01*
X113234301Y-75982472D01*
X113241548Y-75984743D01*
X113241550Y-75984744D01*
X113290325Y-76000029D01*
X113397938Y-76033753D01*
X113471365Y-76040500D01*
X113489474Y-76040500D01*
X113763406Y-76040499D01*
X113831525Y-76060501D01*
X113852500Y-76077404D01*
X113921614Y-76146518D01*
X113955640Y-76208830D01*
X113950575Y-76279645D01*
X113941638Y-76298613D01*
X113849777Y-76457721D01*
X113846473Y-76463444D01*
X113787458Y-76645072D01*
X113786768Y-76651633D01*
X113786768Y-76651635D01*
X113768186Y-76828435D01*
X113767496Y-76835000D01*
X113787458Y-77024928D01*
X113846473Y-77206556D01*
X113941960Y-77371944D01*
X113946378Y-77376851D01*
X113946379Y-77376852D01*
X114061350Y-77504540D01*
X114069747Y-77513866D01*
X114127329Y-77555702D01*
X114203962Y-77611379D01*
X114224248Y-77626118D01*
X114230276Y-77628802D01*
X114230278Y-77628803D01*
X114392681Y-77701109D01*
X114398712Y-77703794D01*
X114492113Y-77723647D01*
X114579056Y-77742128D01*
X114579061Y-77742128D01*
X114585513Y-77743500D01*
X114776487Y-77743500D01*
X114782939Y-77742128D01*
X114782944Y-77742128D01*
X114869887Y-77723647D01*
X114963288Y-77703794D01*
X114969319Y-77701109D01*
X115131722Y-77628803D01*
X115131724Y-77628802D01*
X115137752Y-77626118D01*
X115158039Y-77611379D01*
X115286080Y-77518351D01*
X115292253Y-77513866D01*
X115296668Y-77508963D01*
X115301580Y-77504540D01*
X115302705Y-77505789D01*
X115356014Y-77472949D01*
X115389200Y-77468500D01*
X115995457Y-77468500D01*
X116063578Y-77488502D01*
X116096283Y-77518935D01*
X116149739Y-77590261D01*
X116266295Y-77677615D01*
X116402684Y-77728745D01*
X116464866Y-77735500D01*
X116961134Y-77735500D01*
X117023316Y-77728745D01*
X117159705Y-77677615D01*
X117276261Y-77590261D01*
X117363615Y-77473705D01*
X117414745Y-77337316D01*
X117421500Y-77275134D01*
X117421500Y-76668866D01*
X117414745Y-76606684D01*
X117411972Y-76599286D01*
X117410610Y-76593559D01*
X117414313Y-76522659D01*
X117455758Y-76465015D01*
X117508323Y-76443717D01*
X117507778Y-76441425D01*
X117515460Y-76439598D01*
X117523316Y-76438745D01*
X117659705Y-76387615D01*
X117776261Y-76300261D01*
X117863615Y-76183705D01*
X117914745Y-76047316D01*
X117921500Y-75985134D01*
X117921500Y-75921594D01*
X117941502Y-75853473D01*
X117958405Y-75832499D01*
X118392801Y-75398103D01*
X118455113Y-75364077D01*
X118525928Y-75369142D01*
X118547167Y-75379422D01*
X118677803Y-75458537D01*
X118684301Y-75462472D01*
X118691548Y-75464743D01*
X118691550Y-75464744D01*
X118731872Y-75477380D01*
X118847938Y-75513753D01*
X118921365Y-75520500D01*
X118924263Y-75520500D01*
X119253860Y-75520499D01*
X119584634Y-75520499D01*
X119587492Y-75520236D01*
X119587501Y-75520236D01*
X119623004Y-75516974D01*
X119658062Y-75513753D01*
X119674569Y-75508580D01*
X119814450Y-75464744D01*
X119814452Y-75464743D01*
X119821699Y-75462472D01*
X119968381Y-75373639D01*
X120089639Y-75252381D01*
X120178472Y-75105699D01*
X120185816Y-75082266D01*
X120227752Y-74948446D01*
X120229753Y-74942062D01*
X120236500Y-74868635D01*
X120236499Y-74355366D01*
X120236114Y-74351167D01*
X120232872Y-74315885D01*
X120229753Y-74281938D01*
X120219551Y-74249383D01*
X120180744Y-74125550D01*
X120180743Y-74125548D01*
X120178472Y-74118301D01*
X120089639Y-73971619D01*
X119994115Y-73876095D01*
X119960089Y-73813783D01*
X119965154Y-73742968D01*
X119994115Y-73697905D01*
X120089639Y-73602381D01*
X120178472Y-73455699D01*
X120183252Y-73440448D01*
X120218884Y-73326745D01*
X120229753Y-73292062D01*
X120236500Y-73218635D01*
X120236499Y-72705366D01*
X120229753Y-72631938D01*
X120226774Y-72622432D01*
X120180744Y-72475550D01*
X120180743Y-72475548D01*
X120178472Y-72468301D01*
X120134724Y-72396063D01*
X120116500Y-72330793D01*
X120116500Y-68577144D01*
X120116499Y-68577140D01*
X120116499Y-68426499D01*
X120136501Y-68358379D01*
X120190157Y-68311886D01*
X120242499Y-68300500D01*
X120786016Y-68300499D01*
X120807924Y-68300499D01*
X120812008Y-68299961D01*
X120812014Y-68299961D01*
X120911374Y-68286881D01*
X120911376Y-68286880D01*
X120919561Y-68285803D01*
X121058464Y-68228267D01*
X121177742Y-68136742D01*
X121269267Y-68017463D01*
X121326803Y-67878561D01*
X121332178Y-67837738D01*
X121340962Y-67771012D01*
X121340962Y-67771011D01*
X121341500Y-67766925D01*
X121341499Y-67567076D01*
X121326803Y-67455439D01*
X121324125Y-67448974D01*
X121324125Y-67385026D01*
X121326803Y-67378561D01*
X121327881Y-67370370D01*
X121330018Y-67362396D01*
X121331324Y-67362746D01*
X121356573Y-67305666D01*
X121415838Y-67266573D01*
X121486829Y-67265727D01*
X121546408Y-67302726D01*
X121562747Y-67320872D01*
X121717248Y-67433124D01*
X121723276Y-67435808D01*
X121723278Y-67435809D01*
X121885681Y-67508115D01*
X121891712Y-67510800D01*
X121985113Y-67530653D01*
X122072056Y-67549134D01*
X122072061Y-67549134D01*
X122078513Y-67550506D01*
X122269487Y-67550506D01*
X122275939Y-67549134D01*
X122275944Y-67549134D01*
X122362887Y-67530653D01*
X122456288Y-67510800D01*
X122462319Y-67508115D01*
X122624722Y-67435809D01*
X122624724Y-67435808D01*
X122630752Y-67433124D01*
X122785253Y-67320872D01*
X122913040Y-67178950D01*
X123008527Y-67013562D01*
X123067542Y-66831934D01*
X123069161Y-66816536D01*
X123086814Y-66648571D01*
X123087504Y-66642006D01*
X123079199Y-66562987D01*
X123068232Y-66458641D01*
X123068232Y-66458639D01*
X123067542Y-66452078D01*
X123008527Y-66270450D01*
X122970886Y-66205254D01*
X122954148Y-66136259D01*
X122970885Y-66079256D01*
X123008527Y-66014059D01*
X123067542Y-65832431D01*
X123087504Y-65642503D01*
X123079147Y-65562987D01*
X123068232Y-65459138D01*
X123068232Y-65459136D01*
X123067542Y-65452575D01*
X123008527Y-65270947D01*
X122970886Y-65205751D01*
X122954148Y-65136756D01*
X122970885Y-65079753D01*
X123008527Y-65014556D01*
X123067542Y-64832928D01*
X123070814Y-64801803D01*
X123086814Y-64649565D01*
X123087504Y-64643000D01*
X123079524Y-64567075D01*
X123068232Y-64459635D01*
X123068232Y-64459633D01*
X123067542Y-64453072D01*
X123008527Y-64271444D01*
X122983034Y-64227288D01*
X122965696Y-64197258D01*
X122913040Y-64106056D01*
X122905235Y-64097387D01*
X122789675Y-63969045D01*
X122789674Y-63969044D01*
X122785253Y-63964134D01*
X122630752Y-63851882D01*
X122624724Y-63849198D01*
X122624722Y-63849197D01*
X122462319Y-63776891D01*
X122462318Y-63776891D01*
X122456288Y-63774206D01*
X122362887Y-63754353D01*
X122275944Y-63735872D01*
X122275939Y-63735872D01*
X122269487Y-63734500D01*
X122078513Y-63734500D01*
X122072061Y-63735872D01*
X122072056Y-63735872D01*
X121985113Y-63754353D01*
X121891712Y-63774206D01*
X121885682Y-63776891D01*
X121885681Y-63776891D01*
X121723278Y-63849197D01*
X121723276Y-63849198D01*
X121717248Y-63851882D01*
X121562747Y-63964134D01*
X121558332Y-63969037D01*
X121553420Y-63973460D01*
X121552295Y-63972211D01*
X121498986Y-64005051D01*
X121465800Y-64009500D01*
X120723595Y-64009500D01*
X120655474Y-63989498D01*
X120634499Y-63972595D01*
X120153404Y-63491499D01*
X120119379Y-63429187D01*
X120116500Y-63402404D01*
X120116500Y-62170768D01*
X120117027Y-62159585D01*
X120118702Y-62152092D01*
X120116562Y-62084001D01*
X120116500Y-62080044D01*
X120116500Y-62052144D01*
X120115996Y-62048153D01*
X120115063Y-62036311D01*
X120113923Y-62000036D01*
X120113674Y-61992111D01*
X120108021Y-61972652D01*
X120104012Y-61953293D01*
X120102909Y-61944566D01*
X120101474Y-61933203D01*
X120098558Y-61925837D01*
X120098556Y-61925831D01*
X120085200Y-61892098D01*
X120081355Y-61880868D01*
X120071230Y-61846017D01*
X120071230Y-61846016D01*
X120069019Y-61838407D01*
X120058705Y-61820966D01*
X120050008Y-61803213D01*
X120045472Y-61791758D01*
X120042552Y-61784383D01*
X120016563Y-61748612D01*
X120010047Y-61738692D01*
X119987542Y-61700638D01*
X119973221Y-61686317D01*
X119960380Y-61671283D01*
X119953131Y-61661306D01*
X119948472Y-61654893D01*
X119942368Y-61649843D01*
X119942363Y-61649838D01*
X119914402Y-61626707D01*
X119905621Y-61618717D01*
X119473404Y-61186499D01*
X119439379Y-61124187D01*
X119436500Y-61097404D01*
X119436500Y-60788268D01*
X119431847Y-60743424D01*
X119444712Y-60673603D01*
X119468079Y-60641325D01*
X121267000Y-58842404D01*
X121329312Y-58808378D01*
X121356095Y-58805499D01*
X121868884Y-58805499D01*
X121872969Y-58804961D01*
X121872973Y-58804961D01*
X121979663Y-58790916D01*
X121979665Y-58790916D01*
X121987850Y-58789838D01*
X122121222Y-58734594D01*
X122128248Y-58731684D01*
X122128250Y-58731683D01*
X122135876Y-58728524D01*
X122262987Y-58630987D01*
X122268013Y-58624437D01*
X122268016Y-58624434D01*
X122328971Y-58544995D01*
X122360524Y-58503875D01*
X122421838Y-58355850D01*
X122433263Y-58269068D01*
X122436962Y-58240972D01*
X122436962Y-58240971D01*
X122437500Y-58236885D01*
X122437499Y-57957116D01*
X122436130Y-57946712D01*
X122422916Y-57846337D01*
X122422916Y-57846335D01*
X122421838Y-57838150D01*
X122414411Y-57820219D01*
X122406821Y-57749630D01*
X122414411Y-57723780D01*
X122418678Y-57713480D01*
X122418679Y-57713477D01*
X122421838Y-57705850D01*
X122424389Y-57686471D01*
X122436962Y-57590972D01*
X122436962Y-57590971D01*
X122437500Y-57586885D01*
X122437499Y-57307116D01*
X122424036Y-57204842D01*
X122422916Y-57196337D01*
X122422916Y-57196335D01*
X122421838Y-57188150D01*
X122414411Y-57170219D01*
X122406821Y-57099630D01*
X122414411Y-57073780D01*
X122418678Y-57063480D01*
X122418679Y-57063477D01*
X122421838Y-57055850D01*
X122434275Y-56961385D01*
X122436962Y-56940972D01*
X122436962Y-56940971D01*
X122437500Y-56936885D01*
X122437499Y-56657116D01*
X122436233Y-56647495D01*
X122422916Y-56546337D01*
X122422916Y-56546335D01*
X122421838Y-56538150D01*
X122414411Y-56520219D01*
X122406821Y-56449630D01*
X122414411Y-56423780D01*
X122418678Y-56413480D01*
X122418679Y-56413477D01*
X122421838Y-56405850D01*
X122432180Y-56327298D01*
X122436962Y-56290972D01*
X122436962Y-56290971D01*
X122437500Y-56286885D01*
X122437499Y-56007116D01*
X122421838Y-55888150D01*
X122360524Y-55740124D01*
X122262987Y-55613013D01*
X122256437Y-55607987D01*
X122256434Y-55607984D01*
X122199431Y-55564245D01*
X122135875Y-55515476D01*
X121987850Y-55454162D01*
X121979662Y-55453084D01*
X121872972Y-55439038D01*
X121872971Y-55439038D01*
X121868885Y-55438500D01*
X121550595Y-55438500D01*
X121482474Y-55418498D01*
X121461499Y-55401595D01*
X120642404Y-54582499D01*
X120608379Y-54520187D01*
X120605500Y-54493404D01*
X120605500Y-54184268D01*
X120594887Y-54081981D01*
X120576248Y-54026114D01*
X120543073Y-53926676D01*
X120543072Y-53926674D01*
X120540756Y-53919732D01*
X120523007Y-53891049D01*
X120454606Y-53780515D01*
X120450752Y-53774287D01*
X120329702Y-53653448D01*
X120323474Y-53649609D01*
X120323469Y-53649605D01*
X120319325Y-53647051D01*
X120271833Y-53594278D01*
X120265786Y-53577675D01*
X120265474Y-53575203D01*
X120262557Y-53567836D01*
X120262556Y-53567831D01*
X120249198Y-53534092D01*
X120245354Y-53522865D01*
X120238363Y-53498803D01*
X120233018Y-53480407D01*
X120222707Y-53462972D01*
X120214012Y-53445224D01*
X120206552Y-53426383D01*
X120180564Y-53390613D01*
X120174048Y-53380693D01*
X120155580Y-53349465D01*
X120155578Y-53349462D01*
X120151542Y-53342638D01*
X120137221Y-53328317D01*
X120124380Y-53313283D01*
X120117131Y-53303306D01*
X120112472Y-53296893D01*
X120106368Y-53291843D01*
X120106363Y-53291838D01*
X120078402Y-53268707D01*
X120069621Y-53260717D01*
X119121647Y-52312742D01*
X119114113Y-52304463D01*
X119110000Y-52297982D01*
X119060348Y-52251356D01*
X119057507Y-52248602D01*
X119037770Y-52228865D01*
X119034573Y-52226385D01*
X119025551Y-52218680D01*
X118999100Y-52193841D01*
X118993321Y-52188414D01*
X118986375Y-52184595D01*
X118986372Y-52184593D01*
X118975566Y-52178652D01*
X118959047Y-52167801D01*
X118953048Y-52163148D01*
X118943041Y-52155386D01*
X118935772Y-52152241D01*
X118935768Y-52152238D01*
X118902463Y-52137826D01*
X118891813Y-52132609D01*
X118853060Y-52111305D01*
X118833437Y-52106267D01*
X118814734Y-52099863D01*
X118803420Y-52094967D01*
X118803419Y-52094967D01*
X118796145Y-52091819D01*
X118788322Y-52090580D01*
X118788312Y-52090577D01*
X118752476Y-52084901D01*
X118740856Y-52082495D01*
X118705711Y-52073472D01*
X118705710Y-52073472D01*
X118698030Y-52071500D01*
X118677776Y-52071500D01*
X118658065Y-52069949D01*
X118645886Y-52068020D01*
X118638057Y-52066780D01*
X118630165Y-52067526D01*
X118594039Y-52070941D01*
X118582181Y-52071500D01*
X113992200Y-52071500D01*
X113924079Y-52051498D01*
X113904853Y-52035157D01*
X113904580Y-52035460D01*
X113899668Y-52031037D01*
X113895253Y-52026134D01*
X113740752Y-51913882D01*
X113734724Y-51911198D01*
X113734722Y-51911197D01*
X113572319Y-51838891D01*
X113572318Y-51838891D01*
X113566288Y-51836206D01*
X113472888Y-51816353D01*
X113385944Y-51797872D01*
X113385939Y-51797872D01*
X113379487Y-51796500D01*
X113188513Y-51796500D01*
X113182061Y-51797872D01*
X113182056Y-51797872D01*
X113095112Y-51816353D01*
X113001712Y-51836206D01*
X112995682Y-51838891D01*
X112995681Y-51838891D01*
X112833278Y-51911197D01*
X112833276Y-51911198D01*
X112827248Y-51913882D01*
X112672747Y-52026134D01*
X112668326Y-52031044D01*
X112668325Y-52031045D01*
X112559203Y-52152238D01*
X112544960Y-52168056D01*
X112449473Y-52333444D01*
X112390458Y-52515072D01*
X112389768Y-52521633D01*
X112389768Y-52521635D01*
X112372545Y-52685501D01*
X112370496Y-52705000D01*
X112390458Y-52894928D01*
X112449473Y-53076556D01*
X112452776Y-53082278D01*
X112452777Y-53082279D01*
X112463182Y-53100301D01*
X112544960Y-53241944D01*
X112549378Y-53246851D01*
X112549379Y-53246852D01*
X112628274Y-53334474D01*
X112672747Y-53383866D01*
X112741412Y-53433754D01*
X112796229Y-53473581D01*
X112827248Y-53496118D01*
X112833276Y-53498802D01*
X112833278Y-53498803D01*
X112995681Y-53571109D01*
X113001712Y-53573794D01*
X113095113Y-53593647D01*
X113182056Y-53612128D01*
X113182061Y-53612128D01*
X113188513Y-53613500D01*
X113379487Y-53613500D01*
X113385939Y-53612128D01*
X113385944Y-53612128D01*
X113472887Y-53593647D01*
X113566288Y-53573794D01*
X113572319Y-53571109D01*
X113734722Y-53498803D01*
X113734724Y-53498802D01*
X113740752Y-53496118D01*
X113771772Y-53473581D01*
X113885967Y-53390613D01*
X113895253Y-53383866D01*
X113899668Y-53378963D01*
X113904580Y-53374540D01*
X113905705Y-53375789D01*
X113959014Y-53342949D01*
X113992200Y-53338500D01*
X118303405Y-53338500D01*
X118371526Y-53358502D01*
X118392500Y-53375405D01*
X118752933Y-53735838D01*
X118786959Y-53798150D01*
X118781894Y-53868965D01*
X118771098Y-53891049D01*
X118757255Y-53913507D01*
X118752698Y-53920899D01*
X118698851Y-54083243D01*
X118698151Y-54090080D01*
X118698150Y-54090082D01*
X118693917Y-54131401D01*
X118688500Y-54184268D01*
X118688500Y-54781732D01*
X118699113Y-54884019D01*
X118753244Y-55046268D01*
X118843248Y-55191713D01*
X118964298Y-55312552D01*
X118970528Y-55316392D01*
X118970529Y-55316393D01*
X119051818Y-55366500D01*
X119109899Y-55402302D01*
X119272243Y-55456149D01*
X119279080Y-55456849D01*
X119279082Y-55456850D01*
X119320401Y-55461083D01*
X119373268Y-55466500D01*
X119682406Y-55466500D01*
X119750527Y-55486502D01*
X119771501Y-55503405D01*
X119854586Y-55586490D01*
X119888612Y-55648802D01*
X119883547Y-55719617D01*
X119876125Y-55735370D01*
X119872476Y-55740125D01*
X119869317Y-55747752D01*
X119869315Y-55747755D01*
X119815416Y-55877880D01*
X119811162Y-55888150D01*
X119795500Y-56007115D01*
X119795501Y-56286884D01*
X119811162Y-56405850D01*
X119818589Y-56423780D01*
X119826179Y-56494370D01*
X119818589Y-56520220D01*
X119814322Y-56530520D01*
X119814321Y-56530523D01*
X119811162Y-56538150D01*
X119795500Y-56657115D01*
X119795501Y-56936884D01*
X119796039Y-56940969D01*
X119796039Y-56940973D01*
X119809787Y-57045405D01*
X119811162Y-57055850D01*
X119818589Y-57073780D01*
X119826179Y-57144370D01*
X119818589Y-57170220D01*
X119814322Y-57180520D01*
X119814321Y-57180523D01*
X119811162Y-57188150D01*
X119810084Y-57196337D01*
X119810084Y-57196338D01*
X119799308Y-57278194D01*
X119795500Y-57307115D01*
X119795501Y-57586884D01*
X119796039Y-57590969D01*
X119796039Y-57590973D01*
X119799585Y-57617907D01*
X119811162Y-57705850D01*
X119818589Y-57723780D01*
X119826179Y-57794370D01*
X119818589Y-57820220D01*
X119814322Y-57830520D01*
X119814321Y-57830523D01*
X119811162Y-57838150D01*
X119810084Y-57846337D01*
X119810084Y-57846338D01*
X119802559Y-57903500D01*
X119795500Y-57957115D01*
X119795501Y-58236884D01*
X119796039Y-58240969D01*
X119796039Y-58240973D01*
X119810084Y-58347662D01*
X119811162Y-58355850D01*
X119814322Y-58363479D01*
X119814323Y-58363482D01*
X119823048Y-58384546D01*
X119830638Y-58455136D01*
X119795735Y-58521860D01*
X118246850Y-60070745D01*
X118184538Y-60104771D01*
X118170760Y-60106977D01*
X118161016Y-60107988D01*
X118108838Y-60113401D01*
X118108833Y-60113402D01*
X118101981Y-60114113D01*
X118094833Y-60116498D01*
X118054294Y-60130023D01*
X118014417Y-60136500D01*
X114687710Y-60136500D01*
X114619589Y-60116498D01*
X114598615Y-60099595D01*
X114507381Y-60008361D01*
X114360699Y-59919528D01*
X114353452Y-59917257D01*
X114353450Y-59917256D01*
X114254104Y-59886123D01*
X114197062Y-59868247D01*
X114123635Y-59861500D01*
X114120737Y-59861500D01*
X113791140Y-59861501D01*
X113460366Y-59861501D01*
X113457508Y-59861764D01*
X113457499Y-59861764D01*
X113421996Y-59865026D01*
X113386938Y-59868247D01*
X113380560Y-59870246D01*
X113380559Y-59870246D01*
X113230550Y-59917256D01*
X113230548Y-59917257D01*
X113223301Y-59919528D01*
X113076619Y-60008361D01*
X112955361Y-60129619D01*
X112866528Y-60276301D01*
X112864257Y-60283548D01*
X112864256Y-60283550D01*
X112853643Y-60317417D01*
X112815247Y-60439938D01*
X112808500Y-60513365D01*
X112808501Y-60684133D01*
X112808501Y-60805405D01*
X112788499Y-60873525D01*
X112771596Y-60894500D01*
X112004789Y-61661306D01*
X111240747Y-62425348D01*
X111232461Y-62432888D01*
X111225982Y-62437000D01*
X111220557Y-62442777D01*
X111179357Y-62486651D01*
X111176602Y-62489493D01*
X111156865Y-62509230D01*
X111154385Y-62512427D01*
X111146682Y-62521447D01*
X111116414Y-62553679D01*
X111112595Y-62560625D01*
X111112593Y-62560628D01*
X111106652Y-62571434D01*
X111095801Y-62587953D01*
X111083386Y-62603959D01*
X111080241Y-62611228D01*
X111080238Y-62611232D01*
X111065826Y-62644537D01*
X111060609Y-62655187D01*
X111039305Y-62693940D01*
X111037334Y-62701615D01*
X111037334Y-62701616D01*
X111034267Y-62713562D01*
X111027863Y-62732266D01*
X111019819Y-62750855D01*
X111018580Y-62758678D01*
X111018577Y-62758688D01*
X111012901Y-62794524D01*
X111010495Y-62806144D01*
X110999500Y-62848970D01*
X110999500Y-62869224D01*
X110997949Y-62888934D01*
X110994780Y-62908943D01*
X110995526Y-62916835D01*
X110998941Y-62952961D01*
X110999500Y-62964819D01*
X110999500Y-63305476D01*
X110979498Y-63373597D01*
X110967142Y-63389779D01*
X110893960Y-63471056D01*
X110890659Y-63476774D01*
X110817746Y-63603063D01*
X110798473Y-63636444D01*
X110739458Y-63818072D01*
X110738768Y-63824635D01*
X110737746Y-63829444D01*
X110704018Y-63891917D01*
X110641868Y-63926238D01*
X110571029Y-63921509D01*
X110513992Y-63879233D01*
X110488865Y-63812832D01*
X110488500Y-63803246D01*
X110488500Y-58498768D01*
X110489027Y-58487585D01*
X110490702Y-58480092D01*
X110488562Y-58412001D01*
X110488500Y-58408044D01*
X110488500Y-58380144D01*
X110487996Y-58376153D01*
X110487063Y-58364311D01*
X110485923Y-58328036D01*
X110485674Y-58320111D01*
X110480021Y-58300652D01*
X110476012Y-58281293D01*
X110475846Y-58279983D01*
X110473474Y-58261203D01*
X110470558Y-58253837D01*
X110470556Y-58253831D01*
X110457200Y-58220098D01*
X110453355Y-58208868D01*
X110443230Y-58174017D01*
X110443230Y-58174016D01*
X110441019Y-58166407D01*
X110430705Y-58148966D01*
X110422008Y-58131213D01*
X110417472Y-58119758D01*
X110414552Y-58112383D01*
X110388563Y-58076612D01*
X110382047Y-58066692D01*
X110369386Y-58045283D01*
X110359542Y-58028638D01*
X110345221Y-58014317D01*
X110332380Y-57999283D01*
X110325131Y-57989306D01*
X110320472Y-57982893D01*
X110286395Y-57954702D01*
X110277616Y-57946712D01*
X109208652Y-56877747D01*
X109201112Y-56869461D01*
X109197000Y-56862982D01*
X109147348Y-56816356D01*
X109144507Y-56813602D01*
X109124770Y-56793865D01*
X109121573Y-56791385D01*
X109112551Y-56783680D01*
X109086100Y-56758841D01*
X109080321Y-56753414D01*
X109073375Y-56749595D01*
X109073372Y-56749593D01*
X109062566Y-56743652D01*
X109046047Y-56732801D01*
X109045583Y-56732441D01*
X109030041Y-56720386D01*
X109022772Y-56717241D01*
X109022768Y-56717238D01*
X108989463Y-56702826D01*
X108978813Y-56697609D01*
X108940060Y-56676305D01*
X108920437Y-56671267D01*
X108901734Y-56664863D01*
X108890420Y-56659967D01*
X108890419Y-56659967D01*
X108883145Y-56656819D01*
X108875322Y-56655580D01*
X108875312Y-56655577D01*
X108839476Y-56649901D01*
X108827856Y-56647495D01*
X108792711Y-56638472D01*
X108792710Y-56638472D01*
X108785030Y-56636500D01*
X108764776Y-56636500D01*
X108745065Y-56634949D01*
X108738954Y-56633981D01*
X108725057Y-56631780D01*
X108717165Y-56632526D01*
X108681039Y-56635941D01*
X108669181Y-56636500D01*
X107653830Y-56636500D01*
X107585709Y-56616498D01*
X107539216Y-56562842D01*
X107528015Y-56503683D01*
X107528132Y-56501520D01*
X107528500Y-56498134D01*
X107528500Y-55501866D01*
X107521745Y-55439684D01*
X107510328Y-55409229D01*
X107505145Y-55338423D01*
X107510326Y-55320776D01*
X107521745Y-55290316D01*
X107528500Y-55228134D01*
X107528500Y-54231866D01*
X107521745Y-54169684D01*
X107470615Y-54033295D01*
X107383261Y-53916739D01*
X107266705Y-53829385D01*
X107130316Y-53778255D01*
X107068134Y-53771500D01*
X104971866Y-53771500D01*
X104909684Y-53778255D01*
X104773295Y-53829385D01*
X104656739Y-53916739D01*
X104569385Y-54033295D01*
X104518255Y-54169684D01*
X104511500Y-54231866D01*
X104511500Y-55228134D01*
X104518255Y-55290316D01*
X104529672Y-55320771D01*
X104534855Y-55391577D01*
X104529674Y-55409224D01*
X104518255Y-55439684D01*
X104511500Y-55501866D01*
X104511500Y-56498134D01*
X104518255Y-56560316D01*
X104529672Y-56590771D01*
X104534855Y-56661577D01*
X104529674Y-56679224D01*
X104518255Y-56709684D01*
X104511500Y-56771866D01*
X104511500Y-57768134D01*
X104518255Y-57830316D01*
X104529672Y-57860771D01*
X104534855Y-57931577D01*
X104529674Y-57949224D01*
X104518255Y-57979684D01*
X104511500Y-58041866D01*
X104511500Y-59038134D01*
X104518255Y-59100316D01*
X104529672Y-59130771D01*
X104534855Y-59201577D01*
X104529674Y-59219224D01*
X104518255Y-59249684D01*
X104511500Y-59311866D01*
X104511500Y-60308134D01*
X104518255Y-60370316D01*
X104529672Y-60400771D01*
X104534855Y-60471577D01*
X104529674Y-60489224D01*
X104518255Y-60519684D01*
X104511500Y-60581866D01*
X104511500Y-61578134D01*
X104518255Y-61640316D01*
X104529672Y-61670771D01*
X104534855Y-61741577D01*
X104529674Y-61759224D01*
X104518255Y-61789684D01*
X104511500Y-61851866D01*
X104511500Y-62848134D01*
X104518255Y-62910316D01*
X104529672Y-62940771D01*
X104534855Y-63011577D01*
X104529674Y-63029224D01*
X104518255Y-63059684D01*
X104511500Y-63121866D01*
X104511500Y-64118134D01*
X104518255Y-64180316D01*
X104529672Y-64210771D01*
X104534855Y-64281577D01*
X104529674Y-64299224D01*
X104518255Y-64329684D01*
X104511500Y-64391866D01*
X104511500Y-65388134D01*
X104518255Y-65450316D01*
X104529672Y-65480771D01*
X104534855Y-65551577D01*
X104529674Y-65569224D01*
X104518255Y-65599684D01*
X104511500Y-65661866D01*
X104511500Y-66658134D01*
X104518255Y-66720316D01*
X104529672Y-66750771D01*
X104534855Y-66821577D01*
X104529674Y-66839224D01*
X104518255Y-66869684D01*
X104511500Y-66931866D01*
X104511500Y-67928134D01*
X104518255Y-67990316D01*
X104529672Y-68020771D01*
X104534855Y-68091577D01*
X104529674Y-68109224D01*
X104518255Y-68139684D01*
X104511500Y-68201866D01*
X104511500Y-69198134D01*
X104518255Y-69260316D01*
X104529672Y-69290771D01*
X104534855Y-69361577D01*
X104529674Y-69379224D01*
X104518255Y-69409684D01*
X104511500Y-69471866D01*
X104511500Y-70468134D01*
X104518255Y-70530316D01*
X104569385Y-70666705D01*
X104656739Y-70783261D01*
X104773295Y-70870615D01*
X104909684Y-70921745D01*
X104971866Y-70928500D01*
X107068134Y-70928500D01*
X107130316Y-70921745D01*
X107266705Y-70870615D01*
X107383261Y-70783261D01*
X107470615Y-70666705D01*
X107470861Y-70666049D01*
X107518175Y-70618843D01*
X107578433Y-70603500D01*
X107882406Y-70603500D01*
X107950527Y-70623502D01*
X107971497Y-70640401D01*
X108851502Y-71520407D01*
X108885526Y-71582717D01*
X108880461Y-71653533D01*
X108837914Y-71710368D01*
X108771394Y-71735179D01*
X108762405Y-71735500D01*
X108616513Y-71735500D01*
X108610061Y-71736872D01*
X108610056Y-71736872D01*
X108532277Y-71753405D01*
X108429712Y-71775206D01*
X108423682Y-71777891D01*
X108423681Y-71777891D01*
X108261278Y-71850197D01*
X108261276Y-71850198D01*
X108255248Y-71852882D01*
X108100747Y-71965134D01*
X108096332Y-71970037D01*
X108091420Y-71974460D01*
X108090295Y-71973211D01*
X108036986Y-72006051D01*
X108003800Y-72010500D01*
X106434767Y-72010500D01*
X106423584Y-72009973D01*
X106416091Y-72008298D01*
X106408165Y-72008547D01*
X106408164Y-72008547D01*
X106348014Y-72010438D01*
X106344055Y-72010500D01*
X106316144Y-72010500D01*
X106312210Y-72010997D01*
X106312209Y-72010997D01*
X106312144Y-72011005D01*
X106300307Y-72011938D01*
X106268490Y-72012938D01*
X106264029Y-72013078D01*
X106256110Y-72013327D01*
X106239563Y-72018134D01*
X106236658Y-72018978D01*
X106217306Y-72022986D01*
X106210235Y-72023880D01*
X106197203Y-72025526D01*
X106189834Y-72028443D01*
X106189832Y-72028444D01*
X106156097Y-72041800D01*
X106144869Y-72045645D01*
X106102407Y-72057982D01*
X106095585Y-72062016D01*
X106095579Y-72062019D01*
X106084968Y-72068294D01*
X106067218Y-72076990D01*
X106055756Y-72081528D01*
X106055751Y-72081531D01*
X106048383Y-72084448D01*
X106041968Y-72089109D01*
X106012625Y-72110427D01*
X106002707Y-72116943D01*
X105984019Y-72127995D01*
X105964637Y-72139458D01*
X105950313Y-72153782D01*
X105935281Y-72166621D01*
X105918893Y-72178528D01*
X105894266Y-72208297D01*
X105890712Y-72212593D01*
X105882722Y-72221373D01*
X101854500Y-76249595D01*
X101792188Y-76283621D01*
X101765405Y-76286500D01*
X96839394Y-76286500D01*
X96771273Y-76266498D01*
X96736181Y-76232771D01*
X96629357Y-76080211D01*
X96629355Y-76080208D01*
X96626198Y-76075700D01*
X96464300Y-75913802D01*
X96459792Y-75910645D01*
X96459789Y-75910643D01*
X96391338Y-75862713D01*
X96347010Y-75807255D01*
X96339701Y-75736636D01*
X96371732Y-75673276D01*
X96432933Y-75637291D01*
X96463609Y-75633500D01*
X98421233Y-75633500D01*
X98432416Y-75634027D01*
X98439909Y-75635702D01*
X98447835Y-75635453D01*
X98447836Y-75635453D01*
X98507986Y-75633562D01*
X98511945Y-75633500D01*
X98539856Y-75633500D01*
X98543791Y-75633003D01*
X98543856Y-75632995D01*
X98555693Y-75632062D01*
X98587951Y-75631048D01*
X98591970Y-75630922D01*
X98599889Y-75630673D01*
X98619343Y-75625021D01*
X98638700Y-75621013D01*
X98650930Y-75619468D01*
X98650931Y-75619468D01*
X98658797Y-75618474D01*
X98666168Y-75615555D01*
X98666170Y-75615555D01*
X98699912Y-75602196D01*
X98711142Y-75598351D01*
X98745983Y-75588229D01*
X98745984Y-75588229D01*
X98753593Y-75586018D01*
X98760412Y-75581985D01*
X98760417Y-75581983D01*
X98771028Y-75575707D01*
X98788776Y-75567012D01*
X98807617Y-75559552D01*
X98843387Y-75533564D01*
X98853307Y-75527048D01*
X98884535Y-75508580D01*
X98884538Y-75508578D01*
X98891362Y-75504542D01*
X98905683Y-75490221D01*
X98920717Y-75477380D01*
X98930694Y-75470131D01*
X98937107Y-75465472D01*
X98965298Y-75431395D01*
X98973288Y-75422616D01*
X101087253Y-73308652D01*
X101095539Y-73301112D01*
X101102018Y-73297000D01*
X101148644Y-73247348D01*
X101151398Y-73244507D01*
X101171135Y-73224770D01*
X101173615Y-73221573D01*
X101181320Y-73212551D01*
X101206159Y-73186100D01*
X101211586Y-73180321D01*
X101215405Y-73173375D01*
X101215407Y-73173372D01*
X101221348Y-73162566D01*
X101232199Y-73146047D01*
X101239758Y-73136301D01*
X101244614Y-73130041D01*
X101247759Y-73122772D01*
X101247762Y-73122768D01*
X101262174Y-73089463D01*
X101267391Y-73078813D01*
X101288695Y-73040060D01*
X101293733Y-73020437D01*
X101300137Y-73001734D01*
X101305033Y-72990420D01*
X101305033Y-72990419D01*
X101308181Y-72983145D01*
X101309420Y-72975322D01*
X101309423Y-72975312D01*
X101315099Y-72939476D01*
X101317505Y-72927856D01*
X101326528Y-72892711D01*
X101326528Y-72892710D01*
X101328500Y-72885030D01*
X101328500Y-72864776D01*
X101330051Y-72845065D01*
X101331980Y-72832886D01*
X101333220Y-72825057D01*
X101329059Y-72781038D01*
X101328500Y-72769181D01*
X101328500Y-72603830D01*
X101348502Y-72535709D01*
X101402158Y-72489216D01*
X101461317Y-72478015D01*
X101463480Y-72478132D01*
X101466866Y-72478500D01*
X102463134Y-72478500D01*
X102525316Y-72471745D01*
X102555771Y-72460328D01*
X102626577Y-72455145D01*
X102644224Y-72460326D01*
X102674684Y-72471745D01*
X102736866Y-72478500D01*
X103733134Y-72478500D01*
X103795316Y-72471745D01*
X103931705Y-72420615D01*
X104048261Y-72333261D01*
X104135615Y-72216705D01*
X104186745Y-72080316D01*
X104193500Y-72018134D01*
X104193500Y-69921866D01*
X104186745Y-69859684D01*
X104135615Y-69723295D01*
X104048261Y-69606739D01*
X103931705Y-69519385D01*
X103795316Y-69468255D01*
X103733134Y-69461500D01*
X102736866Y-69461500D01*
X102674684Y-69468255D01*
X102644229Y-69479672D01*
X102573423Y-69484855D01*
X102555776Y-69479674D01*
X102525316Y-69468255D01*
X102463134Y-69461500D01*
X101466866Y-69461500D01*
X101404684Y-69468255D01*
X101374229Y-69479672D01*
X101303423Y-69484855D01*
X101285776Y-69479674D01*
X101255316Y-69468255D01*
X101193134Y-69461500D01*
X100196866Y-69461500D01*
X100134684Y-69468255D01*
X100104229Y-69479672D01*
X100033423Y-69484855D01*
X100015776Y-69479674D01*
X99985316Y-69468255D01*
X99923134Y-69461500D01*
X98926866Y-69461500D01*
X98864684Y-69468255D01*
X98834229Y-69479672D01*
X98763423Y-69484855D01*
X98745776Y-69479674D01*
X98715316Y-69468255D01*
X98653134Y-69461500D01*
X97656866Y-69461500D01*
X97594684Y-69468255D01*
X97564229Y-69479672D01*
X97493423Y-69484855D01*
X97475776Y-69479674D01*
X97445316Y-69468255D01*
X97383134Y-69461500D01*
X96386866Y-69461500D01*
X96324684Y-69468255D01*
X96294229Y-69479672D01*
X96223423Y-69484855D01*
X96205776Y-69479674D01*
X96175316Y-69468255D01*
X96113134Y-69461500D01*
X95116866Y-69461500D01*
X95054684Y-69468255D01*
X95024229Y-69479672D01*
X94953423Y-69484855D01*
X94935776Y-69479674D01*
X94905316Y-69468255D01*
X94843134Y-69461500D01*
X93846866Y-69461500D01*
X93784684Y-69468255D01*
X93754229Y-69479672D01*
X93683423Y-69484855D01*
X93665776Y-69479674D01*
X93635316Y-69468255D01*
X93573134Y-69461500D01*
X92576866Y-69461500D01*
X92514684Y-69468255D01*
X92378295Y-69519385D01*
X92261739Y-69606739D01*
X92174385Y-69723295D01*
X92123255Y-69859684D01*
X92116500Y-69921866D01*
X92116500Y-72018134D01*
X92123255Y-72080316D01*
X92174385Y-72216705D01*
X92261739Y-72333261D01*
X92378295Y-72420615D01*
X92514684Y-72471745D01*
X92576866Y-72478500D01*
X93573134Y-72478500D01*
X93635316Y-72471745D01*
X93665771Y-72460328D01*
X93736577Y-72455145D01*
X93754224Y-72460326D01*
X93784684Y-72471745D01*
X93846866Y-72478500D01*
X94843134Y-72478500D01*
X94905316Y-72471745D01*
X94935771Y-72460328D01*
X95006577Y-72455145D01*
X95024224Y-72460326D01*
X95054684Y-72471745D01*
X95116866Y-72478500D01*
X96113134Y-72478500D01*
X96175316Y-72471745D01*
X96205771Y-72460328D01*
X96276577Y-72455145D01*
X96294224Y-72460326D01*
X96324684Y-72471745D01*
X96386866Y-72478500D01*
X97383134Y-72478500D01*
X97445316Y-72471745D01*
X97475771Y-72460328D01*
X97546577Y-72455145D01*
X97564224Y-72460326D01*
X97594684Y-72471745D01*
X97656866Y-72478500D01*
X97966405Y-72478500D01*
X98034526Y-72498502D01*
X98081019Y-72552158D01*
X98091123Y-72622432D01*
X98061629Y-72687012D01*
X98055503Y-72693592D01*
X97419499Y-73329596D01*
X97357187Y-73363621D01*
X97330404Y-73366500D01*
X93828768Y-73366500D01*
X93817585Y-73365973D01*
X93810092Y-73364298D01*
X93802166Y-73364547D01*
X93802165Y-73364547D01*
X93742002Y-73366438D01*
X93738044Y-73366500D01*
X93710144Y-73366500D01*
X93706154Y-73367004D01*
X93694320Y-73367936D01*
X93650111Y-73369326D01*
X93642495Y-73371539D01*
X93642493Y-73371539D01*
X93630652Y-73374979D01*
X93611293Y-73378988D01*
X93609983Y-73379154D01*
X93591203Y-73381526D01*
X93583837Y-73384442D01*
X93583831Y-73384444D01*
X93550098Y-73397800D01*
X93538868Y-73401645D01*
X93509566Y-73410158D01*
X93496407Y-73413981D01*
X93489584Y-73418016D01*
X93478966Y-73424295D01*
X93461213Y-73432992D01*
X93455844Y-73435118D01*
X93442383Y-73440448D01*
X93435968Y-73445109D01*
X93406612Y-73466437D01*
X93396695Y-73472951D01*
X93358638Y-73495458D01*
X93344317Y-73509779D01*
X93329284Y-73522619D01*
X93312893Y-73534528D01*
X93291496Y-73560393D01*
X93284702Y-73568605D01*
X93276712Y-73577384D01*
X90604500Y-76249595D01*
X90542188Y-76283621D01*
X90515405Y-76286500D01*
X89434500Y-76286500D01*
X89366379Y-76266498D01*
X89319886Y-76212842D01*
X89308500Y-76160500D01*
X89308500Y-76071866D01*
X89301745Y-76009684D01*
X89250615Y-75873295D01*
X89163261Y-75756739D01*
X89046705Y-75669385D01*
X88910316Y-75618255D01*
X88848134Y-75611500D01*
X87151866Y-75611500D01*
X87089684Y-75618255D01*
X86953295Y-75669385D01*
X86836739Y-75756739D01*
X86749385Y-75873295D01*
X86698255Y-76009684D01*
X86691500Y-76071866D01*
X86691500Y-76160500D01*
X86671498Y-76228621D01*
X86617842Y-76275114D01*
X86565500Y-76286500D01*
X82427767Y-76286500D01*
X82416584Y-76285973D01*
X82409091Y-76284298D01*
X82401165Y-76284547D01*
X82401164Y-76284547D01*
X82341001Y-76286438D01*
X82337043Y-76286500D01*
X82309144Y-76286500D01*
X82305154Y-76287004D01*
X82293320Y-76287936D01*
X82249111Y-76289326D01*
X82241497Y-76291538D01*
X82241492Y-76291539D01*
X82229659Y-76294977D01*
X82210296Y-76298988D01*
X82190203Y-76301526D01*
X82182836Y-76304443D01*
X82182831Y-76304444D01*
X82149092Y-76317802D01*
X82137865Y-76321646D01*
X82095407Y-76333982D01*
X82088581Y-76338019D01*
X82077972Y-76344293D01*
X82060224Y-76352988D01*
X82041383Y-76360448D01*
X82034967Y-76365110D01*
X82034966Y-76365110D01*
X82005613Y-76386436D01*
X81995693Y-76392952D01*
X81964465Y-76411420D01*
X81964462Y-76411422D01*
X81957638Y-76415458D01*
X81943317Y-76429779D01*
X81928284Y-76442619D01*
X81911893Y-76454528D01*
X81888505Y-76482799D01*
X81883702Y-76488605D01*
X81875712Y-76497384D01*
X80048500Y-78324595D01*
X79986188Y-78358621D01*
X79959405Y-78361500D01*
X79685386Y-78361501D01*
X79667366Y-78361501D01*
X79664508Y-78361764D01*
X79664499Y-78361764D01*
X79628996Y-78365026D01*
X79593938Y-78368247D01*
X79587560Y-78370246D01*
X79587559Y-78370246D01*
X79437550Y-78417256D01*
X79437548Y-78417257D01*
X79430301Y-78419528D01*
X79283619Y-78508361D01*
X79162361Y-78629619D01*
X79073528Y-78776301D01*
X79071257Y-78783548D01*
X79071256Y-78783550D01*
X79050483Y-78849836D01*
X79022247Y-78939938D01*
X79015500Y-79013365D01*
X79015501Y-79526634D01*
X79015764Y-79529492D01*
X79015764Y-79529501D01*
X79019026Y-79565004D01*
X79022247Y-79600062D01*
X79073528Y-79763699D01*
X79162361Y-79910381D01*
X79257885Y-80005905D01*
X79291911Y-80068217D01*
X79286846Y-80139032D01*
X79257885Y-80184095D01*
X79162361Y-80279619D01*
X79073528Y-80426301D01*
X79022247Y-80589938D01*
X79015500Y-80663365D01*
X79015501Y-81176634D01*
X79015764Y-81179492D01*
X79015764Y-81179501D01*
X79019026Y-81215004D01*
X79022247Y-81250062D01*
X79024246Y-81256440D01*
X79024246Y-81256441D01*
X79053014Y-81348238D01*
X79073528Y-81413699D01*
X79162361Y-81560381D01*
X79283619Y-81681639D01*
X79283405Y-81681853D01*
X79322164Y-81736119D01*
X79325644Y-81807031D01*
X79290233Y-81868566D01*
X79287208Y-81871187D01*
X79283619Y-81873361D01*
X79162361Y-81994619D01*
X79073528Y-82141301D01*
X79071257Y-82148548D01*
X79071256Y-82148550D01*
X79051200Y-82212550D01*
X79022247Y-82304938D01*
X79015500Y-82378365D01*
X79015501Y-82891634D01*
X79015764Y-82894492D01*
X79015764Y-82894501D01*
X79016314Y-82900488D01*
X79022247Y-82965062D01*
X79024246Y-82971440D01*
X79024246Y-82971441D01*
X79044303Y-83035441D01*
X79073528Y-83128699D01*
X79162361Y-83275381D01*
X79257885Y-83370905D01*
X79291911Y-83433217D01*
X79286846Y-83504032D01*
X79257885Y-83549095D01*
X79162361Y-83644619D01*
X79073528Y-83791301D01*
X79071257Y-83798548D01*
X79071256Y-83798550D01*
X79051200Y-83862550D01*
X79022247Y-83954938D01*
X79015500Y-84028365D01*
X79015501Y-84541634D01*
X79015764Y-84544492D01*
X79015764Y-84544501D01*
X79017162Y-84559715D01*
X79022247Y-84615062D01*
X79024246Y-84621440D01*
X79024246Y-84621441D01*
X79066011Y-84754711D01*
X79073528Y-84778699D01*
X79162361Y-84925381D01*
X79283619Y-85046639D01*
X79430301Y-85135472D01*
X79437548Y-85137743D01*
X79437550Y-85137744D01*
X79486944Y-85153223D01*
X79593938Y-85186753D01*
X79667365Y-85193500D01*
X79670263Y-85193500D01*
X79999860Y-85193499D01*
X80330634Y-85193499D01*
X80333492Y-85193236D01*
X80333501Y-85193236D01*
X80369004Y-85189974D01*
X80404062Y-85186753D01*
X80410447Y-85184752D01*
X80560450Y-85137744D01*
X80560452Y-85137743D01*
X80567699Y-85135472D01*
X80714381Y-85046639D01*
X80805615Y-84955405D01*
X80867927Y-84921379D01*
X80894710Y-84918500D01*
X82350437Y-84918500D01*
X82418558Y-84938502D01*
X82458214Y-84979231D01*
X82464361Y-84989381D01*
X82585619Y-85110639D01*
X82732301Y-85199472D01*
X82739548Y-85201743D01*
X82739550Y-85201744D01*
X82805836Y-85222517D01*
X82895938Y-85250753D01*
X82969365Y-85257500D01*
X82987474Y-85257500D01*
X83261406Y-85257499D01*
X83329525Y-85277501D01*
X83350500Y-85294404D01*
X84332501Y-86276405D01*
X84366527Y-86338717D01*
X84361462Y-86409532D01*
X84318915Y-86466368D01*
X84252395Y-86491179D01*
X84243406Y-86491500D01*
X71634500Y-86491500D01*
X71566379Y-86471498D01*
X71519886Y-86417842D01*
X71508500Y-86365500D01*
X71508500Y-75632703D01*
X73640743Y-75632703D01*
X73641302Y-75636947D01*
X73641302Y-75636951D01*
X73653609Y-75730432D01*
X73678268Y-75917734D01*
X73754129Y-76195036D01*
X73755813Y-76198984D01*
X73860962Y-76445500D01*
X73866923Y-76459476D01*
X73904737Y-76522659D01*
X73974243Y-76638794D01*
X74014561Y-76706161D01*
X74194313Y-76930528D01*
X74402851Y-77128423D01*
X74425787Y-77144904D01*
X74611748Y-77278531D01*
X74636317Y-77296186D01*
X74640112Y-77298195D01*
X74640113Y-77298196D01*
X74661869Y-77309715D01*
X74890392Y-77430712D01*
X74952838Y-77453564D01*
X75140384Y-77522196D01*
X75160373Y-77529511D01*
X75441264Y-77590755D01*
X75469841Y-77593004D01*
X75664282Y-77608307D01*
X75664291Y-77608307D01*
X75666739Y-77608500D01*
X75822271Y-77608500D01*
X75824407Y-77608354D01*
X75824418Y-77608354D01*
X76032548Y-77594165D01*
X76032554Y-77594164D01*
X76036825Y-77593873D01*
X76041020Y-77593004D01*
X76041022Y-77593004D01*
X76225609Y-77554778D01*
X76318342Y-77535574D01*
X76589343Y-77439607D01*
X76720438Y-77371944D01*
X76841005Y-77309715D01*
X76841006Y-77309715D01*
X76844812Y-77307750D01*
X76848313Y-77305289D01*
X76848317Y-77305287D01*
X76962417Y-77225096D01*
X77080023Y-77142441D01*
X77206482Y-77024928D01*
X77287479Y-76949661D01*
X77287481Y-76949658D01*
X77290622Y-76946740D01*
X77472713Y-76724268D01*
X77622927Y-76479142D01*
X77631052Y-76460634D01*
X77736757Y-76219830D01*
X77738483Y-76215898D01*
X77745607Y-76190891D01*
X77816068Y-75943534D01*
X77817244Y-75939406D01*
X77853349Y-75685716D01*
X77857146Y-75659036D01*
X77857146Y-75659034D01*
X77857751Y-75654784D01*
X77857845Y-75636951D01*
X77859235Y-75371583D01*
X77859235Y-75371576D01*
X77859257Y-75367297D01*
X77852170Y-75313462D01*
X77824817Y-75105699D01*
X77821732Y-75082266D01*
X77745871Y-74804964D01*
X77711919Y-74725365D01*
X77634763Y-74544476D01*
X77634761Y-74544472D01*
X77633077Y-74540524D01*
X77519749Y-74351167D01*
X77487643Y-74297521D01*
X77487640Y-74297517D01*
X77485439Y-74293839D01*
X77305687Y-74069472D01*
X77165108Y-73936068D01*
X77100258Y-73874527D01*
X77100255Y-73874525D01*
X77097149Y-73871577D01*
X76863683Y-73703814D01*
X76841843Y-73692250D01*
X76811012Y-73675926D01*
X76609608Y-73569288D01*
X76356422Y-73476635D01*
X76343658Y-73471964D01*
X76343656Y-73471963D01*
X76339627Y-73470489D01*
X76058736Y-73409245D01*
X76027685Y-73406801D01*
X75835718Y-73391693D01*
X75835709Y-73391693D01*
X75833261Y-73391500D01*
X75677729Y-73391500D01*
X75675593Y-73391646D01*
X75675582Y-73391646D01*
X75467452Y-73405835D01*
X75467446Y-73405836D01*
X75463175Y-73406127D01*
X75458980Y-73406996D01*
X75458978Y-73406996D01*
X75375444Y-73424295D01*
X75181658Y-73464426D01*
X74910657Y-73560393D01*
X74893423Y-73569288D01*
X74702918Y-73667615D01*
X74655188Y-73692250D01*
X74651687Y-73694711D01*
X74651683Y-73694713D01*
X74582107Y-73743612D01*
X74419977Y-73857559D01*
X74388189Y-73887098D01*
X74215960Y-74047144D01*
X74209378Y-74053260D01*
X74027287Y-74275732D01*
X73877073Y-74520858D01*
X73761517Y-74784102D01*
X73760342Y-74788229D01*
X73760341Y-74788230D01*
X73744215Y-74844842D01*
X73682756Y-75060594D01*
X73664524Y-75188701D01*
X73645192Y-75324540D01*
X73642249Y-75345216D01*
X73642227Y-75349505D01*
X73642226Y-75349512D01*
X73640765Y-75628417D01*
X73640743Y-75632703D01*
X71508500Y-75632703D01*
X71508500Y-59046500D01*
X71528502Y-58978379D01*
X71582158Y-58931886D01*
X71634500Y-58920500D01*
X74022134Y-58920500D01*
X74084316Y-58913745D01*
X74220705Y-58862615D01*
X74337261Y-58775261D01*
X74424615Y-58658705D01*
X74433122Y-58636014D01*
X74436401Y-58627269D01*
X74479043Y-58570505D01*
X74545605Y-58545806D01*
X74554382Y-58545500D01*
X76403618Y-58545500D01*
X76471739Y-58565502D01*
X76518232Y-58619158D01*
X76521599Y-58627269D01*
X76524878Y-58636014D01*
X76533385Y-58658705D01*
X76620739Y-58775261D01*
X76737295Y-58862615D01*
X76873684Y-58913745D01*
X76935866Y-58920500D01*
X79782134Y-58920500D01*
X79844316Y-58913745D01*
X79980705Y-58862615D01*
X80097261Y-58775261D01*
X80184615Y-58658705D01*
X80193122Y-58636014D01*
X80196401Y-58627269D01*
X80239043Y-58570505D01*
X80305605Y-58545806D01*
X80314382Y-58545500D01*
X81061233Y-58545500D01*
X81072416Y-58546027D01*
X81079909Y-58547702D01*
X81087835Y-58547453D01*
X81087836Y-58547453D01*
X81147986Y-58545562D01*
X81151945Y-58545500D01*
X81179856Y-58545500D01*
X81183791Y-58545003D01*
X81183856Y-58544995D01*
X81195693Y-58544062D01*
X81227951Y-58543048D01*
X81231970Y-58542922D01*
X81239889Y-58542673D01*
X81259343Y-58537021D01*
X81278700Y-58533013D01*
X81290930Y-58531468D01*
X81290931Y-58531468D01*
X81298797Y-58530474D01*
X81306168Y-58527555D01*
X81306170Y-58527555D01*
X81339912Y-58514196D01*
X81351142Y-58510351D01*
X81385983Y-58500229D01*
X81385984Y-58500229D01*
X81393593Y-58498018D01*
X81400412Y-58493985D01*
X81400417Y-58493983D01*
X81411028Y-58487707D01*
X81428776Y-58479012D01*
X81447617Y-58471552D01*
X81483387Y-58445564D01*
X81493307Y-58439048D01*
X81524535Y-58420580D01*
X81524538Y-58420578D01*
X81531362Y-58416542D01*
X81545683Y-58402221D01*
X81560717Y-58389380D01*
X81577107Y-58377472D01*
X81605298Y-58343395D01*
X81613288Y-58334616D01*
X81942499Y-58005405D01*
X82004811Y-57971379D01*
X82031594Y-57968500D01*
X82340732Y-57968500D01*
X82343978Y-57968163D01*
X82343982Y-57968163D01*
X82378083Y-57964625D01*
X82443019Y-57957887D01*
X82477737Y-57946304D01*
X82598324Y-57906073D01*
X82598326Y-57906072D01*
X82605268Y-57903756D01*
X82750713Y-57813752D01*
X82871552Y-57692702D01*
X82915786Y-57620942D01*
X82957462Y-57553331D01*
X82957463Y-57553329D01*
X82961302Y-57547101D01*
X83015149Y-57384757D01*
X83016713Y-57369499D01*
X83020362Y-57333876D01*
X83025500Y-57283732D01*
X83025500Y-56759500D01*
X83045502Y-56691379D01*
X83099158Y-56644886D01*
X83151500Y-56633500D01*
X87386170Y-56633500D01*
X87454291Y-56653502D01*
X87500784Y-56707158D01*
X87511985Y-56766317D01*
X87511868Y-56768480D01*
X87511500Y-56771866D01*
X87511500Y-57768134D01*
X87518255Y-57830316D01*
X87529672Y-57860771D01*
X87534855Y-57931577D01*
X87529674Y-57949224D01*
X87518255Y-57979684D01*
X87511500Y-58041866D01*
X87511500Y-59038134D01*
X87518255Y-59100316D01*
X87529672Y-59130771D01*
X87534855Y-59201577D01*
X87529674Y-59219224D01*
X87518255Y-59249684D01*
X87511500Y-59311866D01*
X87511500Y-60308134D01*
X87518255Y-60370316D01*
X87529672Y-60400771D01*
X87534855Y-60471577D01*
X87529674Y-60489224D01*
X87518255Y-60519684D01*
X87511500Y-60581866D01*
X87511500Y-61578134D01*
X87518255Y-61640316D01*
X87529672Y-61670771D01*
X87534855Y-61741577D01*
X87529674Y-61759224D01*
X87518255Y-61789684D01*
X87511500Y-61851866D01*
X87511500Y-62848134D01*
X87511868Y-62851520D01*
X87511985Y-62853683D01*
X87495698Y-62922786D01*
X87444636Y-62972114D01*
X87386170Y-62986500D01*
X81492763Y-62986500D01*
X81481579Y-62985973D01*
X81474091Y-62984299D01*
X81466168Y-62984548D01*
X81406033Y-62986438D01*
X81402075Y-62986500D01*
X81374144Y-62986500D01*
X81370229Y-62986995D01*
X81370225Y-62986995D01*
X81370167Y-62987003D01*
X81370138Y-62987006D01*
X81358296Y-62987939D01*
X81314110Y-62989327D01*
X81304909Y-62992000D01*
X81294658Y-62994978D01*
X81275306Y-62998986D01*
X81268235Y-62999880D01*
X81255203Y-63001526D01*
X81247834Y-63004443D01*
X81247832Y-63004444D01*
X81214097Y-63017800D01*
X81202869Y-63021645D01*
X81160407Y-63033982D01*
X81153585Y-63038016D01*
X81153579Y-63038019D01*
X81142968Y-63044294D01*
X81125218Y-63052990D01*
X81113756Y-63057528D01*
X81113751Y-63057531D01*
X81106383Y-63060448D01*
X81099968Y-63065109D01*
X81070625Y-63086427D01*
X81060707Y-63092943D01*
X81042019Y-63103995D01*
X81022637Y-63115458D01*
X81008313Y-63129782D01*
X80993281Y-63142621D01*
X80976893Y-63154528D01*
X80954465Y-63181639D01*
X80948712Y-63188593D01*
X80940722Y-63197373D01*
X80918583Y-63219512D01*
X80856271Y-63253538D01*
X80785456Y-63248473D01*
X80728620Y-63205926D01*
X80703809Y-63139406D01*
X80703967Y-63119435D01*
X80714637Y-62997475D01*
X80715116Y-62992000D01*
X80696686Y-62781345D01*
X80661332Y-62649403D01*
X80643379Y-62582400D01*
X80643378Y-62582398D01*
X80641956Y-62577090D01*
X80631039Y-62553679D01*
X80554912Y-62390423D01*
X80554910Y-62390420D01*
X80552589Y-62385442D01*
X80431301Y-62212224D01*
X80281776Y-62062699D01*
X80108558Y-61941411D01*
X80103580Y-61939090D01*
X80103577Y-61939088D01*
X79921892Y-61854367D01*
X79921891Y-61854366D01*
X79916910Y-61852044D01*
X79911602Y-61850622D01*
X79911600Y-61850621D01*
X79717970Y-61798738D01*
X79717968Y-61798738D01*
X79712655Y-61797314D01*
X79502000Y-61778884D01*
X79291345Y-61797314D01*
X79286032Y-61798738D01*
X79286030Y-61798738D01*
X79092400Y-61850621D01*
X79092398Y-61850622D01*
X79087090Y-61852044D01*
X79082109Y-61854366D01*
X79082108Y-61854367D01*
X78900423Y-61939088D01*
X78900420Y-61939090D01*
X78895442Y-61941411D01*
X78722224Y-62062699D01*
X78572699Y-62212224D01*
X78451411Y-62385442D01*
X78449090Y-62390420D01*
X78449088Y-62390423D01*
X78372961Y-62553679D01*
X78362044Y-62577090D01*
X78360622Y-62582398D01*
X78360621Y-62582400D01*
X78342668Y-62649403D01*
X78307314Y-62781345D01*
X78288884Y-62992000D01*
X78307314Y-63202655D01*
X78308738Y-63207968D01*
X78308738Y-63207970D01*
X78344672Y-63342075D01*
X78362044Y-63406910D01*
X78364366Y-63411891D01*
X78364367Y-63411892D01*
X78401489Y-63491499D01*
X78451411Y-63598558D01*
X78572699Y-63771776D01*
X78722224Y-63921301D01*
X78895442Y-64042589D01*
X78900420Y-64044910D01*
X78900423Y-64044912D01*
X79070980Y-64124444D01*
X79087090Y-64131956D01*
X79092398Y-64133378D01*
X79092400Y-64133379D01*
X79118204Y-64140293D01*
X79178827Y-64177245D01*
X79209848Y-64241106D01*
X79201420Y-64311600D01*
X79156217Y-64366347D01*
X79118204Y-64383707D01*
X79092400Y-64390621D01*
X79092398Y-64390622D01*
X79087090Y-64392044D01*
X79082109Y-64394366D01*
X79082108Y-64394367D01*
X78900423Y-64479088D01*
X78900420Y-64479090D01*
X78895442Y-64481411D01*
X78722224Y-64602699D01*
X78572699Y-64752224D01*
X78451411Y-64925442D01*
X78449090Y-64930420D01*
X78449088Y-64930423D01*
X78387272Y-65062988D01*
X78362044Y-65117090D01*
X78360622Y-65122398D01*
X78360621Y-65122400D01*
X78321896Y-65266924D01*
X78307314Y-65321345D01*
X78288884Y-65532000D01*
X78307314Y-65742655D01*
X78308738Y-65747968D01*
X78308738Y-65747970D01*
X78354030Y-65917000D01*
X78362044Y-65946910D01*
X78364366Y-65951891D01*
X78364367Y-65951892D01*
X78423757Y-66079253D01*
X78451411Y-66138558D01*
X78572699Y-66311776D01*
X78722224Y-66461301D01*
X78726736Y-66464460D01*
X78814770Y-66526102D01*
X78859099Y-66581559D01*
X78868500Y-66629315D01*
X78868500Y-67951775D01*
X78848498Y-68019896D01*
X78807771Y-68059551D01*
X78786619Y-68072361D01*
X78665361Y-68193619D01*
X78576528Y-68340301D01*
X78574257Y-68347548D01*
X78574256Y-68347550D01*
X78553483Y-68413836D01*
X78525247Y-68503938D01*
X78518500Y-68577365D01*
X78518501Y-69090634D01*
X78518764Y-69093492D01*
X78518764Y-69093501D01*
X78522026Y-69129004D01*
X78525247Y-69164062D01*
X78527246Y-69170440D01*
X78527246Y-69170441D01*
X78559838Y-69274440D01*
X78576528Y-69327699D01*
X78665361Y-69474381D01*
X78786619Y-69595639D01*
X78933301Y-69684472D01*
X78940548Y-69686743D01*
X78940550Y-69686744D01*
X79006836Y-69707517D01*
X79096938Y-69735753D01*
X79170365Y-69742500D01*
X79173263Y-69742500D01*
X79502860Y-69742499D01*
X79833634Y-69742499D01*
X79836492Y-69742236D01*
X79836501Y-69742236D01*
X79872004Y-69738974D01*
X79907062Y-69735753D01*
X79913447Y-69733752D01*
X80063450Y-69686744D01*
X80063452Y-69686743D01*
X80070699Y-69684472D01*
X80217381Y-69595639D01*
X80338639Y-69474381D01*
X80427472Y-69327699D01*
X80444163Y-69274440D01*
X80476752Y-69170446D01*
X80478753Y-69164062D01*
X80485500Y-69090635D01*
X80485499Y-68577366D01*
X80485234Y-68574474D01*
X80479364Y-68510592D01*
X80478753Y-68503938D01*
X80454485Y-68426499D01*
X80429744Y-68347550D01*
X80429743Y-68347548D01*
X80427472Y-68340301D01*
X80338639Y-68193619D01*
X80217381Y-68072361D01*
X80196229Y-68059551D01*
X80148322Y-68007154D01*
X80135500Y-67951775D01*
X80135500Y-66629315D01*
X80155502Y-66561194D01*
X80189230Y-66526102D01*
X80277264Y-66464460D01*
X80281776Y-66461301D01*
X80431301Y-66311776D01*
X80552589Y-66138558D01*
X80580244Y-66079253D01*
X80639633Y-65951892D01*
X80639634Y-65951891D01*
X80641956Y-65946910D01*
X80649971Y-65917000D01*
X80695262Y-65747970D01*
X80695262Y-65747968D01*
X80696686Y-65742655D01*
X80715116Y-65532000D01*
X80696686Y-65321345D01*
X80695262Y-65316029D01*
X80694452Y-65311437D01*
X80702321Y-65240877D01*
X80729443Y-65200461D01*
X81639499Y-64290405D01*
X81701811Y-64256379D01*
X81728594Y-64253500D01*
X87386170Y-64253500D01*
X87454291Y-64273502D01*
X87500784Y-64327158D01*
X87511985Y-64386317D01*
X87511868Y-64388480D01*
X87511500Y-64391866D01*
X87511500Y-65388134D01*
X87518255Y-65450316D01*
X87529672Y-65480771D01*
X87534855Y-65551577D01*
X87529674Y-65569224D01*
X87518255Y-65599684D01*
X87511500Y-65661866D01*
X87511500Y-66658134D01*
X87518255Y-66720316D01*
X87529672Y-66750771D01*
X87534855Y-66821577D01*
X87529674Y-66839224D01*
X87518255Y-66869684D01*
X87511500Y-66931866D01*
X87511500Y-67928134D01*
X87518255Y-67990316D01*
X87529672Y-68020771D01*
X87534855Y-68091577D01*
X87529674Y-68109224D01*
X87518255Y-68139684D01*
X87511500Y-68201866D01*
X87511500Y-69198134D01*
X87518255Y-69260316D01*
X87529672Y-69290771D01*
X87534855Y-69361577D01*
X87529674Y-69379224D01*
X87518255Y-69409684D01*
X87511500Y-69471866D01*
X87511500Y-70468134D01*
X87518255Y-70530316D01*
X87569385Y-70666705D01*
X87656739Y-70783261D01*
X87773295Y-70870615D01*
X87909684Y-70921745D01*
X87971866Y-70928500D01*
X90068134Y-70928500D01*
X90130316Y-70921745D01*
X90266705Y-70870615D01*
X90383261Y-70783261D01*
X90470615Y-70666705D01*
X90521745Y-70530316D01*
X90528500Y-70468134D01*
X90528500Y-69471866D01*
X90521745Y-69409684D01*
X90510328Y-69379229D01*
X90505145Y-69308423D01*
X90510326Y-69290776D01*
X90521745Y-69260316D01*
X90528500Y-69198134D01*
X90528500Y-68201866D01*
X90521745Y-68139684D01*
X90510328Y-68109229D01*
X90505145Y-68038423D01*
X90510326Y-68020776D01*
X90521745Y-67990316D01*
X90528500Y-67928134D01*
X90528500Y-66931866D01*
X90521745Y-66869684D01*
X90510328Y-66839229D01*
X90505145Y-66768423D01*
X90510326Y-66750776D01*
X90521745Y-66720316D01*
X90528500Y-66658134D01*
X90528500Y-65661866D01*
X90521745Y-65599684D01*
X90510328Y-65569229D01*
X90505145Y-65498423D01*
X90510326Y-65480776D01*
X90521745Y-65450316D01*
X90528500Y-65388134D01*
X90528500Y-64391866D01*
X90521745Y-64329684D01*
X90510328Y-64299229D01*
X90505145Y-64228423D01*
X90510326Y-64210776D01*
X90521745Y-64180316D01*
X90528500Y-64118134D01*
X90528500Y-63121866D01*
X90521745Y-63059684D01*
X90510328Y-63029229D01*
X90505145Y-62958423D01*
X90510326Y-62940776D01*
X90521745Y-62910316D01*
X90528500Y-62848134D01*
X90528500Y-61851866D01*
X90521745Y-61789684D01*
X90510328Y-61759229D01*
X90505145Y-61688423D01*
X90510326Y-61670776D01*
X90521745Y-61640316D01*
X90528500Y-61578134D01*
X90528500Y-60581866D01*
X90521745Y-60519684D01*
X90510328Y-60489229D01*
X90505145Y-60418423D01*
X90510326Y-60400776D01*
X90521745Y-60370316D01*
X90528500Y-60308134D01*
X90528500Y-59311866D01*
X90521745Y-59249684D01*
X90510328Y-59219229D01*
X90505145Y-59148423D01*
X90510326Y-59130776D01*
X90521745Y-59100316D01*
X90528500Y-59038134D01*
X90528500Y-58041866D01*
X90521745Y-57979684D01*
X90510328Y-57949229D01*
X90505145Y-57878423D01*
X90510326Y-57860776D01*
X90521745Y-57830316D01*
X90528500Y-57768134D01*
X90528500Y-57458594D01*
X90548502Y-57390473D01*
X90602158Y-57343980D01*
X90672432Y-57333876D01*
X90737012Y-57363370D01*
X90743595Y-57369499D01*
X91150595Y-57776499D01*
X91184621Y-57838811D01*
X91187500Y-57865594D01*
X91187500Y-58606476D01*
X91167498Y-58674597D01*
X91155142Y-58690779D01*
X91081960Y-58772056D01*
X91032785Y-58857229D01*
X90996256Y-58920500D01*
X90986473Y-58937444D01*
X90927458Y-59119072D01*
X90926768Y-59125633D01*
X90926768Y-59125635D01*
X90924373Y-59148423D01*
X90907496Y-59309000D01*
X90927458Y-59498928D01*
X90986473Y-59680556D01*
X91081960Y-59845944D01*
X91086378Y-59850851D01*
X91086379Y-59850852D01*
X91148215Y-59919528D01*
X91209747Y-59987866D01*
X91364248Y-60100118D01*
X91370276Y-60102802D01*
X91370278Y-60102803D01*
X91508637Y-60164404D01*
X91538712Y-60177794D01*
X91632113Y-60197647D01*
X91719056Y-60216128D01*
X91719061Y-60216128D01*
X91725513Y-60217500D01*
X91916487Y-60217500D01*
X91922939Y-60216128D01*
X91922944Y-60216128D01*
X92009887Y-60197647D01*
X92103288Y-60177794D01*
X92133363Y-60164404D01*
X92271722Y-60102803D01*
X92271724Y-60102802D01*
X92277752Y-60100118D01*
X92432253Y-59987866D01*
X92493785Y-59919528D01*
X92555621Y-59850852D01*
X92555622Y-59850851D01*
X92560040Y-59845944D01*
X92655527Y-59680556D01*
X92714542Y-59498928D01*
X92734504Y-59309000D01*
X92717627Y-59148423D01*
X92715232Y-59125635D01*
X92715232Y-59125633D01*
X92714542Y-59119072D01*
X92655527Y-58937444D01*
X92645745Y-58920500D01*
X92609215Y-58857229D01*
X92560040Y-58772056D01*
X92486863Y-58690785D01*
X92456147Y-58626779D01*
X92454500Y-58606476D01*
X92454500Y-57629767D01*
X92455027Y-57618584D01*
X92456702Y-57611091D01*
X92455812Y-57582761D01*
X92454562Y-57543014D01*
X92454500Y-57539055D01*
X92454500Y-57511144D01*
X92453995Y-57507144D01*
X92453062Y-57495301D01*
X92451922Y-57459029D01*
X92451673Y-57451110D01*
X92446022Y-57431658D01*
X92442014Y-57412306D01*
X92440467Y-57400063D01*
X92439474Y-57392203D01*
X92436526Y-57384757D01*
X92423200Y-57351097D01*
X92419355Y-57339870D01*
X92417613Y-57333876D01*
X92407018Y-57297407D01*
X92402984Y-57290585D01*
X92402981Y-57290579D01*
X92396706Y-57279968D01*
X92388010Y-57262218D01*
X92383472Y-57250756D01*
X92383469Y-57250751D01*
X92380552Y-57243383D01*
X92354573Y-57207625D01*
X92348057Y-57197707D01*
X92329575Y-57166457D01*
X92325542Y-57159637D01*
X92311218Y-57145313D01*
X92298376Y-57130278D01*
X92292362Y-57122000D01*
X92286472Y-57113893D01*
X92252406Y-57085711D01*
X92243627Y-57077722D01*
X90773652Y-55607747D01*
X90766112Y-55599461D01*
X90762000Y-55592982D01*
X90712348Y-55546356D01*
X90709507Y-55543602D01*
X90689770Y-55523865D01*
X90686573Y-55521385D01*
X90677551Y-55513680D01*
X90645321Y-55483414D01*
X90638375Y-55479595D01*
X90638372Y-55479593D01*
X90627566Y-55473652D01*
X90611047Y-55462801D01*
X90603983Y-55457322D01*
X90595041Y-55450386D01*
X90587770Y-55447239D01*
X90580943Y-55443202D01*
X90581970Y-55441466D01*
X90535568Y-55402855D01*
X90514208Y-55335148D01*
X90517600Y-55303483D01*
X90518972Y-55297712D01*
X90521745Y-55290316D01*
X90528500Y-55228134D01*
X90528500Y-54231866D01*
X90521745Y-54169684D01*
X90470615Y-54033295D01*
X90383261Y-53916739D01*
X90266705Y-53829385D01*
X90130316Y-53778255D01*
X90068134Y-53771500D01*
X87971866Y-53771500D01*
X87909684Y-53778255D01*
X87773295Y-53829385D01*
X87656739Y-53916739D01*
X87569385Y-54033295D01*
X87569139Y-54033951D01*
X87521825Y-54081157D01*
X87461567Y-54096500D01*
X86680200Y-54096500D01*
X86612079Y-54076498D01*
X86592853Y-54060157D01*
X86592580Y-54060460D01*
X86587668Y-54056037D01*
X86583253Y-54051134D01*
X86428752Y-53938882D01*
X86422724Y-53936198D01*
X86422722Y-53936197D01*
X86260319Y-53863891D01*
X86260318Y-53863891D01*
X86254288Y-53861206D01*
X86160888Y-53841353D01*
X86073944Y-53822872D01*
X86073939Y-53822872D01*
X86067487Y-53821500D01*
X85876513Y-53821500D01*
X85870061Y-53822872D01*
X85870056Y-53822872D01*
X85783112Y-53841353D01*
X85689712Y-53861206D01*
X85683682Y-53863891D01*
X85683681Y-53863891D01*
X85521278Y-53936197D01*
X85521276Y-53936198D01*
X85515248Y-53938882D01*
X85360747Y-54051134D01*
X85356332Y-54056037D01*
X85351420Y-54060460D01*
X85350295Y-54059211D01*
X85296986Y-54092051D01*
X85263800Y-54096500D01*
X83492595Y-54096500D01*
X83424474Y-54076498D01*
X83403499Y-54059595D01*
X83062404Y-53718499D01*
X83028379Y-53656187D01*
X83025500Y-53629404D01*
X83025499Y-53340249D01*
X83025499Y-53337366D01*
X83025234Y-53334474D01*
X83019364Y-53270592D01*
X83018753Y-53263938D01*
X83013399Y-53246852D01*
X82969744Y-53107550D01*
X82969743Y-53107548D01*
X82967472Y-53100301D01*
X82878639Y-52953619D01*
X82757381Y-52832361D01*
X82610699Y-52743528D01*
X82603452Y-52741257D01*
X82603450Y-52741256D01*
X82508705Y-52711565D01*
X82447062Y-52692247D01*
X82373635Y-52685500D01*
X82370737Y-52685500D01*
X82041140Y-52685501D01*
X81710366Y-52685501D01*
X81707508Y-52685764D01*
X81707499Y-52685764D01*
X81671996Y-52689026D01*
X81636938Y-52692247D01*
X81630560Y-52694246D01*
X81630559Y-52694246D01*
X81480550Y-52741256D01*
X81480548Y-52741257D01*
X81473301Y-52743528D01*
X81326619Y-52832361D01*
X81205361Y-52953619D01*
X81116528Y-53100301D01*
X81114257Y-53107548D01*
X81114256Y-53107550D01*
X81093483Y-53173836D01*
X81065247Y-53263938D01*
X81058500Y-53337365D01*
X81058501Y-53850634D01*
X81065247Y-53924062D01*
X81067246Y-53930440D01*
X81067246Y-53930441D01*
X81112687Y-54075441D01*
X81116528Y-54087699D01*
X81205361Y-54234381D01*
X81300885Y-54329905D01*
X81334911Y-54392217D01*
X81329846Y-54463032D01*
X81300885Y-54508095D01*
X81205361Y-54603619D01*
X81116528Y-54750301D01*
X81114257Y-54757548D01*
X81114256Y-54757550D01*
X81093483Y-54823836D01*
X81065247Y-54913938D01*
X81058500Y-54987365D01*
X81058501Y-55500634D01*
X81058764Y-55503492D01*
X81058764Y-55503501D01*
X81060635Y-55523865D01*
X81065247Y-55574062D01*
X81067246Y-55580440D01*
X81067246Y-55580441D01*
X81079507Y-55619564D01*
X81116528Y-55737699D01*
X81205361Y-55884381D01*
X81326619Y-56005639D01*
X81332911Y-56009449D01*
X81374116Y-56067141D01*
X81377594Y-56138052D01*
X81342182Y-56199587D01*
X81337597Y-56203581D01*
X81333287Y-56206248D01*
X81212448Y-56327298D01*
X81208608Y-56333528D01*
X81208607Y-56333529D01*
X81159325Y-56413480D01*
X81122698Y-56472899D01*
X81068851Y-56635243D01*
X81068151Y-56642080D01*
X81068150Y-56642082D01*
X81066640Y-56656819D01*
X81058500Y-56736268D01*
X81058500Y-57045405D01*
X81038498Y-57113526D01*
X81021595Y-57134500D01*
X80914500Y-57241595D01*
X80852188Y-57275621D01*
X80825405Y-57278500D01*
X80314382Y-57278500D01*
X80246261Y-57258498D01*
X80199768Y-57204842D01*
X80196401Y-57196731D01*
X80187769Y-57173707D01*
X80187768Y-57173704D01*
X80184615Y-57165295D01*
X80097261Y-57048739D01*
X79980705Y-56961385D01*
X79844316Y-56910255D01*
X79782134Y-56903500D01*
X76935866Y-56903500D01*
X76873684Y-56910255D01*
X76737295Y-56961385D01*
X76620739Y-57048739D01*
X76533385Y-57165295D01*
X76530232Y-57173704D01*
X76530231Y-57173707D01*
X76521599Y-57196731D01*
X76478957Y-57253495D01*
X76412395Y-57278194D01*
X76403618Y-57278500D01*
X74554382Y-57278500D01*
X74486261Y-57258498D01*
X74439768Y-57204842D01*
X74436401Y-57196731D01*
X74427769Y-57173707D01*
X74427768Y-57173704D01*
X74424615Y-57165295D01*
X74337261Y-57048739D01*
X74220705Y-56961385D01*
X74084316Y-56910255D01*
X74022134Y-56903500D01*
X71634500Y-56903500D01*
X71566379Y-56883498D01*
X71519886Y-56829842D01*
X71508500Y-56777500D01*
X71508500Y-46634500D01*
X71528502Y-46566379D01*
X71582158Y-46519886D01*
X71634500Y-46508500D01*
X83394000Y-46508500D01*
X83462121Y-46528502D01*
G37*
%TD.AperFunction*%
%TA.AperFunction,Conductor*%
G36*
X91094532Y-79155538D02*
G01*
X91151368Y-79198085D01*
X91176179Y-79264605D01*
X91176500Y-79273594D01*
X91176500Y-84352405D01*
X91156498Y-84420526D01*
X91139595Y-84441500D01*
X90314500Y-85266595D01*
X90252188Y-85300621D01*
X90225405Y-85303500D01*
X85203595Y-85303500D01*
X85135474Y-85283498D01*
X85114499Y-85266595D01*
X84321404Y-84473499D01*
X84287379Y-84411187D01*
X84284500Y-84384404D01*
X84284499Y-84095249D01*
X84284499Y-84092366D01*
X84277753Y-84018938D01*
X84226472Y-83855301D01*
X84137639Y-83708619D01*
X84042115Y-83613095D01*
X84008089Y-83550783D01*
X84013154Y-83479968D01*
X84042115Y-83434905D01*
X84137639Y-83339381D01*
X84226472Y-83192699D01*
X84235630Y-83163478D01*
X84275752Y-83035446D01*
X84277753Y-83029062D01*
X84284500Y-82955635D01*
X84284499Y-82442366D01*
X84284234Y-82439474D01*
X84278364Y-82375592D01*
X84277753Y-82368938D01*
X84259469Y-82310594D01*
X84228744Y-82212550D01*
X84228743Y-82212548D01*
X84226472Y-82205301D01*
X84137639Y-82058619D01*
X84016381Y-81937361D01*
X83995229Y-81924551D01*
X83947322Y-81872154D01*
X83934500Y-81816775D01*
X83934500Y-81802225D01*
X83954502Y-81734104D01*
X83995229Y-81694449D01*
X84009880Y-81685576D01*
X84016381Y-81681639D01*
X84137639Y-81560381D01*
X84226472Y-81413699D01*
X84277753Y-81250062D01*
X84284500Y-81176635D01*
X84284499Y-80663366D01*
X84284234Y-80660474D01*
X84280129Y-80615805D01*
X84277753Y-80589938D01*
X84226472Y-80426301D01*
X84140759Y-80284771D01*
X84122580Y-80216141D01*
X84144391Y-80148578D01*
X84199266Y-80103532D01*
X84248535Y-80093500D01*
X86780606Y-80093500D01*
X86848727Y-80113502D01*
X86883819Y-80147229D01*
X86981072Y-80286120D01*
X86993802Y-80304300D01*
X87155700Y-80466198D01*
X87160208Y-80469355D01*
X87160211Y-80469357D01*
X87238389Y-80524098D01*
X87343251Y-80597523D01*
X87348233Y-80599846D01*
X87348238Y-80599849D01*
X87382457Y-80615805D01*
X87435742Y-80662722D01*
X87455203Y-80730999D01*
X87434661Y-80798959D01*
X87382457Y-80844195D01*
X87348238Y-80860151D01*
X87348233Y-80860154D01*
X87343251Y-80862477D01*
X87238389Y-80935902D01*
X87160211Y-80990643D01*
X87160208Y-80990645D01*
X87155700Y-80993802D01*
X86993802Y-81155700D01*
X86990645Y-81160208D01*
X86990643Y-81160211D01*
X86979144Y-81176634D01*
X86862477Y-81343251D01*
X86860154Y-81348233D01*
X86860151Y-81348238D01*
X86768942Y-81543839D01*
X86765716Y-81550757D01*
X86764294Y-81556065D01*
X86764293Y-81556067D01*
X86717359Y-81731227D01*
X86706457Y-81771913D01*
X86686502Y-82000000D01*
X86706457Y-82228087D01*
X86707881Y-82233400D01*
X86707881Y-82233402D01*
X86745984Y-82375601D01*
X86765716Y-82449243D01*
X86768039Y-82454224D01*
X86768039Y-82454225D01*
X86860151Y-82651762D01*
X86860154Y-82651767D01*
X86862477Y-82656749D01*
X86993802Y-82844300D01*
X87155700Y-83006198D01*
X87160208Y-83009355D01*
X87160211Y-83009357D01*
X87178837Y-83022399D01*
X87343251Y-83137523D01*
X87348233Y-83139846D01*
X87348238Y-83139849D01*
X87545775Y-83231961D01*
X87550757Y-83234284D01*
X87556065Y-83235706D01*
X87556067Y-83235707D01*
X87766598Y-83292119D01*
X87766600Y-83292119D01*
X87771913Y-83293543D01*
X88000000Y-83313498D01*
X88228087Y-83293543D01*
X88233400Y-83292119D01*
X88233402Y-83292119D01*
X88443933Y-83235707D01*
X88443935Y-83235706D01*
X88449243Y-83234284D01*
X88454225Y-83231961D01*
X88651762Y-83139849D01*
X88651767Y-83139846D01*
X88656749Y-83137523D01*
X88821163Y-83022399D01*
X88839789Y-83009357D01*
X88839792Y-83009355D01*
X88844300Y-83006198D01*
X89006198Y-82844300D01*
X89137523Y-82656749D01*
X89139846Y-82651767D01*
X89139849Y-82651762D01*
X89231961Y-82454225D01*
X89231961Y-82454224D01*
X89234284Y-82449243D01*
X89254017Y-82375601D01*
X89292119Y-82233402D01*
X89292119Y-82233400D01*
X89293543Y-82228087D01*
X89313498Y-82000000D01*
X89293543Y-81771913D01*
X89282641Y-81731227D01*
X89235707Y-81556067D01*
X89235706Y-81556065D01*
X89234284Y-81550757D01*
X89231058Y-81543839D01*
X89139849Y-81348238D01*
X89139846Y-81348233D01*
X89137523Y-81343251D01*
X89020856Y-81176634D01*
X89009357Y-81160211D01*
X89009355Y-81160208D01*
X89006198Y-81155700D01*
X88844300Y-80993802D01*
X88839792Y-80990645D01*
X88839789Y-80990643D01*
X88761611Y-80935902D01*
X88656749Y-80862477D01*
X88651767Y-80860154D01*
X88651762Y-80860151D01*
X88617543Y-80844195D01*
X88564258Y-80797278D01*
X88544797Y-80729001D01*
X88565339Y-80661041D01*
X88617543Y-80615805D01*
X88651762Y-80599849D01*
X88651767Y-80599846D01*
X88656749Y-80597523D01*
X88761611Y-80524098D01*
X88839789Y-80469357D01*
X88839792Y-80469355D01*
X88844300Y-80466198D01*
X89006198Y-80304300D01*
X89018928Y-80286120D01*
X89116181Y-80147229D01*
X89171638Y-80102901D01*
X89219394Y-80093500D01*
X89711233Y-80093500D01*
X89722416Y-80094027D01*
X89729909Y-80095702D01*
X89737835Y-80095453D01*
X89737836Y-80095453D01*
X89797986Y-80093562D01*
X89801945Y-80093500D01*
X89829856Y-80093500D01*
X89833791Y-80093003D01*
X89833856Y-80092995D01*
X89845693Y-80092062D01*
X89877951Y-80091048D01*
X89881970Y-80090922D01*
X89889889Y-80090673D01*
X89909343Y-80085021D01*
X89928700Y-80081013D01*
X89940930Y-80079468D01*
X89940931Y-80079468D01*
X89948797Y-80078474D01*
X89956168Y-80075555D01*
X89956170Y-80075555D01*
X89989912Y-80062196D01*
X90001142Y-80058351D01*
X90035983Y-80048229D01*
X90035984Y-80048229D01*
X90043593Y-80046018D01*
X90050412Y-80041985D01*
X90050417Y-80041983D01*
X90061028Y-80035707D01*
X90078776Y-80027012D01*
X90097617Y-80019552D01*
X90133387Y-79993564D01*
X90143307Y-79987048D01*
X90174535Y-79968580D01*
X90174538Y-79968578D01*
X90181362Y-79964542D01*
X90195683Y-79950221D01*
X90210717Y-79937380D01*
X90220694Y-79930131D01*
X90227107Y-79925472D01*
X90255298Y-79891395D01*
X90263288Y-79882616D01*
X90961405Y-79184499D01*
X91023717Y-79150473D01*
X91094532Y-79155538D01*
G37*
%TD.AperFunction*%
%TA.AperFunction,Conductor*%
G36*
X116771439Y-64610803D02*
G01*
X116865008Y-64623121D01*
X116878981Y-64624961D01*
X116883075Y-64625500D01*
X116982987Y-64625500D01*
X117082924Y-64625499D01*
X117087009Y-64624961D01*
X117087013Y-64624961D01*
X117153344Y-64616229D01*
X117194561Y-64610803D01*
X117201026Y-64608125D01*
X117264974Y-64608125D01*
X117271439Y-64610803D01*
X117365008Y-64623121D01*
X117378981Y-64624961D01*
X117383075Y-64625500D01*
X117482987Y-64625500D01*
X117582924Y-64625499D01*
X117587009Y-64624961D01*
X117587013Y-64624961D01*
X117653344Y-64616229D01*
X117694561Y-64610803D01*
X117701026Y-64608125D01*
X117764974Y-64608125D01*
X117771439Y-64610803D01*
X117865008Y-64623121D01*
X117878981Y-64624961D01*
X117883075Y-64625500D01*
X117982987Y-64625500D01*
X118082924Y-64625499D01*
X118087009Y-64624961D01*
X118087013Y-64624961D01*
X118153344Y-64616229D01*
X118194561Y-64610803D01*
X118201026Y-64608125D01*
X118264974Y-64608125D01*
X118271439Y-64610803D01*
X118365008Y-64623121D01*
X118378981Y-64624961D01*
X118383075Y-64625500D01*
X118482987Y-64625500D01*
X118582924Y-64625499D01*
X118587009Y-64624961D01*
X118587013Y-64624961D01*
X118653344Y-64616229D01*
X118694561Y-64610803D01*
X118701026Y-64608125D01*
X118764974Y-64608125D01*
X118771439Y-64610803D01*
X118865008Y-64623121D01*
X118878981Y-64624961D01*
X118883075Y-64625500D01*
X118982987Y-64625500D01*
X119082924Y-64625499D01*
X119087009Y-64624961D01*
X119087013Y-64624961D01*
X119153344Y-64616229D01*
X119194561Y-64610803D01*
X119201026Y-64608125D01*
X119264974Y-64608125D01*
X119271439Y-64610803D01*
X119365008Y-64623121D01*
X119378981Y-64624961D01*
X119383075Y-64625500D01*
X119398501Y-64625500D01*
X119466622Y-64645502D01*
X119513115Y-64699158D01*
X119524501Y-64751499D01*
X119524501Y-64766924D01*
X119525039Y-64771009D01*
X119525039Y-64771013D01*
X119532326Y-64826365D01*
X119539197Y-64878561D01*
X119541875Y-64885026D01*
X119541875Y-64948974D01*
X119539197Y-64955439D01*
X119524500Y-65067075D01*
X119524501Y-65266924D01*
X119539197Y-65378561D01*
X119541875Y-65385026D01*
X119541875Y-65448974D01*
X119539197Y-65455439D01*
X119524500Y-65567075D01*
X119524501Y-65766924D01*
X119539197Y-65878561D01*
X119541875Y-65885026D01*
X119541875Y-65948974D01*
X119539197Y-65955439D01*
X119524500Y-66067075D01*
X119524501Y-66266924D01*
X119525039Y-66271009D01*
X119525039Y-66271013D01*
X119538119Y-66370371D01*
X119539197Y-66378561D01*
X119596733Y-66517464D01*
X119601760Y-66524015D01*
X119601762Y-66524019D01*
X119652619Y-66590298D01*
X119678219Y-66656518D01*
X119663954Y-66726067D01*
X119652619Y-66743704D01*
X119596733Y-66816537D01*
X119539197Y-66955439D01*
X119538120Y-66963623D01*
X119538119Y-66963625D01*
X119525038Y-67062987D01*
X119524500Y-67067075D01*
X119524501Y-67266924D01*
X119539197Y-67378561D01*
X119541875Y-67385026D01*
X119541875Y-67448974D01*
X119539197Y-67455439D01*
X119524500Y-67567075D01*
X119524500Y-67582501D01*
X119504498Y-67650622D01*
X119450842Y-67697115D01*
X119398501Y-67708501D01*
X119383076Y-67708501D01*
X119378991Y-67709039D01*
X119378987Y-67709039D01*
X119312656Y-67717771D01*
X119271439Y-67723197D01*
X119264974Y-67725875D01*
X119201026Y-67725875D01*
X119194561Y-67723197D01*
X119100992Y-67710879D01*
X119087012Y-67709038D01*
X119087011Y-67709038D01*
X119082925Y-67708500D01*
X118983013Y-67708500D01*
X118883076Y-67708501D01*
X118878991Y-67709039D01*
X118878987Y-67709039D01*
X118812656Y-67717771D01*
X118771439Y-67723197D01*
X118764974Y-67725875D01*
X118701026Y-67725875D01*
X118694561Y-67723197D01*
X118600992Y-67710879D01*
X118587012Y-67709038D01*
X118587011Y-67709038D01*
X118582925Y-67708500D01*
X118483013Y-67708500D01*
X118383076Y-67708501D01*
X118378991Y-67709039D01*
X118378987Y-67709039D01*
X118312656Y-67717771D01*
X118271439Y-67723197D01*
X118264974Y-67725875D01*
X118201026Y-67725875D01*
X118194561Y-67723197D01*
X118100992Y-67710879D01*
X118087012Y-67709038D01*
X118087011Y-67709038D01*
X118082925Y-67708500D01*
X117983013Y-67708500D01*
X117883076Y-67708501D01*
X117878991Y-67709039D01*
X117878987Y-67709039D01*
X117812656Y-67717771D01*
X117771439Y-67723197D01*
X117764974Y-67725875D01*
X117701026Y-67725875D01*
X117694561Y-67723197D01*
X117600992Y-67710879D01*
X117587012Y-67709038D01*
X117587011Y-67709038D01*
X117582925Y-67708500D01*
X117483013Y-67708500D01*
X117383076Y-67708501D01*
X117378991Y-67709039D01*
X117378987Y-67709039D01*
X117312656Y-67717771D01*
X117271439Y-67723197D01*
X117264974Y-67725875D01*
X117201026Y-67725875D01*
X117194561Y-67723197D01*
X117100992Y-67710879D01*
X117087012Y-67709038D01*
X117087011Y-67709038D01*
X117082925Y-67708500D01*
X116983013Y-67708500D01*
X116883076Y-67708501D01*
X116878991Y-67709039D01*
X116878987Y-67709039D01*
X116812656Y-67717771D01*
X116771439Y-67723197D01*
X116764974Y-67725875D01*
X116701026Y-67725875D01*
X116694561Y-67723197D01*
X116600992Y-67710879D01*
X116587012Y-67709038D01*
X116587011Y-67709038D01*
X116582925Y-67708500D01*
X116567499Y-67708500D01*
X116499378Y-67688498D01*
X116452885Y-67634842D01*
X116441499Y-67582500D01*
X116441499Y-67567076D01*
X116426803Y-67455439D01*
X116424125Y-67448974D01*
X116424125Y-67385026D01*
X116426803Y-67378561D01*
X116441500Y-67266925D01*
X116441499Y-67067076D01*
X116426803Y-66955439D01*
X116424125Y-66948974D01*
X116424125Y-66885026D01*
X116426803Y-66878561D01*
X116441500Y-66766925D01*
X116441499Y-66567076D01*
X116426803Y-66455439D01*
X116424125Y-66448974D01*
X116424125Y-66385026D01*
X116426803Y-66378561D01*
X116441500Y-66266925D01*
X116441499Y-66067076D01*
X116426803Y-65955439D01*
X116424125Y-65948974D01*
X116424125Y-65885026D01*
X116426803Y-65878561D01*
X116441500Y-65766925D01*
X116441499Y-65567076D01*
X116426803Y-65455439D01*
X116424125Y-65448974D01*
X116424125Y-65385026D01*
X116426803Y-65378561D01*
X116441500Y-65266925D01*
X116441499Y-65067076D01*
X116426803Y-64955439D01*
X116424125Y-64948974D01*
X116424125Y-64885026D01*
X116426803Y-64878561D01*
X116441500Y-64766925D01*
X116441500Y-64751499D01*
X116461502Y-64683378D01*
X116515158Y-64636885D01*
X116567499Y-64625499D01*
X116582924Y-64625499D01*
X116587009Y-64624961D01*
X116587013Y-64624961D01*
X116653344Y-64616229D01*
X116694561Y-64610803D01*
X116701026Y-64608125D01*
X116764974Y-64608125D01*
X116771439Y-64610803D01*
G37*
%TD.AperFunction*%
%TD*%
M02*
