%TF.GenerationSoftware,KiCad,Pcbnew,6.0.5-a6ca702e91~116~ubuntu20.04.1*%
%TF.CreationDate,2022-05-10T14:58:35-05:00*%
%TF.ProjectId,CarHUD,43617248-5544-42e6-9b69-6361645f7063,rev?*%
%TF.SameCoordinates,Original*%
%TF.FileFunction,Copper,L2,Bot*%
%TF.FilePolarity,Positive*%
%FSLAX46Y46*%
G04 Gerber Fmt 4.6, Leading zero omitted, Abs format (unit mm)*
G04 Created by KiCad (PCBNEW 6.0.5-a6ca702e91~116~ubuntu20.04.1) date 2022-05-10 14:58:35*
%MOMM*%
%LPD*%
G01*
G04 APERTURE LIST*
%TA.AperFunction,ComponentPad*%
%ADD10C,1.400000*%
%TD*%
%TA.AperFunction,ComponentPad*%
%ADD11O,1.400000X1.400000*%
%TD*%
%TA.AperFunction,ComponentPad*%
%ADD12R,1.600000X1.600000*%
%TD*%
%TA.AperFunction,ComponentPad*%
%ADD13O,1.600000X1.600000*%
%TD*%
%TA.AperFunction,SMDPad,CuDef*%
%ADD14R,1.400000X0.400000*%
%TD*%
%TA.AperFunction,SMDPad,CuDef*%
%ADD15R,1.900000X2.300000*%
%TD*%
%TA.AperFunction,SMDPad,CuDef*%
%ADD16R,1.900000X1.800000*%
%TD*%
%TA.AperFunction,ViaPad*%
%ADD17C,0.800000*%
%TD*%
%TA.AperFunction,Conductor*%
%ADD18C,0.250000*%
%TD*%
%TA.AperFunction,Conductor*%
%ADD19C,0.200000*%
%TD*%
G04 APERTURE END LIST*
D10*
%TO.P,R_Photo1,1*%
%TO.N,+3V3*%
X79502000Y-62992000D03*
D11*
%TO.P,R_Photo1,2*%
%TO.N,/PHOTO_SENS*%
X79502000Y-65532000D03*
%TD*%
D12*
%TO.P,DS1621,1,SDA*%
%TO.N,/SDA*%
X88000000Y-76920000D03*
D13*
%TO.P,DS1621,2,SCL*%
%TO.N,/SCL*%
X88000000Y-79460000D03*
%TO.P,DS1621,3,TOUT*%
%TO.N,unconnected-(DS1621-Pad3)*%
X88000000Y-82000000D03*
%TO.P,DS1621,4,GND*%
%TO.N,GND*%
X88000000Y-84540000D03*
%TO.P,DS1621,5,A2*%
X95620000Y-84540000D03*
%TO.P,DS1621,6,A1*%
X95620000Y-82000000D03*
%TO.P,DS1621,7,A0*%
X95620000Y-79460000D03*
%TO.P,DS1621,8,VDD*%
%TO.N,+5V*%
X95620000Y-76920000D03*
%TD*%
D14*
%TO.P,USB_MICRO1,1,VBUS*%
%TO.N,+5V*%
X124053000Y-64867000D03*
%TO.P,USB_MICRO1,2,D-*%
%TO.N,/D-*%
X124053000Y-65517000D03*
%TO.P,USB_MICRO1,3,D+*%
%TO.N,/D+*%
X124053000Y-66167000D03*
%TO.P,USB_MICRO1,4,ID*%
%TO.N,unconnected-(USB_MICRO1-Pad4)*%
X124053000Y-66817000D03*
%TO.P,USB_MICRO1,5,GND*%
%TO.N,GND*%
X124053000Y-67467000D03*
D15*
%TO.P,USB_MICRO1,6,Shield*%
X126903000Y-62417000D03*
D16*
X126903000Y-65017000D03*
D15*
X126903000Y-69917000D03*
D16*
X126903000Y-67317000D03*
%TD*%
D17*
%TO.N,/RESET*%
X91821000Y-59309000D03*
X115316000Y-73660000D03*
%TO.N,+3V3*%
X113284000Y-52705000D03*
X85972000Y-54730000D03*
%TO.N,+5V*%
X122174000Y-64643000D03*
X111633000Y-64008000D03*
X108712000Y-72644000D03*
%TO.N,/D-*%
X122174000Y-65642503D03*
%TO.N,/D+*%
X122174000Y-66642006D03*
%TO.N,/RTS*%
X116586000Y-69850000D03*
X114681000Y-76835000D03*
%TD*%
D18*
%TO.N,/RESET*%
X106172000Y-73660000D02*
X91821000Y-59309000D01*
X115316000Y-73660000D02*
X106172000Y-73660000D01*
%TO.N,+3V3*%
X113284000Y-52705000D02*
X92583000Y-52705000D01*
X90558000Y-54730000D02*
X92583000Y-52705000D01*
X85972000Y-54730000D02*
X90558000Y-54730000D01*
X85972000Y-56522000D02*
X85972000Y-54730000D01*
X79502000Y-62992000D02*
X85972000Y-56522000D01*
%TO.N,+5V*%
X122398000Y-64867000D02*
X122174000Y-64643000D01*
X108712000Y-72644000D02*
X111633000Y-69723000D01*
X111633000Y-69723000D02*
X111633000Y-64008000D01*
X124053000Y-64867000D02*
X122398000Y-64867000D01*
D19*
%TO.N,/D-*%
X124053000Y-65517000D02*
X122299503Y-65517000D01*
X122299503Y-65517000D02*
X122174000Y-65642503D01*
%TO.N,/D+*%
X124053000Y-66167000D02*
X122649006Y-66167000D01*
X122649006Y-66167000D02*
X122174000Y-66642006D01*
D18*
%TO.N,/RTS*%
X117475000Y-74041000D02*
X114681000Y-76835000D01*
X116586000Y-69850000D02*
X117475000Y-70739000D01*
X117475000Y-70739000D02*
X117475000Y-74041000D01*
%TD*%
%TA.AperFunction,Conductor*%
%TO.N,GND*%
G36*
X83462121Y-46528502D02*
G01*
X83508614Y-46582158D01*
X83520000Y-46634500D01*
X83520000Y-51745000D01*
X111520000Y-51745000D01*
X111520000Y-51132703D01*
X122390743Y-51132703D01*
X122428268Y-51417734D01*
X122504129Y-51695036D01*
X122505813Y-51698984D01*
X122564344Y-51836206D01*
X122616923Y-51959476D01*
X122656817Y-52026134D01*
X122761148Y-52200458D01*
X122764561Y-52206161D01*
X122944313Y-52430528D01*
X123152851Y-52628423D01*
X123386317Y-52796186D01*
X123390112Y-52798195D01*
X123390113Y-52798196D01*
X123411869Y-52809715D01*
X123640392Y-52930712D01*
X123910373Y-53029511D01*
X124191264Y-53090755D01*
X124219841Y-53093004D01*
X124414282Y-53108307D01*
X124414291Y-53108307D01*
X124416739Y-53108500D01*
X124572271Y-53108500D01*
X124574407Y-53108354D01*
X124574418Y-53108354D01*
X124782548Y-53094165D01*
X124782554Y-53094164D01*
X124786825Y-53093873D01*
X124791020Y-53093004D01*
X124791022Y-53093004D01*
X124927583Y-53064724D01*
X125068342Y-53035574D01*
X125339343Y-52939607D01*
X125594812Y-52807750D01*
X125598313Y-52805289D01*
X125598317Y-52805287D01*
X125731669Y-52711565D01*
X125830023Y-52642441D01*
X126040622Y-52446740D01*
X126222713Y-52224268D01*
X126372927Y-51979142D01*
X126399871Y-51917763D01*
X126486757Y-51719830D01*
X126488483Y-51715898D01*
X126567244Y-51439406D01*
X126607751Y-51154784D01*
X126607845Y-51136951D01*
X126609235Y-50871583D01*
X126609235Y-50871576D01*
X126609257Y-50867297D01*
X126571732Y-50582266D01*
X126495871Y-50304964D01*
X126383077Y-50040524D01*
X126235439Y-49793839D01*
X126055687Y-49569472D01*
X125847149Y-49371577D01*
X125613683Y-49203814D01*
X125591843Y-49192250D01*
X125568654Y-49179972D01*
X125359608Y-49069288D01*
X125089627Y-48970489D01*
X124808736Y-48909245D01*
X124777685Y-48906801D01*
X124585718Y-48891693D01*
X124585709Y-48891693D01*
X124583261Y-48891500D01*
X124427729Y-48891500D01*
X124425593Y-48891646D01*
X124425582Y-48891646D01*
X124217452Y-48905835D01*
X124217446Y-48905836D01*
X124213175Y-48906127D01*
X124208980Y-48906996D01*
X124208978Y-48906996D01*
X124072417Y-48935276D01*
X123931658Y-48964426D01*
X123660657Y-49060393D01*
X123405188Y-49192250D01*
X123401687Y-49194711D01*
X123401683Y-49194713D01*
X123391594Y-49201804D01*
X123169977Y-49357559D01*
X122959378Y-49553260D01*
X122777287Y-49775732D01*
X122627073Y-50020858D01*
X122511517Y-50284102D01*
X122432756Y-50560594D01*
X122392249Y-50845216D01*
X122392227Y-50849505D01*
X122392226Y-50849512D01*
X122390765Y-51128417D01*
X122390743Y-51132703D01*
X111520000Y-51132703D01*
X111520000Y-46634500D01*
X111540002Y-46566379D01*
X111593658Y-46519886D01*
X111646000Y-46508500D01*
X129365500Y-46508500D01*
X129433621Y-46528502D01*
X129480114Y-46582158D01*
X129491500Y-46634500D01*
X129491500Y-86365500D01*
X129471498Y-86433621D01*
X129417842Y-86480114D01*
X129365500Y-86491500D01*
X71634500Y-86491500D01*
X71566379Y-86471498D01*
X71519886Y-86417842D01*
X71508500Y-86365500D01*
X71508500Y-82000000D01*
X86686502Y-82000000D01*
X86706457Y-82228087D01*
X86765716Y-82449243D01*
X86768039Y-82454224D01*
X86768039Y-82454225D01*
X86860151Y-82651762D01*
X86860154Y-82651767D01*
X86862477Y-82656749D01*
X86993802Y-82844300D01*
X87155700Y-83006198D01*
X87160208Y-83009355D01*
X87160211Y-83009357D01*
X87238389Y-83064098D01*
X87343251Y-83137523D01*
X87348233Y-83139846D01*
X87348238Y-83139849D01*
X87545775Y-83231961D01*
X87550757Y-83234284D01*
X87556065Y-83235706D01*
X87556067Y-83235707D01*
X87766598Y-83292119D01*
X87766600Y-83292119D01*
X87771913Y-83293543D01*
X88000000Y-83313498D01*
X88228087Y-83293543D01*
X88233400Y-83292119D01*
X88233402Y-83292119D01*
X88443933Y-83235707D01*
X88443935Y-83235706D01*
X88449243Y-83234284D01*
X88454225Y-83231961D01*
X88651762Y-83139849D01*
X88651767Y-83139846D01*
X88656749Y-83137523D01*
X88761611Y-83064098D01*
X88839789Y-83009357D01*
X88839792Y-83009355D01*
X88844300Y-83006198D01*
X88967795Y-82882703D01*
X123640743Y-82882703D01*
X123678268Y-83167734D01*
X123754129Y-83445036D01*
X123866923Y-83709476D01*
X124014561Y-83956161D01*
X124194313Y-84180528D01*
X124402851Y-84378423D01*
X124636317Y-84546186D01*
X124640112Y-84548195D01*
X124640113Y-84548196D01*
X124661869Y-84559715D01*
X124890392Y-84680712D01*
X125160373Y-84779511D01*
X125441264Y-84840755D01*
X125469841Y-84843004D01*
X125664282Y-84858307D01*
X125664291Y-84858307D01*
X125666739Y-84858500D01*
X125822271Y-84858500D01*
X125824407Y-84858354D01*
X125824418Y-84858354D01*
X126032548Y-84844165D01*
X126032554Y-84844164D01*
X126036825Y-84843873D01*
X126041020Y-84843004D01*
X126041022Y-84843004D01*
X126177584Y-84814723D01*
X126318342Y-84785574D01*
X126589343Y-84689607D01*
X126844812Y-84557750D01*
X126848313Y-84555289D01*
X126848317Y-84555287D01*
X126962418Y-84475095D01*
X127080023Y-84392441D01*
X127290622Y-84196740D01*
X127472713Y-83974268D01*
X127622927Y-83729142D01*
X127738483Y-83465898D01*
X127817244Y-83189406D01*
X127857751Y-82904784D01*
X127857845Y-82886951D01*
X127859235Y-82621583D01*
X127859235Y-82621576D01*
X127859257Y-82617297D01*
X127821732Y-82332266D01*
X127745871Y-82054964D01*
X127633077Y-81790524D01*
X127558527Y-81665960D01*
X127487643Y-81547521D01*
X127487640Y-81547517D01*
X127485439Y-81543839D01*
X127305687Y-81319472D01*
X127097149Y-81121577D01*
X126863683Y-80953814D01*
X126841843Y-80942250D01*
X126697140Y-80865634D01*
X126609608Y-80819288D01*
X126339627Y-80720489D01*
X126058736Y-80659245D01*
X126027685Y-80656801D01*
X125835718Y-80641693D01*
X125835709Y-80641693D01*
X125833261Y-80641500D01*
X125677729Y-80641500D01*
X125675593Y-80641646D01*
X125675582Y-80641646D01*
X125467452Y-80655835D01*
X125467446Y-80655836D01*
X125463175Y-80656127D01*
X125458980Y-80656996D01*
X125458978Y-80656996D01*
X125322416Y-80685277D01*
X125181658Y-80714426D01*
X124910657Y-80810393D01*
X124655188Y-80942250D01*
X124651687Y-80944711D01*
X124651683Y-80944713D01*
X124581837Y-80993802D01*
X124419977Y-81107559D01*
X124209378Y-81303260D01*
X124027287Y-81525732D01*
X123877073Y-81770858D01*
X123761517Y-82034102D01*
X123682756Y-82310594D01*
X123642249Y-82595216D01*
X123642227Y-82599505D01*
X123642226Y-82599512D01*
X123640765Y-82878417D01*
X123640743Y-82882703D01*
X88967795Y-82882703D01*
X89006198Y-82844300D01*
X89137523Y-82656749D01*
X89139846Y-82651767D01*
X89139849Y-82651762D01*
X89231961Y-82454225D01*
X89231961Y-82454224D01*
X89234284Y-82449243D01*
X89293543Y-82228087D01*
X89313498Y-82000000D01*
X89293543Y-81771913D01*
X89234284Y-81550757D01*
X89231058Y-81543839D01*
X89139849Y-81348238D01*
X89139846Y-81348233D01*
X89137523Y-81343251D01*
X89006198Y-81155700D01*
X88844300Y-80993802D01*
X88839792Y-80990645D01*
X88839789Y-80990643D01*
X88761611Y-80935902D01*
X88656749Y-80862477D01*
X88651767Y-80860154D01*
X88651762Y-80860151D01*
X88617543Y-80844195D01*
X88564258Y-80797278D01*
X88544797Y-80729001D01*
X88565339Y-80661041D01*
X88617543Y-80615805D01*
X88651762Y-80599849D01*
X88651767Y-80599846D01*
X88656749Y-80597523D01*
X88761611Y-80524098D01*
X88839789Y-80469357D01*
X88839792Y-80469355D01*
X88844300Y-80466198D01*
X89006198Y-80304300D01*
X89137523Y-80116749D01*
X89139846Y-80111767D01*
X89139849Y-80111762D01*
X89231961Y-79914225D01*
X89231961Y-79914224D01*
X89234284Y-79909243D01*
X89293543Y-79688087D01*
X89313498Y-79460000D01*
X89293543Y-79231913D01*
X89234284Y-79010757D01*
X89231961Y-79005775D01*
X89139849Y-78808238D01*
X89139846Y-78808233D01*
X89137523Y-78803251D01*
X89006198Y-78615700D01*
X88844300Y-78453802D01*
X88839789Y-78450643D01*
X88835576Y-78447108D01*
X88836527Y-78445974D01*
X88796529Y-78395929D01*
X88789224Y-78325310D01*
X88821258Y-78261951D01*
X88882462Y-78225970D01*
X88899517Y-78222918D01*
X88910316Y-78221745D01*
X89046705Y-78170615D01*
X89163261Y-78083261D01*
X89250615Y-77966705D01*
X89301745Y-77830316D01*
X89308500Y-77768134D01*
X89308500Y-76920000D01*
X94306502Y-76920000D01*
X94326457Y-77148087D01*
X94327881Y-77153400D01*
X94327881Y-77153402D01*
X94365469Y-77293679D01*
X94385716Y-77369243D01*
X94388039Y-77374224D01*
X94388039Y-77374225D01*
X94480151Y-77571762D01*
X94480154Y-77571767D01*
X94482477Y-77576749D01*
X94514328Y-77622237D01*
X94599238Y-77743500D01*
X94613802Y-77764300D01*
X94775700Y-77926198D01*
X94780208Y-77929355D01*
X94780211Y-77929357D01*
X94821542Y-77958297D01*
X94963251Y-78057523D01*
X94968233Y-78059846D01*
X94968238Y-78059849D01*
X95165775Y-78151961D01*
X95170757Y-78154284D01*
X95176065Y-78155706D01*
X95176067Y-78155707D01*
X95386598Y-78212119D01*
X95386600Y-78212119D01*
X95391913Y-78213543D01*
X95620000Y-78233498D01*
X95848087Y-78213543D01*
X95853400Y-78212119D01*
X95853402Y-78212119D01*
X96063933Y-78155707D01*
X96063935Y-78155706D01*
X96069243Y-78154284D01*
X96074225Y-78151961D01*
X96271762Y-78059849D01*
X96271767Y-78059846D01*
X96276749Y-78057523D01*
X96418458Y-77958297D01*
X96459789Y-77929357D01*
X96459792Y-77929355D01*
X96464300Y-77926198D01*
X96626198Y-77764300D01*
X96640763Y-77743500D01*
X96725672Y-77622237D01*
X96757523Y-77576749D01*
X96759846Y-77571767D01*
X96759849Y-77571762D01*
X96851961Y-77374225D01*
X96851961Y-77374224D01*
X96854284Y-77369243D01*
X96874532Y-77293679D01*
X96912119Y-77153402D01*
X96912119Y-77153400D01*
X96913543Y-77148087D01*
X96933498Y-76920000D01*
X96926061Y-76835000D01*
X113767496Y-76835000D01*
X113787458Y-77024928D01*
X113846473Y-77206556D01*
X113941960Y-77371944D01*
X114069747Y-77513866D01*
X114224248Y-77626118D01*
X114230276Y-77628802D01*
X114230278Y-77628803D01*
X114392681Y-77701109D01*
X114398712Y-77703794D01*
X114492113Y-77723647D01*
X114579056Y-77742128D01*
X114579061Y-77742128D01*
X114585513Y-77743500D01*
X114776487Y-77743500D01*
X114782939Y-77742128D01*
X114782944Y-77742128D01*
X114869887Y-77723647D01*
X114963288Y-77703794D01*
X114969319Y-77701109D01*
X115131722Y-77628803D01*
X115131724Y-77628802D01*
X115137752Y-77626118D01*
X115292253Y-77513866D01*
X115420040Y-77371944D01*
X115515527Y-77206556D01*
X115574542Y-77024928D01*
X115591907Y-76859706D01*
X115618920Y-76794050D01*
X115628122Y-76783782D01*
X117867247Y-74544657D01*
X117875537Y-74537113D01*
X117882018Y-74533000D01*
X117928659Y-74483332D01*
X117931413Y-74480491D01*
X117951135Y-74460769D01*
X117953619Y-74457567D01*
X117961317Y-74448555D01*
X117986161Y-74422098D01*
X117991586Y-74416321D01*
X118001347Y-74398566D01*
X118012198Y-74382047D01*
X118024614Y-74366041D01*
X118037068Y-74337261D01*
X118042174Y-74325463D01*
X118047391Y-74314813D01*
X118068695Y-74276060D01*
X118073733Y-74256437D01*
X118080137Y-74237734D01*
X118085033Y-74226420D01*
X118085033Y-74226419D01*
X118088181Y-74219145D01*
X118089420Y-74211322D01*
X118089423Y-74211312D01*
X118095099Y-74175476D01*
X118097505Y-74163856D01*
X118106528Y-74128711D01*
X118106528Y-74128710D01*
X118108500Y-74121030D01*
X118108500Y-74100776D01*
X118110051Y-74081065D01*
X118111980Y-74068886D01*
X118113220Y-74061057D01*
X118109059Y-74017038D01*
X118108500Y-74005181D01*
X118108500Y-70817767D01*
X118109027Y-70806584D01*
X118110702Y-70799091D01*
X118108562Y-70731000D01*
X118108500Y-70727043D01*
X118108500Y-70699144D01*
X118107996Y-70695153D01*
X118107063Y-70683311D01*
X118105923Y-70647036D01*
X118105674Y-70639111D01*
X118103462Y-70631497D01*
X118103461Y-70631492D01*
X118100023Y-70619659D01*
X118096012Y-70600295D01*
X118094467Y-70588064D01*
X118093474Y-70580203D01*
X118090557Y-70572836D01*
X118090556Y-70572831D01*
X118077198Y-70539092D01*
X118073354Y-70527865D01*
X118063230Y-70493022D01*
X118061018Y-70485407D01*
X118050707Y-70467972D01*
X118042012Y-70450224D01*
X118034552Y-70431383D01*
X118008564Y-70395613D01*
X118002048Y-70385693D01*
X117983580Y-70354465D01*
X117983578Y-70354462D01*
X117979542Y-70347638D01*
X117965221Y-70333317D01*
X117952380Y-70318283D01*
X117945131Y-70308306D01*
X117940472Y-70301893D01*
X117934367Y-70296842D01*
X117934362Y-70296837D01*
X117906402Y-70273706D01*
X117897624Y-70265719D01*
X117723277Y-70091372D01*
X117533122Y-69901218D01*
X117499097Y-69838905D01*
X117496907Y-69825292D01*
X117480232Y-69666635D01*
X117480232Y-69666633D01*
X117479542Y-69660072D01*
X117420527Y-69478444D01*
X117410223Y-69460596D01*
X117328341Y-69318774D01*
X117325040Y-69313056D01*
X117197253Y-69171134D01*
X117042752Y-69058882D01*
X117036724Y-69056198D01*
X117036722Y-69056197D01*
X116874319Y-68983891D01*
X116874318Y-68983891D01*
X116868288Y-68981206D01*
X116774888Y-68961353D01*
X116687944Y-68942872D01*
X116687939Y-68942872D01*
X116681487Y-68941500D01*
X116490513Y-68941500D01*
X116484061Y-68942872D01*
X116484056Y-68942872D01*
X116397112Y-68961353D01*
X116303712Y-68981206D01*
X116297682Y-68983891D01*
X116297681Y-68983891D01*
X116135278Y-69056197D01*
X116135276Y-69056198D01*
X116129248Y-69058882D01*
X115974747Y-69171134D01*
X115846960Y-69313056D01*
X115843659Y-69318774D01*
X115761778Y-69460596D01*
X115751473Y-69478444D01*
X115692458Y-69660072D01*
X115691768Y-69666633D01*
X115691768Y-69666635D01*
X115683736Y-69743057D01*
X115672496Y-69850000D01*
X115692458Y-70039928D01*
X115751473Y-70221556D01*
X115846960Y-70386944D01*
X115851378Y-70391851D01*
X115851379Y-70391852D01*
X115912233Y-70459437D01*
X115974747Y-70528866D01*
X116129248Y-70641118D01*
X116135276Y-70643802D01*
X116135278Y-70643803D01*
X116224015Y-70683311D01*
X116303712Y-70718794D01*
X116397113Y-70738647D01*
X116484056Y-70757128D01*
X116484061Y-70757128D01*
X116490513Y-70758500D01*
X116546405Y-70758500D01*
X116614526Y-70778502D01*
X116635500Y-70795405D01*
X116804595Y-70964500D01*
X116838621Y-71026812D01*
X116841500Y-71053595D01*
X116841500Y-73726406D01*
X116821498Y-73794527D01*
X116804599Y-73815497D01*
X116129505Y-74490591D01*
X116106149Y-74503344D01*
X116100325Y-74518303D01*
X116089643Y-74530453D01*
X115279131Y-75340964D01*
X114730500Y-75889595D01*
X114668188Y-75923621D01*
X114641405Y-75926500D01*
X114585513Y-75926500D01*
X114579061Y-75927872D01*
X114579056Y-75927872D01*
X114492112Y-75946353D01*
X114398712Y-75966206D01*
X114392682Y-75968891D01*
X114392681Y-75968891D01*
X114230278Y-76041197D01*
X114230276Y-76041198D01*
X114224248Y-76043882D01*
X114069747Y-76156134D01*
X114065326Y-76161044D01*
X114065325Y-76161045D01*
X113973299Y-76263251D01*
X113941960Y-76298056D01*
X113938659Y-76303774D01*
X113851046Y-76455524D01*
X113846473Y-76463444D01*
X113787458Y-76645072D01*
X113786768Y-76651633D01*
X113786768Y-76651635D01*
X113772879Y-76783782D01*
X113767496Y-76835000D01*
X96926061Y-76835000D01*
X96913543Y-76691913D01*
X96912119Y-76686598D01*
X96855707Y-76476067D01*
X96855706Y-76476065D01*
X96854284Y-76470757D01*
X96847181Y-76455524D01*
X96759849Y-76268238D01*
X96759846Y-76268233D01*
X96757523Y-76263251D01*
X96626198Y-76075700D01*
X96464300Y-75913802D01*
X96459792Y-75910645D01*
X96459789Y-75910643D01*
X96381611Y-75855902D01*
X96276749Y-75782477D01*
X96271767Y-75780154D01*
X96271762Y-75780151D01*
X96074225Y-75688039D01*
X96074224Y-75688039D01*
X96069243Y-75685716D01*
X96063935Y-75684294D01*
X96063933Y-75684293D01*
X95853402Y-75627881D01*
X95853400Y-75627881D01*
X95848087Y-75626457D01*
X95620000Y-75606502D01*
X95391913Y-75626457D01*
X95386600Y-75627881D01*
X95386598Y-75627881D01*
X95176067Y-75684293D01*
X95176065Y-75684294D01*
X95170757Y-75685716D01*
X95165776Y-75688039D01*
X95165775Y-75688039D01*
X94968238Y-75780151D01*
X94968233Y-75780154D01*
X94963251Y-75782477D01*
X94858389Y-75855902D01*
X94780211Y-75910643D01*
X94780208Y-75910645D01*
X94775700Y-75913802D01*
X94613802Y-76075700D01*
X94482477Y-76263251D01*
X94480154Y-76268233D01*
X94480151Y-76268238D01*
X94392819Y-76455524D01*
X94385716Y-76470757D01*
X94384294Y-76476065D01*
X94384293Y-76476067D01*
X94327881Y-76686598D01*
X94326457Y-76691913D01*
X94306502Y-76920000D01*
X89308500Y-76920000D01*
X89308500Y-76071866D01*
X89301745Y-76009684D01*
X89250615Y-75873295D01*
X89163261Y-75756739D01*
X89046705Y-75669385D01*
X88910316Y-75618255D01*
X88848134Y-75611500D01*
X87151866Y-75611500D01*
X87089684Y-75618255D01*
X86953295Y-75669385D01*
X86836739Y-75756739D01*
X86749385Y-75873295D01*
X86698255Y-76009684D01*
X86691500Y-76071866D01*
X86691500Y-77768134D01*
X86698255Y-77830316D01*
X86749385Y-77966705D01*
X86836739Y-78083261D01*
X86953295Y-78170615D01*
X87089684Y-78221745D01*
X87100474Y-78222917D01*
X87102606Y-78223803D01*
X87105222Y-78224425D01*
X87105121Y-78224848D01*
X87166035Y-78250155D01*
X87206463Y-78308517D01*
X87208922Y-78379471D01*
X87172629Y-78440490D01*
X87163969Y-78447489D01*
X87160207Y-78450646D01*
X87155700Y-78453802D01*
X86993802Y-78615700D01*
X86862477Y-78803251D01*
X86860154Y-78808233D01*
X86860151Y-78808238D01*
X86768039Y-79005775D01*
X86765716Y-79010757D01*
X86706457Y-79231913D01*
X86686502Y-79460000D01*
X86706457Y-79688087D01*
X86765716Y-79909243D01*
X86768039Y-79914224D01*
X86768039Y-79914225D01*
X86860151Y-80111762D01*
X86860154Y-80111767D01*
X86862477Y-80116749D01*
X86993802Y-80304300D01*
X87155700Y-80466198D01*
X87160208Y-80469355D01*
X87160211Y-80469357D01*
X87238389Y-80524098D01*
X87343251Y-80597523D01*
X87348233Y-80599846D01*
X87348238Y-80599849D01*
X87382457Y-80615805D01*
X87435742Y-80662722D01*
X87455203Y-80730999D01*
X87434661Y-80798959D01*
X87382457Y-80844195D01*
X87348238Y-80860151D01*
X87348233Y-80860154D01*
X87343251Y-80862477D01*
X87238389Y-80935902D01*
X87160211Y-80990643D01*
X87160208Y-80990645D01*
X87155700Y-80993802D01*
X86993802Y-81155700D01*
X86862477Y-81343251D01*
X86860154Y-81348233D01*
X86860151Y-81348238D01*
X86768942Y-81543839D01*
X86765716Y-81550757D01*
X86706457Y-81771913D01*
X86686502Y-82000000D01*
X71508500Y-82000000D01*
X71508500Y-75632703D01*
X73640743Y-75632703D01*
X73678268Y-75917734D01*
X73754129Y-76195036D01*
X73755813Y-76198984D01*
X73785353Y-76268238D01*
X73866923Y-76459476D01*
X73876853Y-76476067D01*
X74006034Y-76691913D01*
X74014561Y-76706161D01*
X74194313Y-76930528D01*
X74402851Y-77128423D01*
X74636317Y-77296186D01*
X74640112Y-77298195D01*
X74640113Y-77298196D01*
X74661869Y-77309715D01*
X74890392Y-77430712D01*
X75160373Y-77529511D01*
X75441264Y-77590755D01*
X75469841Y-77593004D01*
X75664282Y-77608307D01*
X75664291Y-77608307D01*
X75666739Y-77608500D01*
X75822271Y-77608500D01*
X75824407Y-77608354D01*
X75824418Y-77608354D01*
X76032548Y-77594165D01*
X76032554Y-77594164D01*
X76036825Y-77593873D01*
X76041020Y-77593004D01*
X76041022Y-77593004D01*
X76177583Y-77564724D01*
X76318342Y-77535574D01*
X76589343Y-77439607D01*
X76725671Y-77369243D01*
X76841005Y-77309715D01*
X76841006Y-77309715D01*
X76844812Y-77307750D01*
X76848313Y-77305289D01*
X76848317Y-77305287D01*
X76962417Y-77225096D01*
X77080023Y-77142441D01*
X77206482Y-77024928D01*
X77287479Y-76949661D01*
X77287481Y-76949658D01*
X77290622Y-76946740D01*
X77472713Y-76724268D01*
X77622927Y-76479142D01*
X77717697Y-76263251D01*
X77736757Y-76219830D01*
X77738483Y-76215898D01*
X77817244Y-75939406D01*
X77853551Y-75684293D01*
X77857146Y-75659036D01*
X77857146Y-75659034D01*
X77857751Y-75654784D01*
X77857845Y-75636951D01*
X77859235Y-75371583D01*
X77859235Y-75371576D01*
X77859257Y-75367297D01*
X77821732Y-75082266D01*
X77745871Y-74804964D01*
X77633077Y-74540524D01*
X77485439Y-74293839D01*
X77305687Y-74069472D01*
X77097149Y-73871577D01*
X76863683Y-73703814D01*
X76841843Y-73692250D01*
X76768534Y-73653435D01*
X76609608Y-73569288D01*
X76339627Y-73470489D01*
X76058736Y-73409245D01*
X76027685Y-73406801D01*
X75835718Y-73391693D01*
X75835709Y-73391693D01*
X75833261Y-73391500D01*
X75677729Y-73391500D01*
X75675593Y-73391646D01*
X75675582Y-73391646D01*
X75467452Y-73405835D01*
X75467446Y-73405836D01*
X75463175Y-73406127D01*
X75458980Y-73406996D01*
X75458978Y-73406996D01*
X75322416Y-73435277D01*
X75181658Y-73464426D01*
X74910657Y-73560393D01*
X74655188Y-73692250D01*
X74651687Y-73694711D01*
X74651683Y-73694713D01*
X74641594Y-73701804D01*
X74419977Y-73857559D01*
X74404892Y-73871577D01*
X74226576Y-74037279D01*
X74209378Y-74053260D01*
X74027287Y-74275732D01*
X73877073Y-74520858D01*
X73761517Y-74784102D01*
X73682756Y-75060594D01*
X73642249Y-75345216D01*
X73642227Y-75349505D01*
X73642226Y-75349512D01*
X73640768Y-75627881D01*
X73640743Y-75632703D01*
X71508500Y-75632703D01*
X71508500Y-65532000D01*
X78288884Y-65532000D01*
X78307314Y-65742655D01*
X78308738Y-65747968D01*
X78308738Y-65747970D01*
X78354530Y-65918866D01*
X78362044Y-65946910D01*
X78364366Y-65951891D01*
X78364367Y-65951892D01*
X78423758Y-66079255D01*
X78451411Y-66138558D01*
X78572699Y-66311776D01*
X78722224Y-66461301D01*
X78895442Y-66582589D01*
X78900420Y-66584910D01*
X78900423Y-66584912D01*
X79082108Y-66669633D01*
X79087090Y-66671956D01*
X79092398Y-66673378D01*
X79092400Y-66673379D01*
X79286030Y-66725262D01*
X79286032Y-66725262D01*
X79291345Y-66726686D01*
X79502000Y-66745116D01*
X79712655Y-66726686D01*
X79717968Y-66725262D01*
X79717970Y-66725262D01*
X79911600Y-66673379D01*
X79911602Y-66673378D01*
X79916910Y-66671956D01*
X79921892Y-66669633D01*
X80103577Y-66584912D01*
X80103580Y-66584910D01*
X80108558Y-66582589D01*
X80281776Y-66461301D01*
X80431301Y-66311776D01*
X80552589Y-66138558D01*
X80580243Y-66079255D01*
X80639633Y-65951892D01*
X80639634Y-65951891D01*
X80641956Y-65946910D01*
X80649471Y-65918866D01*
X80695262Y-65747970D01*
X80695262Y-65747968D01*
X80696686Y-65742655D01*
X80715116Y-65532000D01*
X80696686Y-65321345D01*
X80681714Y-65265469D01*
X80643379Y-65122400D01*
X80643378Y-65122398D01*
X80641956Y-65117090D01*
X80552589Y-64925442D01*
X80431301Y-64752224D01*
X80281776Y-64602699D01*
X80108558Y-64481411D01*
X80103580Y-64479090D01*
X80103577Y-64479088D01*
X79921892Y-64394367D01*
X79921891Y-64394366D01*
X79916910Y-64392044D01*
X79911602Y-64390622D01*
X79911600Y-64390621D01*
X79885796Y-64383707D01*
X79825173Y-64346755D01*
X79794152Y-64282894D01*
X79802580Y-64212400D01*
X79847783Y-64157653D01*
X79885796Y-64140293D01*
X79911600Y-64133379D01*
X79911602Y-64133378D01*
X79916910Y-64131956D01*
X79921892Y-64129633D01*
X80103577Y-64044912D01*
X80103580Y-64044910D01*
X80108558Y-64042589D01*
X80281776Y-63921301D01*
X80431301Y-63771776D01*
X80552589Y-63598558D01*
X80641956Y-63406910D01*
X80663837Y-63325251D01*
X80695262Y-63207970D01*
X80695262Y-63207968D01*
X80696686Y-63202655D01*
X80715116Y-62992000D01*
X80714637Y-62986525D01*
X80697165Y-62786816D01*
X80697164Y-62786812D01*
X80696686Y-62781345D01*
X80695264Y-62776039D01*
X80694453Y-62771439D01*
X80702321Y-62700879D01*
X80729443Y-62660462D01*
X84080905Y-59309000D01*
X90907496Y-59309000D01*
X90927458Y-59498928D01*
X90986473Y-59680556D01*
X91081960Y-59845944D01*
X91209747Y-59987866D01*
X91364248Y-60100118D01*
X91370276Y-60102802D01*
X91370278Y-60102803D01*
X91532681Y-60175109D01*
X91538712Y-60177794D01*
X91632113Y-60197647D01*
X91719056Y-60216128D01*
X91719061Y-60216128D01*
X91725513Y-60217500D01*
X91781406Y-60217500D01*
X91849527Y-60237502D01*
X91870501Y-60254405D01*
X105668348Y-74052253D01*
X105675888Y-74060539D01*
X105680000Y-74067018D01*
X105685777Y-74072443D01*
X105729651Y-74113643D01*
X105732493Y-74116398D01*
X105752230Y-74136135D01*
X105755427Y-74138615D01*
X105764447Y-74146318D01*
X105796679Y-74176586D01*
X105803625Y-74180405D01*
X105803628Y-74180407D01*
X105814434Y-74186348D01*
X105830953Y-74197199D01*
X105846959Y-74209614D01*
X105854228Y-74212759D01*
X105854232Y-74212762D01*
X105887537Y-74227174D01*
X105898187Y-74232391D01*
X105936940Y-74253695D01*
X105944615Y-74255666D01*
X105944616Y-74255666D01*
X105956562Y-74258733D01*
X105975266Y-74265137D01*
X105982770Y-74268384D01*
X105993855Y-74273181D01*
X106001678Y-74274420D01*
X106001688Y-74274423D01*
X106037524Y-74280099D01*
X106049144Y-74282505D01*
X106080254Y-74290492D01*
X106091970Y-74293500D01*
X106112224Y-74293500D01*
X106131934Y-74295051D01*
X106151943Y-74298220D01*
X106159835Y-74297474D01*
X106195961Y-74294059D01*
X106207819Y-74293500D01*
X114607800Y-74293500D01*
X114675921Y-74313502D01*
X114695147Y-74329843D01*
X114695420Y-74329540D01*
X114700332Y-74333963D01*
X114704747Y-74338866D01*
X114710086Y-74342745D01*
X114819306Y-74422098D01*
X114859248Y-74451118D01*
X114865276Y-74453802D01*
X114865278Y-74453803D01*
X115015887Y-74520858D01*
X115033712Y-74528794D01*
X115127113Y-74548647D01*
X115214056Y-74567128D01*
X115214061Y-74567128D01*
X115220513Y-74568500D01*
X115411487Y-74568500D01*
X115417939Y-74567128D01*
X115417944Y-74567128D01*
X115504887Y-74548647D01*
X115598288Y-74528794D01*
X115616113Y-74520858D01*
X115766722Y-74453803D01*
X115766724Y-74453802D01*
X115772752Y-74451118D01*
X115778094Y-74447237D01*
X115926484Y-74339425D01*
X115932549Y-74337261D01*
X115946768Y-74317192D01*
X116055040Y-74196944D01*
X116128636Y-74069472D01*
X116147223Y-74037279D01*
X116147224Y-74037278D01*
X116150527Y-74031556D01*
X116209542Y-73849928D01*
X116229504Y-73660000D01*
X116209542Y-73470072D01*
X116150527Y-73288444D01*
X116055040Y-73123056D01*
X115927253Y-72981134D01*
X115772752Y-72868882D01*
X115766724Y-72866198D01*
X115766722Y-72866197D01*
X115604319Y-72793891D01*
X115604318Y-72793891D01*
X115598288Y-72791206D01*
X115504887Y-72771353D01*
X115417944Y-72752872D01*
X115417939Y-72752872D01*
X115411487Y-72751500D01*
X115220513Y-72751500D01*
X115214061Y-72752872D01*
X115214056Y-72752872D01*
X115127113Y-72771353D01*
X115033712Y-72791206D01*
X115027682Y-72793891D01*
X115027681Y-72793891D01*
X114865278Y-72866197D01*
X114865276Y-72866198D01*
X114859248Y-72868882D01*
X114704747Y-72981134D01*
X114700332Y-72986037D01*
X114695420Y-72990460D01*
X114694295Y-72989211D01*
X114640986Y-73022051D01*
X114607800Y-73026500D01*
X109716395Y-73026500D01*
X109648274Y-73006498D01*
X109601781Y-72952842D01*
X109591677Y-72882568D01*
X109596563Y-72861562D01*
X109603502Y-72840208D01*
X109603503Y-72840203D01*
X109605542Y-72833928D01*
X109610177Y-72789834D01*
X109622907Y-72668707D01*
X109649920Y-72603050D01*
X109659122Y-72592782D01*
X112025253Y-70226652D01*
X112033539Y-70219112D01*
X112040018Y-70215000D01*
X112086644Y-70165348D01*
X112089398Y-70162507D01*
X112109135Y-70142770D01*
X112111615Y-70139573D01*
X112119320Y-70130551D01*
X112144159Y-70104100D01*
X112149586Y-70098321D01*
X112153405Y-70091375D01*
X112153407Y-70091372D01*
X112159348Y-70080566D01*
X112170199Y-70064047D01*
X112177758Y-70054301D01*
X112182614Y-70048041D01*
X112185759Y-70040772D01*
X112185762Y-70040768D01*
X112200174Y-70007463D01*
X112205391Y-69996813D01*
X112226695Y-69958060D01*
X112231733Y-69938437D01*
X112238137Y-69919734D01*
X112243033Y-69908420D01*
X112243033Y-69908419D01*
X112246181Y-69901145D01*
X112247420Y-69893322D01*
X112247423Y-69893312D01*
X112253099Y-69857476D01*
X112255505Y-69845856D01*
X112264528Y-69810711D01*
X112264528Y-69810710D01*
X112266500Y-69803030D01*
X112266500Y-69782776D01*
X112268051Y-69763065D01*
X112269980Y-69750886D01*
X112271220Y-69743057D01*
X112267059Y-69699038D01*
X112266500Y-69687181D01*
X112266500Y-66642006D01*
X121260496Y-66642006D01*
X121280458Y-66831934D01*
X121339473Y-67013562D01*
X121434960Y-67178950D01*
X121562747Y-67320872D01*
X121717248Y-67433124D01*
X121723276Y-67435808D01*
X121723278Y-67435809D01*
X121885681Y-67508115D01*
X121891712Y-67510800D01*
X121959134Y-67525131D01*
X122072056Y-67549134D01*
X122072061Y-67549134D01*
X122078513Y-67550506D01*
X122269487Y-67550506D01*
X122275939Y-67549134D01*
X122275944Y-67549134D01*
X122388866Y-67525131D01*
X122456288Y-67510800D01*
X122462319Y-67508115D01*
X122624722Y-67435809D01*
X122624724Y-67435808D01*
X122630752Y-67433124D01*
X122703512Y-67380261D01*
X122785253Y-67320872D01*
X122786417Y-67322474D01*
X122841918Y-67295844D01*
X122912371Y-67304613D01*
X122963038Y-67344634D01*
X122989739Y-67380261D01*
X123106295Y-67467615D01*
X123242684Y-67518745D01*
X123304866Y-67525500D01*
X124801134Y-67525500D01*
X124863316Y-67518745D01*
X124999705Y-67467615D01*
X125116261Y-67380261D01*
X125203615Y-67263705D01*
X125254745Y-67127316D01*
X125261500Y-67065134D01*
X125261500Y-66568866D01*
X125254745Y-66506684D01*
X125257174Y-66506420D01*
X125257174Y-66477580D01*
X125254745Y-66477316D01*
X125261131Y-66418531D01*
X125261500Y-66415134D01*
X125261500Y-65918866D01*
X125254745Y-65856684D01*
X125257174Y-65856420D01*
X125257174Y-65827580D01*
X125254745Y-65827316D01*
X125261131Y-65768531D01*
X125261500Y-65765134D01*
X125261500Y-65268866D01*
X125254745Y-65206684D01*
X125257174Y-65206420D01*
X125257174Y-65177580D01*
X125254745Y-65177316D01*
X125261131Y-65118531D01*
X125261500Y-65115134D01*
X125261500Y-64618866D01*
X125254745Y-64556684D01*
X125203615Y-64420295D01*
X125116261Y-64303739D01*
X124999705Y-64216385D01*
X124863316Y-64165255D01*
X124801134Y-64158500D01*
X123304866Y-64158500D01*
X123242684Y-64165255D01*
X123106295Y-64216385D01*
X123105632Y-64214615D01*
X123047175Y-64227400D01*
X122980627Y-64202664D01*
X122946906Y-64164713D01*
X122913040Y-64106056D01*
X122853054Y-64039434D01*
X122789675Y-63969045D01*
X122789674Y-63969044D01*
X122785253Y-63964134D01*
X122630752Y-63851882D01*
X122624724Y-63849198D01*
X122624722Y-63849197D01*
X122462319Y-63776891D01*
X122462318Y-63776891D01*
X122456288Y-63774206D01*
X122362887Y-63754353D01*
X122275944Y-63735872D01*
X122275939Y-63735872D01*
X122269487Y-63734500D01*
X122078513Y-63734500D01*
X122072061Y-63735872D01*
X122072056Y-63735872D01*
X121985113Y-63754353D01*
X121891712Y-63774206D01*
X121885682Y-63776891D01*
X121885681Y-63776891D01*
X121723278Y-63849197D01*
X121723276Y-63849198D01*
X121717248Y-63851882D01*
X121562747Y-63964134D01*
X121558326Y-63969044D01*
X121558325Y-63969045D01*
X121494947Y-64039434D01*
X121434960Y-64106056D01*
X121339473Y-64271444D01*
X121280458Y-64453072D01*
X121279768Y-64459633D01*
X121279768Y-64459635D01*
X121277479Y-64481411D01*
X121260496Y-64643000D01*
X121280458Y-64832928D01*
X121339473Y-65014556D01*
X121377115Y-65079753D01*
X121393852Y-65148745D01*
X121377114Y-65205751D01*
X121339473Y-65270947D01*
X121280458Y-65452575D01*
X121260496Y-65642503D01*
X121280458Y-65832431D01*
X121339473Y-66014059D01*
X121342776Y-66019781D01*
X121342777Y-66019782D01*
X121377114Y-66079255D01*
X121393852Y-66148250D01*
X121377115Y-66205253D01*
X121339473Y-66270450D01*
X121280458Y-66452078D01*
X121279768Y-66458639D01*
X121279768Y-66458641D01*
X121266741Y-66582589D01*
X121260496Y-66642006D01*
X112266500Y-66642006D01*
X112266500Y-64710524D01*
X112286502Y-64642403D01*
X112298858Y-64626221D01*
X112372040Y-64544944D01*
X112467527Y-64379556D01*
X112526542Y-64197928D01*
X112529685Y-64168029D01*
X112545814Y-64014565D01*
X112546504Y-64008000D01*
X112536982Y-63917406D01*
X112527232Y-63824635D01*
X112527232Y-63824633D01*
X112526542Y-63818072D01*
X112467527Y-63636444D01*
X112448255Y-63603063D01*
X112375341Y-63476774D01*
X112372040Y-63471056D01*
X112244253Y-63329134D01*
X112089752Y-63216882D01*
X112083724Y-63214198D01*
X112083722Y-63214197D01*
X111921319Y-63141891D01*
X111921318Y-63141891D01*
X111915288Y-63139206D01*
X111821887Y-63119353D01*
X111734944Y-63100872D01*
X111734939Y-63100872D01*
X111728487Y-63099500D01*
X111537513Y-63099500D01*
X111531061Y-63100872D01*
X111531056Y-63100872D01*
X111444113Y-63119353D01*
X111350712Y-63139206D01*
X111344682Y-63141891D01*
X111344681Y-63141891D01*
X111182278Y-63214197D01*
X111182276Y-63214198D01*
X111176248Y-63216882D01*
X111021747Y-63329134D01*
X110893960Y-63471056D01*
X110890659Y-63476774D01*
X110817746Y-63603063D01*
X110798473Y-63636444D01*
X110739458Y-63818072D01*
X110738768Y-63824633D01*
X110738768Y-63824635D01*
X110729018Y-63917406D01*
X110719496Y-64008000D01*
X110720186Y-64014565D01*
X110736316Y-64168029D01*
X110739458Y-64197928D01*
X110798473Y-64379556D01*
X110893960Y-64544944D01*
X110967137Y-64626215D01*
X110997853Y-64690221D01*
X110999500Y-64710524D01*
X110999500Y-69408406D01*
X110979498Y-69476527D01*
X110962595Y-69497501D01*
X108761500Y-71698595D01*
X108699188Y-71732621D01*
X108672405Y-71735500D01*
X108616513Y-71735500D01*
X108610061Y-71736872D01*
X108610056Y-71736872D01*
X108523113Y-71755353D01*
X108429712Y-71775206D01*
X108423682Y-71777891D01*
X108423681Y-71777891D01*
X108261278Y-71850197D01*
X108261276Y-71850198D01*
X108255248Y-71852882D01*
X108100747Y-71965134D01*
X107972960Y-72107056D01*
X107877473Y-72272444D01*
X107818458Y-72454072D01*
X107798496Y-72644000D01*
X107799186Y-72650565D01*
X107813824Y-72789834D01*
X107818458Y-72833928D01*
X107820497Y-72840203D01*
X107820498Y-72840208D01*
X107827437Y-72861562D01*
X107829466Y-72932529D01*
X107792805Y-72993328D01*
X107729093Y-73024654D01*
X107707605Y-73026500D01*
X106486594Y-73026500D01*
X106418473Y-73006498D01*
X106397499Y-72989595D01*
X92768122Y-59360217D01*
X92734096Y-59297905D01*
X92731907Y-59284292D01*
X92715232Y-59125635D01*
X92715232Y-59125633D01*
X92714542Y-59119072D01*
X92655527Y-58937444D01*
X92560040Y-58772056D01*
X92432253Y-58630134D01*
X92277752Y-58517882D01*
X92271724Y-58515198D01*
X92271722Y-58515197D01*
X92109319Y-58442891D01*
X92109318Y-58442891D01*
X92103288Y-58440206D01*
X92009887Y-58420353D01*
X91922944Y-58401872D01*
X91922939Y-58401872D01*
X91916487Y-58400500D01*
X91725513Y-58400500D01*
X91719061Y-58401872D01*
X91719056Y-58401872D01*
X91632113Y-58420353D01*
X91538712Y-58440206D01*
X91532682Y-58442891D01*
X91532681Y-58442891D01*
X91370278Y-58515197D01*
X91370276Y-58515198D01*
X91364248Y-58517882D01*
X91209747Y-58630134D01*
X91081960Y-58772056D01*
X90986473Y-58937444D01*
X90927458Y-59119072D01*
X90907496Y-59309000D01*
X84080905Y-59309000D01*
X86364253Y-57025652D01*
X86372539Y-57018112D01*
X86379018Y-57014000D01*
X86425644Y-56964348D01*
X86428398Y-56961507D01*
X86448135Y-56941770D01*
X86450615Y-56938573D01*
X86458320Y-56929551D01*
X86483159Y-56903100D01*
X86488586Y-56897321D01*
X86492405Y-56890375D01*
X86492407Y-56890372D01*
X86498348Y-56879566D01*
X86509199Y-56863047D01*
X86516758Y-56853301D01*
X86521614Y-56847041D01*
X86524759Y-56839772D01*
X86524762Y-56839768D01*
X86539174Y-56806463D01*
X86544391Y-56795813D01*
X86565695Y-56757060D01*
X86570733Y-56737437D01*
X86577137Y-56718734D01*
X86582033Y-56707420D01*
X86582033Y-56707419D01*
X86585181Y-56700145D01*
X86586420Y-56692322D01*
X86586423Y-56692312D01*
X86592099Y-56656476D01*
X86594505Y-56644856D01*
X86603528Y-56609711D01*
X86603528Y-56609710D01*
X86605500Y-56602030D01*
X86605500Y-56581776D01*
X86607051Y-56562065D01*
X86608980Y-56549886D01*
X86610220Y-56542057D01*
X86606059Y-56498038D01*
X86605500Y-56486181D01*
X86605500Y-55489500D01*
X86625502Y-55421379D01*
X86679158Y-55374886D01*
X86731500Y-55363500D01*
X90479233Y-55363500D01*
X90490416Y-55364027D01*
X90497909Y-55365702D01*
X90505835Y-55365453D01*
X90505836Y-55365453D01*
X90565986Y-55363562D01*
X90569945Y-55363500D01*
X90597856Y-55363500D01*
X90601791Y-55363003D01*
X90601856Y-55362995D01*
X90613693Y-55362062D01*
X90645951Y-55361048D01*
X90649970Y-55360922D01*
X90657889Y-55360673D01*
X90677343Y-55355021D01*
X90696700Y-55351013D01*
X90708930Y-55349468D01*
X90708931Y-55349468D01*
X90716797Y-55348474D01*
X90724168Y-55345555D01*
X90724170Y-55345555D01*
X90757912Y-55332196D01*
X90769142Y-55328351D01*
X90803983Y-55318229D01*
X90803984Y-55318229D01*
X90811593Y-55316018D01*
X90818412Y-55311985D01*
X90818417Y-55311983D01*
X90829028Y-55305707D01*
X90846776Y-55297012D01*
X90865617Y-55289552D01*
X90901387Y-55263564D01*
X90911307Y-55257048D01*
X90942535Y-55238580D01*
X90942538Y-55238578D01*
X90949362Y-55234542D01*
X90963683Y-55220221D01*
X90978717Y-55207380D01*
X90988694Y-55200131D01*
X90995107Y-55195472D01*
X91023298Y-55161395D01*
X91031288Y-55152616D01*
X92808499Y-53375405D01*
X92870811Y-53341379D01*
X92897594Y-53338500D01*
X112575800Y-53338500D01*
X112643921Y-53358502D01*
X112663147Y-53374843D01*
X112663420Y-53374540D01*
X112668332Y-53378963D01*
X112672747Y-53383866D01*
X112827248Y-53496118D01*
X112833276Y-53498802D01*
X112833278Y-53498803D01*
X112995681Y-53571109D01*
X113001712Y-53573794D01*
X113095113Y-53593647D01*
X113182056Y-53612128D01*
X113182061Y-53612128D01*
X113188513Y-53613500D01*
X113379487Y-53613500D01*
X113385939Y-53612128D01*
X113385944Y-53612128D01*
X113472887Y-53593647D01*
X113566288Y-53573794D01*
X113572319Y-53571109D01*
X113734722Y-53498803D01*
X113734724Y-53498802D01*
X113740752Y-53496118D01*
X113895253Y-53383866D01*
X113918091Y-53358502D01*
X114018621Y-53246852D01*
X114018622Y-53246851D01*
X114023040Y-53241944D01*
X114100196Y-53108307D01*
X114115223Y-53082279D01*
X114115224Y-53082278D01*
X114118527Y-53076556D01*
X114177542Y-52894928D01*
X114197504Y-52705000D01*
X114189456Y-52628423D01*
X114178232Y-52521635D01*
X114178232Y-52521633D01*
X114177542Y-52515072D01*
X114118527Y-52333444D01*
X114023040Y-52168056D01*
X114006882Y-52150110D01*
X113899675Y-52031045D01*
X113899674Y-52031044D01*
X113895253Y-52026134D01*
X113740752Y-51913882D01*
X113734724Y-51911198D01*
X113734722Y-51911197D01*
X113572319Y-51838891D01*
X113572318Y-51838891D01*
X113566288Y-51836206D01*
X113472888Y-51816353D01*
X113385944Y-51797872D01*
X113385939Y-51797872D01*
X113379487Y-51796500D01*
X113188513Y-51796500D01*
X113182061Y-51797872D01*
X113182056Y-51797872D01*
X113095112Y-51816353D01*
X113001712Y-51836206D01*
X112995682Y-51838891D01*
X112995681Y-51838891D01*
X112833278Y-51911197D01*
X112833276Y-51911198D01*
X112827248Y-51913882D01*
X112672747Y-52026134D01*
X112668332Y-52031037D01*
X112663420Y-52035460D01*
X112662295Y-52034211D01*
X112608986Y-52067051D01*
X112575800Y-52071500D01*
X92661763Y-52071500D01*
X92650579Y-52070973D01*
X92643091Y-52069299D01*
X92635168Y-52069548D01*
X92575033Y-52071438D01*
X92571075Y-52071500D01*
X92543144Y-52071500D01*
X92539229Y-52071995D01*
X92539225Y-52071995D01*
X92539167Y-52072003D01*
X92539138Y-52072006D01*
X92527296Y-52072939D01*
X92483110Y-52074327D01*
X92465744Y-52079372D01*
X92463658Y-52079978D01*
X92444306Y-52083986D01*
X92432068Y-52085532D01*
X92432066Y-52085533D01*
X92424203Y-52086526D01*
X92383086Y-52102806D01*
X92371885Y-52106641D01*
X92329406Y-52118982D01*
X92322587Y-52123015D01*
X92322582Y-52123017D01*
X92311971Y-52129293D01*
X92294221Y-52137990D01*
X92275383Y-52145448D01*
X92268967Y-52150109D01*
X92268966Y-52150110D01*
X92239625Y-52171428D01*
X92229701Y-52177947D01*
X92198460Y-52196422D01*
X92198455Y-52196426D01*
X92191637Y-52200458D01*
X92177313Y-52214782D01*
X92162281Y-52227621D01*
X92145893Y-52239528D01*
X92117712Y-52273593D01*
X92109722Y-52282373D01*
X90332500Y-54059595D01*
X90270188Y-54093621D01*
X90243405Y-54096500D01*
X86680200Y-54096500D01*
X86612079Y-54076498D01*
X86592853Y-54060157D01*
X86592580Y-54060460D01*
X86587668Y-54056037D01*
X86583253Y-54051134D01*
X86428752Y-53938882D01*
X86422724Y-53936198D01*
X86422722Y-53936197D01*
X86260319Y-53863891D01*
X86260318Y-53863891D01*
X86254288Y-53861206D01*
X86160888Y-53841353D01*
X86073944Y-53822872D01*
X86073939Y-53822872D01*
X86067487Y-53821500D01*
X85876513Y-53821500D01*
X85870061Y-53822872D01*
X85870056Y-53822872D01*
X85783112Y-53841353D01*
X85689712Y-53861206D01*
X85683682Y-53863891D01*
X85683681Y-53863891D01*
X85521278Y-53936197D01*
X85521276Y-53936198D01*
X85515248Y-53938882D01*
X85360747Y-54051134D01*
X85356326Y-54056044D01*
X85356325Y-54056045D01*
X85322492Y-54093621D01*
X85232960Y-54193056D01*
X85137473Y-54358444D01*
X85078458Y-54540072D01*
X85058496Y-54730000D01*
X85078458Y-54919928D01*
X85137473Y-55101556D01*
X85232960Y-55266944D01*
X85306137Y-55348215D01*
X85336853Y-55412221D01*
X85338500Y-55432524D01*
X85338500Y-56207406D01*
X85318498Y-56275527D01*
X85301595Y-56296501D01*
X79833538Y-61764557D01*
X79771226Y-61798583D01*
X79722561Y-61799547D01*
X79717961Y-61798736D01*
X79712655Y-61797314D01*
X79707188Y-61796836D01*
X79707184Y-61796835D01*
X79507475Y-61779363D01*
X79502000Y-61778884D01*
X79291345Y-61797314D01*
X79286032Y-61798738D01*
X79286030Y-61798738D01*
X79092400Y-61850621D01*
X79092398Y-61850622D01*
X79087090Y-61852044D01*
X79082109Y-61854366D01*
X79082108Y-61854367D01*
X78900423Y-61939088D01*
X78900420Y-61939090D01*
X78895442Y-61941411D01*
X78722224Y-62062699D01*
X78572699Y-62212224D01*
X78451411Y-62385442D01*
X78362044Y-62577090D01*
X78360622Y-62582398D01*
X78360621Y-62582400D01*
X78328875Y-62700879D01*
X78307314Y-62781345D01*
X78288884Y-62992000D01*
X78307314Y-63202655D01*
X78308738Y-63207968D01*
X78308738Y-63207970D01*
X78340164Y-63325251D01*
X78362044Y-63406910D01*
X78451411Y-63598558D01*
X78572699Y-63771776D01*
X78722224Y-63921301D01*
X78895442Y-64042589D01*
X78900420Y-64044910D01*
X78900423Y-64044912D01*
X79082108Y-64129633D01*
X79087090Y-64131956D01*
X79092398Y-64133378D01*
X79092400Y-64133379D01*
X79118204Y-64140293D01*
X79178827Y-64177245D01*
X79209848Y-64241106D01*
X79201420Y-64311600D01*
X79156217Y-64366347D01*
X79118204Y-64383707D01*
X79092400Y-64390621D01*
X79092398Y-64390622D01*
X79087090Y-64392044D01*
X79082109Y-64394366D01*
X79082108Y-64394367D01*
X78900423Y-64479088D01*
X78900420Y-64479090D01*
X78895442Y-64481411D01*
X78722224Y-64602699D01*
X78572699Y-64752224D01*
X78451411Y-64925442D01*
X78362044Y-65117090D01*
X78360622Y-65122398D01*
X78360621Y-65122400D01*
X78322286Y-65265469D01*
X78307314Y-65321345D01*
X78288884Y-65532000D01*
X71508500Y-65532000D01*
X71508500Y-46634500D01*
X71528502Y-46566379D01*
X71582158Y-46519886D01*
X71634500Y-46508500D01*
X83394000Y-46508500D01*
X83462121Y-46528502D01*
G37*
%TD.AperFunction*%
%TD*%
M02*
